<?xml version="1.0" encoding="utf-8"?>
<!-- Generator: Adobe Illustrator 26.3.1, SVG Export Plug-In . SVG Version: 6.00 Build 0)  -->
<svg version="1.1" id="图层_1" xmlns="http://www.w3.org/2000/svg" xmlns:xlink="http://www.w3.org/1999/xlink" x="0px" y="0px"
	 viewBox="0 0 272 191" style="enable-background:new 0 0 272 191;" xml:space="preserve">
<style type="text/css">
	.st0{fill:#8E8E8E;}
</style>
<g>
	<path class="st0" d="M147.91,77.51v-3.46c0-0.52,0.4-0.87,0.87-0.87h15.52c0.51,0,0.89,0.36,0.89,0.87v2.98
		c-0.01,0.5-0.42,1.15-1.17,2.17l-8.05,11.48c2.99-0.06,6.15,0.38,8.86,1.9c0.61,0.34,0.78,0.85,0.83,1.34v3.71
		c0,0.51-0.56,1.1-1.14,0.79c-4.78-2.51-11.12-2.79-16.41,0.04c-0.54,0.29-1.1-0.29-1.1-0.8v-3.52c0-0.56,0.01-1.52,0.58-2.38
		l9.32-13.37h-8.11C148.31,78.4,147.91,78.05,147.91,77.51z M91.27,99.17h-4.73c-0.45-0.03-0.81-0.37-0.85-0.79l0.01-24.25
		c0-0.49,0.4-0.87,0.91-0.87h4.4c0.46,0.03,0.83,0.38,0.86,0.82v3.17h0.08c1.15-3.06,3.3-4.49,6.21-4.49c2.95,0,4.8,1.43,6.13,4.49
		c1.15-3.06,3.74-4.49,6.52-4.49c1.98,0,4.14,0.82,5.47,2.66c1.5,2.03,1.19,5,1.19,7.59v15.31c0,0.49-0.41,0.87-0.91,0.87h-4.72
		c-0.48-0.03-0.85-0.4-0.85-0.87V85.45c0-1.02,0.08-3.57-0.14-4.54c-0.35-1.63-1.42-2.09-2.78-2.09c-1.14,0-2.34,0.77-2.82,1.99
		c-0.49,1.23-0.44,3.27-0.44,4.65v12.85c0,0.49-0.41,0.87-0.91,0.87H99.2c-0.49-0.05-0.86-0.42-0.86-0.88l-0.01-12.86
		c0-2.71,0.44-6.68-2.91-6.68c-3.39,0-3.27,3.88-3.27,6.68v12.85C92.18,98.78,91.78,99.17,91.27,99.17L91.27,99.17z M178.59,72.73
		c7.01,0,10.81,6.03,10.81,13.67c0,7.4-4.2,13.28-10.81,13.28c-6.88,0-10.63-6.03-10.63-13.53
		C167.95,78.61,171.74,72.73,178.59,72.73z M178.63,77.68c-3.49,0-3.72,4.75-3.72,7.7c0,2.96-0.05,9.28,3.66,9.28
		c3.65,0,3.82-5.11,3.82-8.21c0-2.04-0.08-4.49-0.7-6.43C181.18,78.34,180.11,77.68,178.63,77.68L178.63,77.68z M198.48,99.17h-4.71
		c-0.48-0.03-0.85-0.4-0.85-0.87l-0.01-24.26c0.05-0.44,0.43-0.79,0.91-0.79h4.38c0.41,0.03,0.75,0.3,0.84,0.68v3.71h0.09
		c1.32-3.31,3.17-4.9,6.43-4.9c2.12,0,4.2,0.77,5.52,2.86c1.23,1.93,1.23,5.2,1.23,7.54V98.4c-0.06,0.43-0.44,0.77-0.89,0.77h-4.74
		c-0.43-0.03-0.78-0.35-0.85-0.77V85.24c0-2.65,0.31-6.53-2.95-6.53c-1.15,0-2.2,0.77-2.72,1.94c-0.66,1.48-0.75,2.95-0.75,4.59
		V98.3C199.39,98.78,198.97,99.17,198.48,99.17z M82.01,94.72c-0.86-1.2-1.78-2.16-1.78-4.37v-7.36c0-3.11,0.23-5.98-2.08-8.13
		c-1.8-1.75-4.81-2.36-7.11-2.36c-4.5,0-9.51,1.68-10.56,7.23c-0.11,0.6,0.32,0.9,0.7,0.98l4.57,0.5c0.42-0.03,0.74-0.44,0.82-0.87
		c0.4-1.91,2-2.83,3.8-2.83c0.97,0,2.07,0.36,2.65,1.23c0.66,0.97,0.58,2.3,0.58,3.43v0.61c-2.74,0.31-6.32,0.51-8.88,1.64
		c-2.96,1.28-5.03,3.89-5.03,7.73c0,4.91,3.09,7.37,7.07,7.37c3.36,0,5.2-0.79,7.79-3.44c0.86,1.24,1.14,1.84,2.71,3.16
		c0.35,0.18,0.8,0.17,1.12-0.11l0.01,0.01c0.95-0.85,2.66-2.34,3.62-3.14C82.38,95.66,82.32,95.15,82.01,94.72L82.01,94.72z
		 M72.72,92.6c-0.75,1.32-1.94,2.14-3.27,2.14c-1.81,0-2.88-1.38-2.88-3.42c0-4.02,3.62-4.75,7.03-4.75v1.02
		C73.61,89.42,73.65,90.96,72.72,92.6z M143.95,94.72c-0.87-1.2-1.78-2.16-1.78-4.37v-7.36c0-3.11,0.22-5.98-2.08-8.13
		c-1.8-1.74-4.82-2.36-7.11-2.36c-4.49,0-9.51,1.68-10.56,7.23c-0.11,0.6,0.32,0.9,0.7,0.98l4.57,0.5c0.43-0.03,0.75-0.44,0.82-0.87
		c0.4-1.91,1.99-2.83,3.8-2.83c0.97,0,2.08,0.36,2.65,1.23c0.66,0.97,0.57,2.3,0.57,3.43v0.61c-2.73,0.31-6.31,0.51-8.88,1.64
		c-2.96,1.28-5.03,3.89-5.03,7.73c0,4.91,3.08,7.37,7.07,7.37c3.36,0,5.2-0.79,7.78-3.44c0.86,1.24,1.14,1.84,2.71,3.16
		c0.35,0.18,0.8,0.17,1.11-0.11l0.01,0.01c0.95-0.85,2.66-2.34,3.63-3.14C144.32,95.66,144.24,95.15,143.95,94.72L143.95,94.72z
		 M134.65,92.6c-0.75,1.32-1.94,2.14-3.27,2.14c-1.81,0-2.87-1.38-2.87-3.42c0-4.02,3.61-4.75,7.03-4.75v1.02
		C135.53,89.42,135.58,90.96,134.65,92.6z"/>
	<g>
		<path class="st0" d="M154.22,108.6c-9.01,6.43-21.56,9.9-32.63,9.9c-15.51,0-29.34-5.61-39.99-15.24
			c-0.98-0.88-0.35-1.93,0.87-1.23c11.59,6.7,25.47,10.63,40.06,10.63c9.83,0,20.27-1.96,30.19-6.18
			C154.87,105.56,155.77,107.49,154.22,108.6L154.22,108.6z"/>
		<path class="st0" d="M158.07,104.25c-1.14-1.45-7.5-0.69-10.36-0.35c-0.86,0.11-1-0.65-0.22-1.2c5.08-3.54,13.4-2.52,14.36-1.34
			c0.97,1.21-0.26,9.55-5.01,13.54c-0.74,0.62-1.43,0.29-1.09-0.52C156.81,111.69,159.2,105.7,158.07,104.25L158.07,104.25z"/>
	</g>
</g>
</svg>
