<?xml version="1.0" encoding="utf-8"?>
<!-- Generator: Adobe Illustrator 26.3.1, SVG Export Plug-In . SVG Version: 6.00 Build 0)  -->
<svg version="1.1" id="图层_1" xmlns="http://www.w3.org/2000/svg" xmlns:xlink="http://www.w3.org/1999/xlink" x="0px" y="0px"
	 viewBox="0 0 272 191" style="enable-background:new 0 0 272 191;" xml:space="preserve">
<style type="text/css">
	.st0{fill:#8E8E8E;}
</style>
<g>
	<path class="st0" d="M182.34,80.45c-8.23,0.09-14.88,6.78-14.88,15.03c0,0.05,0.01,12.57,0.01,14.72c0,0.17,0.14,0.31,0.31,0.31
		h4.59c0.17,0,0.31-0.14,0.31-0.31V95.44c0.03-5.33,4.3-9.65,9.62-9.76c0.01,0,0.02,0,0.05,0c0.17,0,0.32-0.14,0.32-0.31v-4.59
		C182.65,80.59,182.51,80.45,182.34,80.45z"/>
	<g>
		<g>
			<path class="st0" d="M75.64,90.49c-2.76,0-5.02,2.25-5.02,5.02s2.25,5.02,5.02,5.02s5.02-2.25,5.02-5.02S78.41,90.49,75.64,90.49
				z"/>
			<path class="st0" d="M184.47,90.67c-1.49,4.81-0.7,9.8,2.17,13.71c2.83,3.84,7.36,6.13,12.12,6.13c3.1,0,6.11-0.95,8.64-2.73
				c0.16-0.12,0.33-0.23,0.49-0.36c0.05-0.04,0.11-0.08,0.17-0.14c0.21-0.16,0.51-0.02,0.51,0.24v2.67c0,0.17,0.14,0.32,0.32,0.32
				h4.58c0.17,0,0.32-0.14,0.32-0.32V95.55c0-0.02,0-0.05,0-0.07c0-4.76-2.29-9.29-6.13-12.12c-3.91-2.87-8.9-3.66-13.71-2.17
				C189.41,82.61,185.87,86.15,184.47,90.67z M189.69,91.58c0.92-2.36,2.8-4.24,5.16-5.16c1.28-0.5,2.59-0.76,3.91-0.76
				c1.98,0,3.88,0.59,5.52,1.7c2.61,1.78,4.21,4.73,4.29,7.88v0.35c-0.06,5.36-4.47,9.71-9.81,9.71c-3.24,0-6.28-1.6-8.11-4.29
				C188.76,98.26,188.42,94.83,189.69,91.58z"/>
			<path class="st0" d="M100.57,90.67c-1.49,4.81-0.7,9.8,2.17,13.71c2.83,3.84,7.36,6.13,12.12,6.13c3.11,0,6.13-0.96,8.64-2.74
				c0.13-0.09,0.24-0.17,0.37-0.27c0.03-0.02,0.15-0.12,0.29-0.23c0.21-0.16,0.51-0.02,0.51,0.24v10.17c0,0.17,0.14,0.32,0.32,0.32
				h4.58c0.17,0,0.32-0.14,0.32-0.32V95.6v-0.05c0-0.02,0-0.05,0-0.07c0-4.76-2.29-9.29-6.13-12.12c-3.91-2.87-8.9-3.66-13.71-2.17
				C105.53,82.61,101.99,86.15,100.57,90.67z M105.8,91.58c0.92-2.36,2.8-4.24,5.16-5.16c1.28-0.5,2.59-0.76,3.91-0.76
				c1.98,0,3.88,0.59,5.52,1.7c2.61,1.78,4.21,4.73,4.29,7.88v0.35c-0.05,5.36-4.47,9.71-9.81,9.71c-3.24,0-6.28-1.6-8.11-4.29
				C104.88,98.26,104.54,94.83,105.8,91.58z"/>
			<path class="st0" d="M134.38,90.67c-1.49,4.81-0.7,9.8,2.17,13.71c2.83,3.84,7.36,6.13,12.12,6.13c3.1,0,6.11-0.95,8.64-2.73
				c0.16-0.12,0.33-0.23,0.49-0.36c0.05-0.04,0.11-0.08,0.17-0.14c0.21-0.16,0.51-0.02,0.51,0.24v2.67c0,0.17,0.14,0.32,0.32,0.32
				h4.58c0.17,0,0.32-0.14,0.32-0.32V95.55c0-0.02,0-0.05,0-0.07c0-4.76-2.29-9.29-6.13-12.12c-3.91-2.87-8.9-3.66-13.71-2.17
				C139.34,82.61,135.8,86.15,134.38,90.67z M139.61,91.58c0.92-2.36,2.8-4.24,5.16-5.16c1.28-0.5,2.59-0.76,3.91-0.76
				c1.98,0,3.88,0.59,5.52,1.7c2.61,1.78,4.21,4.73,4.29,7.88v0.35c-0.06,5.36-4.47,9.71-9.81,9.71c-3.24,0-6.28-1.6-8.11-4.29
				C138.69,98.26,138.34,94.83,139.61,91.58z"/>
			<path class="st0" d="M100.29,110.05L88.98,79.98C87.55,75.74,83.73,73,79.25,73s-8.29,2.74-9.72,6.97L58.66,108.7l-0.41,1.09
				c-0.13,0.33,0.13,0.68,0.47,0.68h4.47c0.21,0,0.4-0.13,0.47-0.32l3.93-10.4l0.17-0.45l0.34-0.91c0.06-0.16,0.06-0.34,0.01-0.51
				c-0.23-0.75-0.37-1.54-0.37-2.36c0-2.85,1.53-5.36,3.81-6.74c0.15-0.09,0.27-0.23,0.33-0.39l0.2-0.54l0,0l0.16-0.45l0.13-0.34
				l2-5.3c0.02-0.03,0.02-0.06,0.04-0.1c0.85-2.56,3.05-3.48,4.82-3.48c1.77,0,3.96,0.92,4.82,3.48c0.01,0.04,0.02,0.06,0.04,0.09
				l9.98,26.56l0.69,1.84c0.07,0.2,0.26,0.32,0.47,0.32h4.74C100.2,110.47,100.36,110.25,100.29,110.05z"/>
		</g>
	</g>
</g>
</svg>
