<?xml version="1.0" encoding="utf-8"?>
<!-- Generator: Adobe Illustrator 26.3.1, SVG Export Plug-In . SVG Version: 6.00 Build 0)  -->
<svg version="1.1" id="图层_1" xmlns="http://www.w3.org/2000/svg" xmlns:xlink="http://www.w3.org/1999/xlink" x="0px" y="0px"
	 viewBox="0 0 272 191" style="enable-background:new 0 0 272 191;" xml:space="preserve">
<style type="text/css">
	.st0{fill:none;}
	.st1{fill:#8E8E8E;}
</style>
<g>
	<polyline class="st0" points="31.56,73.39 31.56,124.82 240.44,124.82 240.44,73.39 	"/>
	<path class="st1" d="M63.87,68.15c15.1,0,27.3,12.21,27.34,27.32c0,15.12-12.25,27.38-27.34,27.38s-27.34-12.27-27.34-27.38
		S48.78,68.15,63.87,68.15z M63.83,70.4c-13.85,0-25.06,11.21-25.06,25.08s11.25,25.08,25.1,25.08c13.81,0,25.06-11.21,25-25.08
		C88.89,81.61,77.68,70.4,63.83,70.4z M63.85,72c3.28,0,6.41,0.64,9.24,1.89c0.45,0.25,1.04,0.7,1.04,1.35c0,1.25-1.74,1-3.87,2.7
		c-1.95,1.56-2.99,3.77-3.03,6.21v34.39c-1.09,0.16-2.23,0.25-3.38,0.25c-1.05,0-2.11-0.08-3.12-0.21l-0.25-0.04V84.27
		c0-2.5-1-4.75-2.99-6.33c-2.19-1.7-3.87-1.45-3.87-2.7c0-0.7,0.61-1.09,1.04-1.35C57.51,72.7,60.57,72,63.85,72z M74.13,78.41
		v38.05c-1.39,0.72-2.91,1.25-4.43,1.64l-0.21,0.06V84.91c0-2.3,0.8-3.95,2.4-5.2c0.57-0.43,1.21-0.78,1.72-1.04L74.13,78.41z
		 M53.62,78.41l0.37,0.2l0.18,0.1c0.51,0.25,1.13,0.61,1.68,1.02c1.56,1.23,2.36,2.85,2.4,5.08v33.36c-1.5-0.37-2.99-0.94-4.41-1.58
		l-0.23-0.12L53.62,78.41L53.62,78.41z M51.43,75.67v18.3c-2.64-0.06-3.63-1.64-3.93-2.29c-0.25-0.51-0.39-1.05-0.84-1.05
		c-0.74,0-1.39,2.25-1.39,4.98v0.37c0.06,2.58,0.68,4.63,1.39,4.63c0.43,0,0.59-0.49,0.8-0.96l0.04-0.1
		c0.29-0.59,1.27-2.21,3.83-2.29h0.1v17.89c-6.5-4.14-10.84-11.41-10.84-19.75c0-8.24,4.2-15.45,10.64-19.61L51.43,75.67z
		 M76.37,75.63c6.17,3.95,10.34,10.63,10.78,18.34c-2.54-0.1-3.48-1.7-3.77-2.29l-0.04-0.1c-0.21-0.47-0.37-0.96-0.8-0.96
		c-0.78,0-1.39,2.19-1.39,4.88v0.1c0,2.73,0.61,4.98,1.39,4.98c0.43,0,0.59-0.51,0.82-1l0.06-0.1l0.04-0.08
		c0.37-0.66,1.35-2.03,3.65-2.21c-0.55,7.46-4.65,13.93-10.57,17.77l-0.18,0.12V75.63H76.37z"/>
	<path class="st1" d="M108.35,72.03h0.12c1.13,0.08,2.62,0.45,3.79,2.05c0.1,0.1,0.2,0.29,0.2,0.45c0,0.1-0.1,0.29-0.2,0.51
		c-0.1,0.16-0.16,0.25-0.2,0.35l-0.02,0.08c-0.12,0.33-0.39,1.35-0.57,4.92l1.02-0.14c4.02-0.53,5.49-0.84,5.8-0.96l0.06-0.02
		c0.08-0.04,0.61-0.27,0.82-0.29h0.02l0.25,0.06c2.05,0.84,3.5,1.72,4.34,2.73l0.06,0.08c0.04,0.06,0.29,0.41,0.23,0.59
		c-0.04,0.2-0.14,0.39-0.64,0.86l-0.06,0.04l-0.39,0.35l-0.02,0.04c-0.37,0.53-1.27,2.68-2.97,5.51c0.39,0.61,0.61,1,0.74,1.31
		l0.04,0.1c0.23,0.53,0.39,1.02,0,1.31c-0.35,0.25-1.54-0.04-2.91-0.06h-0.29c-1.15,0-3.54,0.06-6.45,0.25
		c0.04,0.64,0.04,1.33,0.06,2.07v0.68l-0.06,2.3l-0.02,0.45c-0.1,1.89-0.2,2.15-0.33,3.46l-0.02,0.21
		c-0.29,2.32-0.63,2.75-0.92,3.24c-0.2,0.29-0.45,0.61-0.64,0.61c-0.16,0.06-0.29-0.16-0.39-0.51l-0.04-0.16
		c-0.2-0.78-0.8-2.89-0.66-12.05l-0.21,0.02c-1.19,0.12-4.37,0.39-5.08,0.43c-0.29,1.09-0.7,1.54-1,1.7
		c-0.41,0.21-0.66,0.06-0.9-0.14l-0.16-0.14c-0.21-0.2-0.8-1.05-1.17-3.34c-0.55-4.36-1.86-8.4-1.86-8.4
		c-0.23-0.53-0.43-0.82-0.35-1.15l0.02-0.04c0.16-0.64,1.76-0.8,4.14,0.1h0.04c0.57-0.08,5.9-0.55,6.76-0.64v-0.78
		c0-0.68-0.02-1.52-0.04-2.32l-0.02-0.2c-0.23-2.68-0.57-3.22-0.66-3.61l-0.02-0.04c-0.2-0.74-0.45-1.09-0.45-1.35v-0.1
		C107.06,72.21,107.17,71.99,108.35,72.03L108.35,72.03z M108.25,82.99l-0.21,0.04c-1.29,0.18-5.04,0.63-5.84,0.66v0.08
		c0.1,1.04,0.29,5.8,0.39,6.68l0.27-0.02c1.21-0.12,4.55-0.37,5.27-0.47v-0.37C108.17,88.15,108.25,83.89,108.25,82.99z
		 M111.39,82.6v0.35c-0.02,1.45-0.14,5.8-0.14,6.7l0.59-0.08c3.54-0.45,4.63-0.72,4.82-0.82c0.25-0.29,0.7-2.56,1.09-4.26l0.04-0.18
		c0.12-0.74,0.18-1.19,0.18-1.52c0-0.2-0.06-0.35-0.06-0.39h-0.04C117.49,82.29,115.81,82.15,111.39,82.6z M190.69,74.79
		c1.82,0.25,2.95,0.92,3.89,1.84l0.06,0.06l0.16,0.29c0,0.35-0.35,0.74-0.64,1.35c-0.27,0.53-0.64,0.96-0.82,1.46l-0.04,0.16
		c-0.06,0.2-0.16,0.62-0.27,1.29l-0.14,0.68c-0.29,1.45-0.55,2.68-0.82,3.61c-0.25,0.8-0.74,1.54-1,1.86
		c-0.2,0.29-0.66,0.72-1.02,0.57l-0.04-0.02c-0.1-0.06-0.45-0.2-0.61-0.35h-0.04c-0.37,0.06-2.66,0.2-3.52,0.39l-0.47,0.12
		c-0.1,0.02-0.21,0.06-0.33,0.08l-0.08,0.02c0.18,0.18,0.37,0.35,0.61,0.55l0.29,0.25c0.74,0.64,3.36,2.91,3.91,3.3l0.14-0.18
		c1.66-2.21,2.11-3.36,2.11-3.54l0.06-0.86v-0.04c-0.02-0.12-0.08-0.14,0.25-0.37c0.35-0.25,1.31-0.1,2.25,0.51
		c0.51,0.41,1.25,1.15,1.19,1.7c0,0.45-0.45,0.35-0.86,0.74c-0.45,0.41-0.96,0.8-1.35,1.15c-0.61,0.55-1.35,1-2.4,1.8l1.02,0.74
		c2.01,1.46,3.3,2.3,6.25,2.91l0.18,0.04c0.96,0.21,1.6,0.27,1.74,0.57c0.16,0.35-0.74,0.9-1.45,1.41
		c-4.26,1.86-5.35,1.45-7.05-0.35c-1.66-1.7-3.59-3.96-4.96-5.47l-0.27-0.29c-0.72-0.78-1.54-1.68-2.42-2.62v0.8
		c0,2.15-0.04,5.88-0.04,7.19v0.12l0.45-0.2c3.48-1.46,4.22-1.5,4.3-1.21c0.1,0.35-0.74,1.21-2.7,3.4l-0.16,0.18
		c-1.15,1.27-2.21,2.27-2.6,2.79l-0.14,0.14l-0.08,0.1c-0.55,0.57-1.11,1.09-1.64,0.98c-0.62-0.2-1.25-2.21-1.43-3.11l-0.08-0.45
		c-0.06-0.29,0.06-0.08,0.62-0.68l0.04-0.06c0.74-0.86,0.74-1.15,0.9-3.2l-0.16-14.38l-0.02-0.21c-0.2-2.03-0.49-2.81-0.72-3.38
		c-0.16-0.45-0.74-1.45-0.25-1.8c0.45-0.25,1.5-0.25,2.75,0.25l0.21-0.08c3.42-1.33,6-1.72,6.13-1.82l0.16-0.16
		c0.33-0.23,0.45-0.47,0.66-0.55h0.04L190.69,74.79L190.69,74.79z M173.19,73.15c0.51,0.06,1.6,0.41,2.56,1.05
		c0.7,0.51,1.15,1.09,1.15,1.45s-0.25,0.51-0.55,0.9l-0.02,0.02c-0.2,0.18-0.57,0.78-1.46,2.77c-0.1,0.29-0.25,0.55-0.35,0.8
		c0.06-0.06,0.1-0.06,0.2-0.1l0.61-0.23c1-0.37,1.7-0.59,2.54-0.68c0.61-0.06,1.15,0.29,1.6,0.74c0.49,0.43,0.64,0.96,0.57,1.17
		v0.02c-0.14,0.39-0.8,0.49-1.31,0.64l-0.7,0.21c-3.12,0.92-4.04,1-4.79,0.8c-0.55,1.09-1.19,2.15-1.76,2.95l0.14-0.04
		c0.72-0.23,1.56-0.55,2.87-0.98l0.27-0.08c0.16-0.04,1.05-0.31,1.72-0.55c1.09-0.35,1.7,0.1,2.11,0.51l0.1,0.1
		c0.39,0.41,0.61,0.68,0.51,1.02c-0.14,0.39-0.76,0.55-1.11,0.72l-0.04,0.02c0,0-1.86,0.74-2.91,1l0.04,0.02
		c0.16,0.08,0.61,0.39,0.41,0.98c-0.1,0.2-0.16,1-0.25,1.31c-0.14,0.23-0.1,0.33-0.1,0.43v0.02l0.74-0.25l0.7-0.27
		c0.04-0.02,0.06-0.02,0.1-0.04l0.06-0.04c0.12-0.06,0.27-0.12,0.39-0.16l0.16-0.04c0.45-0.16,1.15-0.16,1.76,0.41
		c0.59,0.53,0.94,1.11,0.9,1.39v0.02c-0.04,0.43-0.57,0.41-0.88,0.49l-1.48,0.49c-0.43,0.14-0.92,0.29-1.43,0.45l-0.53,0.16
		c0,0-0.25,0.06-0.51,0.16v0.51c-0.02,0.96-0.06,2.71-0.1,3.69l0.82-0.37c3.4-1.5,4.04-1.66,4.14-1.39c0.06,0.25-0.2,0.45-0.9,0.86
		l-0.1,0.12c-0.29,0.33-0.84,0.9-1.86,1.84l-1.54,1.48c-0.51,0.49-0.98,0.92-1.31,1.23c-0.35,0.35-0.8,0.74-1.25,1.25l-0.1,0.1
		c-0.62,0.68-1.19,1.13-1.72,0.9l-0.04-0.02c-0.06-0.06-0.21-0.21-0.37-0.47c-0.45-0.7-0.74-2.25-0.8-2.6c0-0.35,0.1-0.45,0.1-0.45
		c0.1-0.2,0.39-0.41,0.86-0.7c0.51-0.35,0.86-1,1.09-2.3v-0.04c0-0.16,0.06-0.57,0.06-0.57l0.02-0.21c0.04-0.59,0.08-1.37,0.08-1.97
		c-0.37,0.14-1.05,0.27-1.43,0.43l-0.06,0.02c-0.33,0.14-1.43,0.43-1.86,0.49h-0.04c-0.55,0.1-1.19-0.35-1.6-0.74
		c-0.61-0.61-0.8-1.05-0.74-1.25c0.1-0.41,0.86-0.41,1.41-0.55l0.43-0.08c1.52-0.31,2.83-0.64,3.98-0.96c0-0.7-0.04-1.62-0.1-2.03
		l-0.04-0.37c-0.04-0.31-0.1-0.64-0.16-0.86l-0.14,0.02c-0.37,0.06-0.8,0.12-1.02,0.08c-0.45-0.1-0.7-0.25-0.86-0.45
		c-1.54,1.66-2.75,2.3-3.71,2.85c-0.61,0.35-1.76,0.7-2.11,0.7c-0.74,0.06,0.39-0.8,0.96-1.5c2.91-3.46,5.2-7.01,6.6-11.72
		l0.06-0.18c0.25-0.84,0.35-1.35,0.45-2.46c0.06-0.8-0.06-1.8,0.25-2.01C172.68,73.15,172.94,73.09,173.19,73.15L173.19,73.15z
		 M189.75,82.56l-0.04,0.04c-0.08,0.1-0.1,0.12-0.31,0.2c-0.25,0.16-4.2,0.59-5.41,1l-0.04,0.02v2.3c0.86-0.29,3.3-0.7,3.75-0.74
		c0.7-0.06,1.09,0.06,1.54,0.1C189.44,84.42,189.6,83.46,189.75,82.56z M190.2,78.15h-0.1c-0.64,0.02-3.5,0.2-6.11,1.17l-0.1,0.04
		v2.11c0-0.04,0.04-0.06,0.04-0.06c1.19-0.06,4.36-1.21,4.36-1.21c0.61,0.04,1.05,0.45,1.43,0.82l0.21,0.21l0.16-1.05
		c0.1-0.76,0.1-1.25,0.1-1.58L190.2,78.15L190.2,78.15z M234.67,82.97l0.18,0.12c1.07,0.74,1.62,1.7,1.13,2.42
		c-0.29,0.47-1.52,0.51-2.07,0.51h-0.08c-0.49-0.04-1.48,0.04-2.56,0.06h-0.1c-1.6,0-3.01,0.1-4.65,0.29
		c0.45,0.35,0.7,0.74,0.86,1.15c0.06,0.16,0.1,0.35,0.1,0.51c0,0.25-0.06,0.55-0.2,0.8l-0.08,0.35c-0.1,0.43-0.16,0.76-0.18,1.19
		v2.3c0,0.74,0.02,1.89,0.1,3.32c0.1,1.41,0.61,3.16,0.51,4.32c-0.1,0.74-0.39,1.45-0.86,2.05c-0.64,0.96-1.66,1.66-2.4,1.95
		c-0.8,0.29-1-0.55-1.5-1.45c-0.51-0.9-0.9-1.35-1.54-2.21l-0.1-0.14c-0.82-1.04-1.76-1.93-1.86-2.27c-0.2-0.74,1.54,0.2,3.2,0.61
		l0.27,0.06c0.53,0.12,0.8,0.2,0.98,0.2l0.02-0.06c0.14-0.39,0.31-1.39,0.33-4.14V93.8l-0.02-0.49c-0.1-2.95-0.31-5.14-0.68-6.43
		l-0.86,0.14c-2.15,0.35-2.68,0.49-2.99,0.62l-0.1,0.04l-0.1,0.06l-0.55,0.14c-0.39,0.1-0.72,0.16-1.02,0.18h-0.18
		c-1.04-0.14-1.86-0.59-2.23-0.86l-0.06-0.04c-0.29-0.2-0.64-0.64-0.51-1.05c0.16-0.35,0.86-0.41,1.6-0.51l0.59-0.1
		c6.19-1.07,10.31-2.11,11.23-2.4l0.1-0.04c0.78-0.25,2.3-0.57,2.6-0.62C232.54,82.05,233.87,82.44,234.67,82.97z M212.72,80.39
		c0.35,0.16,1.56,1.11,2.17,2.52l0.04,0.08c0,0,0.16,0.2,0,0.45l-0.04,0.06c-0.08,0.14-0.25,0.43-0.53,0.64
		c-0.45,0.35-1,0.86-1.54,1.5c-0.64,0.8-1.19,1.35-1.6,1.76l0.14,0.18c0.66,0.9,1.02,1.48,1.02,2.38c0,0.29-0.1,0.8-0.16,1.31
		c-0.04,0.45-0.06,1.05-0.06,1.43v1.68c0.02,2.52,0.04,3.69,0,5.21c0,1.8-0.51,3.61-0.9,3.71s-0.74-0.25-1.09-0.61
		c-0.29-0.35-0.8-1.15-1.09-1.7c-0.25-0.45-0.39-1.05-0.39-1.45c0-0.2,0.1-0.41,0.16-0.61c0.06-0.06,0.16-0.41,0.29-0.86
		c0.64-1.95,0.45-4.51,0.45-6.72c0-0.64-0.06-1.31-0.1-2.01l-0.29,0.31c-1.74,1.8-2.07,1.78-3.26,2.29c-1.54,0.7-3.71,1.15-4,0.96
		c-0.39-0.25,0.72-0.88,2.03-1.91l0.06-0.04c2.46-1.89,3.01-2.81,5.06-5.21l0.14-0.18c1.93-2.64,2.13-4.02,2.13-4.02
		c0.1-0.35,0.35-0.96,0.7-1.15C212.37,80.16,212.72,80.29,212.72,80.39L212.72,80.39z M212.82,72.29l0.08,0.02
		c0.7,0.18,1.82,0.64,2.87,2.25l0.02,0.06c0.02,0.1,0.06,0.29,0.04,0.41v0.02c-0.06,0.2,0,0.8-0.9,1.45
		c-0.86,0.61-1.54,1.31-2.21,1.89l-0.41,0.39c-2.32,2.17-3.65,3.22-4.55,3.65l-0.04,0.02c-1.35,0.64-3.46,1.21-3.65,0.9
		c-0.2-0.29,1.5-1.6,2.25-2.25l0.37-0.37c0.96-0.98,2.83-2.93,4.18-4.82l0.25-0.41c0.59-0.96,0.7-1.25,0.64-1.6
		c-0.1-0.61,0.06-1.31,0.25-1.45C212.15,72.29,212.47,72.19,212.82,72.29L212.82,72.29z M229.83,75.94l0.21,0.18
		c0.39,0.33,1.02,0.9,0.94,1.27c-0.06,0.25-0.35,0.41-0.35,0.41c-0.55,0.45-7.81,2.25-9.26,2.56c-2.15,0.51-3.2-0.2-3.65-0.51
		l-0.08-0.06c-0.37-0.29-0.72-0.62-0.66-1.04c0-0.41,0.9-0.51,1.86-0.7l0.29-0.08c2.11-0.55,4.96-1.45,5.84-1.8l0.08-0.04h0.06
		l0.18-0.08c0.8-0.35,1.25-0.49,1.58-0.59l0.06-0.02C227.33,75.37,228.74,75.18,229.83,75.94L229.83,75.94z M153.78,93.48l0.16,0.06
		c2.75,1.05,4.2,2.46,4.1,3.01c-0.1,0.55-0.74,0.96-1.19,1.5l-0.1,0.12c-0.35,0.39-0.37,0.55-1.29,1.87l0.12,0.18
		c0.35,0.59,0.63,1.15,0.55,1.43l-0.02,0.06c-0.12,0.41-0.53,0.57-2.95,0.7l-0.23,0.02c-1.41,0.1-4.92,0.25-7.42,0.49
		c-0.35,0.61-0.39,0.96-0.61,1.15c-0.2,0.2-0.37,0.33-0.61,0.31h-0.04l-0.29-0.16c-0.45-0.41-0.8-1.05-1.05-2.21l-0.29-1.19
		c-0.62-2.52-0.88-3.4-1.02-3.81l-0.1-0.25l-0.25-0.55c-0.1-0.23-0.39-0.59-0.04-0.96l0.04-0.04h0.06c0.2-0.2,0.74-0.25,2.11-0.06
		l0.12,0.02c0.41,0.04,0.59,0.08,0.68,0.08l0.2-0.02c3.12-0.18,8.07-1.25,8.07-1.25l0.41-0.16c0.49-0.18,0.74-0.29,0.9-0.33v-0.01
		H153.78z M136.39,74.04c1.95,0.51,3.36,1.45,3.75,3.05c0.04,0.14,0.06,0.25,0.06,0.29v0.06c-0.04,0.25-0.12,0.33-0.59,1
		c-0.55,0.74-1.05,1.5-1.6,2.25l-0.33,0.51c-0.31,0.47-0.68,1.05-1.19,1.74l-0.08,0.1c0,0-0.06,0.06-0.06,0.1
		c0.82,0.88,1.23,1.66,1.25,2.38v0.12l-0.06,0.55v0.14c-0.06,0.41-0.14,2.73-0.27,12.52l-0.02,0.96v0.06
		c-0.1,1.76-0.45,2.48-0.74,2.97l-0.06,0.1c-0.08,0.12-0.53,0.78-0.84,0.68c-0.45-0.1-1.72-1.7-1.89-3.75v-0.16l0.1-0.45
		c0.51-1.95,0.86-4.1,0.96-6l0.02-0.27c0.04-0.47,0.08-0.98,0.08-1.54v-0.72c0-0.61,0-1.25-0.06-1.86c0-1.19-0.1-2.25-0.2-3.14
		l-0.22,0.23c-1.89,2.29-3.34,3.57-4.69,4.49c-1.86,1.19-3.2,1.41-3.3,1.19c-0.2-0.2,0.21-0.49,0.53-0.78l0.41-0.39
		c0.2-0.2,0.43-0.43,0.86-0.92l0.31-0.37c1.89-2.15,3.81-5.06,5-7.11c1.35-2.25,2.34-5.35,2.4-5.8c0.1-0.39,0.06-0.8,0.06-0.8
		l-0.02-0.2c-0.04-0.47-0.08-0.66-0.08-0.8C135.85,73.95,136.39,74.04,136.39,74.04L136.39,74.04z M146.49,97.21l-0.49,0.1
		c-0.2,0.04-0.55,0.1-0.84,0.12l0.16,1.11c0.12,0.78,0.23,1.72,0.29,2.19l0.21-0.02c2.3-0.29,5.62-0.53,6.6-0.68
		c0.39-0.86,0.45-2.05,0.7-3.36h-0.08C152.43,96.62,149.71,96.66,146.49,97.21L146.49,97.21z M155.08,89.85l0.08,0.08l0.16,0.18
		c0.27,0.31,0.55,0.7,0.55,1.07c0,0.43-0.35,0.45-0.86,0.53l-0.1,0.02l-0.45,0.1c-1.43,0.33-6.13,0.72-9,1.02l-0.41,0.04h-0.06
		c-0.92,0.04-1.33-0.04-1.93-0.41L143,92.44l-0.1-0.1c-0.18-0.18-0.41-0.37-0.53-0.59l-0.02-0.06c-0.06-0.1-0.1-0.29-0.1-0.35
		c0.06-0.51,0.7-0.41,1.66-0.55h0.04c0.16-0.02,0.66-0.1,2.36-0.55l0.29-0.08c3.14-0.74,6.17-0.98,6.31-0.98
		C154.15,88.97,154.69,89.44,155.08,89.85L155.08,89.85z M153.07,84.65c1.05,0,1.76,0.51,2.25,1.05c0.39,0.45,0.74,1.09,0.51,1.35
		c-0.29,0.29-0.96,0.25-1.62,0.39l-0.1,0.02l-1.15,0.16l-0.29,0.04c-3.24,0.47-7.71,0.8-7.71,0.8c-1.6,0.06-2.4-0.74-2.4-0.74
		c-0.39-0.41-0.55-0.9-0.45-1.05c0.2-0.29,0.96-0.41,1.31-0.45h0.12c0.96-0.06,2.91-0.31,4.53-0.74l0.18-0.04
		C149.89,85.04,152.39,84.71,153.07,84.65z M159.71,80.61c0.39,0.41,0.86,1.05,0.61,1.54c-0.33,0.62-1.02,0.57-1.52,0.55h-0.16
		c-0.55-0.02-1.72-0.16-1.72-0.16h-0.35c-4.96-0.12-6.93,0.18-9.98,0.82l-1.37,0.29c0,0-1.35,0.16-1.95,0.35
		c-0.57,0.14-1.02,0.33-1.8,0.43l-0.12,0.02h-0.2c-1.15-0.29-2.6-1.6-2.6-1.6c-0.51-0.51-0.16-0.74,0.06-0.96
		c0.16-0.16,0.7-0.2,1.41-0.25l0.57-0.06c5.82-0.59,11.54-1.62,12.95-1.91l1.05-0.23c0.31-0.06,0.51-0.1,1-0.18l0.25-0.04
		C157.47,79.01,159.17,80.04,159.71,80.61L159.71,80.61z M147.99,74.04c1.09,0.1,1.89,0.35,2.34,0.74c0.72,0.59,1.13,1.31,1.19,2.11
		v0.14c0,1.43-0.72,1.88-1.17,1.99h-0.37c-1.97-1.02-3.2-2.11-4.65-3.87l-0.21-0.25c-0.06-0.08-0.21-0.35,0.31-0.53l0.18-0.04
		C146.31,74.18,146.98,74.08,147.99,74.04L147.99,74.04z M103.7,109.53c0.49,0,1.04,0.1,1.54,0.25c0.25,0.06,0.74,0.25,0.8,0.25
		c0.1,0,0.16-0.06,0.25-0.1c0.1-0.06,0.2-0.16,0.25-0.29v-0.06h0.55v0.1l0.1,2.75v0.1h-0.59v-0.06c-0.2-0.7-0.55-1.25-1-1.6
		c-0.39-0.35-0.94-0.55-1.58-0.55c-0.9,0-1.64,0.35-2.19,1.05c-0.55,0.7-0.84,1.64-0.84,2.85c0,1.15,0.25,2.05,0.84,2.75
		s1.35,1.05,2.29,1.05c0.55,0,1.04-0.16,1.48-0.39c0.45-0.29,0.9-0.7,1.29-1.31l0.06-0.06l0.06,0.06l0.55,0.29l0.06,0.06l-0.06,0.06
		c-0.39,0.7-0.94,1.31-1.54,1.64c-0.64,0.35-1.35,0.55-2.19,0.55c-0.59,0-1.13-0.06-1.64-0.25c-0.49-0.16-0.94-0.45-1.35-0.8
		c-0.55-0.45-0.94-1-1.19-1.54c-0.25-0.61-0.39-1.25-0.39-1.95c0-0.55,0.06-1.09,0.25-1.64c0.2-0.51,0.45-1,0.8-1.45
		c0.45-0.55,0.94-1,1.54-1.31C102.41,109.69,103.05,109.53,103.7,109.53L103.7,109.53z M127.17,109.75l0.06,0.06l5.04,6.35v-4.75
		c0-0.35-0.1-0.61-0.25-0.74c-0.16-0.16-0.39-0.25-0.78-0.25h-0.1v-0.64h3.16v0.61h-0.1c-0.39,0-0.64,0.1-0.78,0.25
		c-0.16,0.2-0.25,0.39-0.25,0.74v7.6h-0.64l-0.06-0.06l-5.76-7.25v5.55c0,0.29,0.1,0.55,0.25,0.7c0.16,0.16,0.39,0.2,0.74,0.2h0.2
		v0.64h-3.2v-0.64h0.16c0.35,0,0.59-0.06,0.74-0.2c0.16-0.1,0.25-0.35,0.25-0.7v-6.35c-0.1-0.16-0.25-0.25-0.39-0.29
		c-0.16-0.1-0.35-0.16-0.59-0.16h-0.1v-0.64h2.4C127.17,109.78,127.17,109.75,127.17,109.75z M112.51,109.75v0.64h-0.1
		c-0.41,0-0.7,0.06-0.86,0.2c-0.16,0.1-0.25,0.35-0.25,0.64v2.34h4.34v-2.34c0-0.29-0.1-0.51-0.25-0.64c-0.16-0.1-0.45-0.2-0.86-0.2
		h-0.1v-0.64h3.83v0.64h-0.1c-0.41,0-0.66,0.06-0.8,0.2c-0.1,0.1-0.2,0.35-0.2,0.64v5.98c0,0.29,0.06,0.51,0.2,0.64
		c0.16,0.1,0.41,0.2,0.8,0.2h0.1v0.64h-3.83v-0.64h0.1c0.41,0,0.7-0.06,0.86-0.2c0.2-0.16,0.25-0.39,0.25-0.7v-2.73h-4.34v2.73
		c0,0.35,0.1,0.55,0.25,0.7c0.16,0.1,0.45,0.2,0.86,0.2h0.1v0.64h-3.87v-0.64h0.1c0.41,0,0.66-0.06,0.8-0.2
		c0.16-0.1,0.2-0.35,0.2-0.64v-5.98c0-0.29-0.06-0.51-0.2-0.64c-0.16-0.1-0.45-0.2-0.8-0.2h-0.1v-0.64H112.51z M123.37,109.75v0.61
		h-0.1c-0.39,0-0.68,0.06-0.84,0.2c-0.16,0.1-0.25,0.35-0.25,0.64v5.98c0,0.35,0.1,0.61,0.25,0.7c0.16,0.1,0.45,0.2,0.84,0.2h0.1
		v0.64h-3.85v-0.64h0.1c0.39,0,0.68-0.06,0.84-0.2c0.16-0.1,0.25-0.29,0.25-0.64v-5.98c0-0.29-0.1-0.51-0.25-0.64
		c-0.16-0.1-0.45-0.2-0.84-0.2h-0.1v-0.64h3.85V109.75z M140.18,109.75v0.06l3.28,7.25c0.16,0.39,0.35,0.64,0.55,0.8
		c0.2,0.14,0.41,0.2,0.78,0.23h0.18v0.64h-4.08v-0.64h0.1c0.35,0,0.61-0.06,0.74-0.16c0.16-0.1,0.2-0.25,0.2-0.39
		c0-0.1-0.06-0.39-0.16-0.59c-0.06-0.14-0.21-0.47-0.47-1.02l-0.04-0.06h-3.54l-0.45,1.09c-0.06,0.1-0.16,0.39-0.16,0.55
		s0.06,0.25,0.16,0.35s0.31,0.2,0.68,0.23h0.16v0.59h-3.22v-0.64h0.1c0.25,0,0.49-0.1,0.64-0.25c0.14-0.14,0.31-0.37,0.47-0.68
		l0.04-0.06l3.38-7.25v-0.06L140.18,109.75L140.18,109.75z M139.36,111.88l-1.46,2.99h2.77L139.36,111.88z M155.61,109.53
		c0.49,0,1.04,0.1,1.54,0.25c0.25,0.1,0.74,0.25,0.8,0.25c0.1,0,0.16-0.06,0.25-0.1c0.1-0.1,0.2-0.16,0.25-0.29v-0.06H159v0.1
		l0.1,2.75v0.1h-0.59v-0.06c-0.2-0.7-0.55-1.25-1-1.6c-0.39-0.35-0.94-0.55-1.58-0.55c-0.9,0-1.64,0.35-2.19,1.05
		c-0.55,0.7-0.84,1.64-0.84,2.85c0,1.15,0.29,2.05,0.9,2.75s1.35,1.05,2.29,1.05c0.55,0,1.04-0.16,1.48-0.39
		c0.45-0.29,0.9-0.7,1.29-1.31l0.06-0.06h0.1l0.45,0.35l0.06,0.06l-0.06,0.06c-0.39,0.74-0.94,1.31-1.54,1.64
		c-0.59,0.35-1.35,0.55-2.19,0.55c-0.59,0-1.13-0.06-1.64-0.25c-0.49-0.16-0.94-0.45-1.35-0.8c-0.55-0.45-0.94-0.96-1.19-1.54
		c-0.25-0.61-0.39-1.25-0.39-1.95c0-0.55,0.06-1.09,0.25-1.64c0.2-0.51,0.45-1,0.8-1.45c0.45-0.55,0.94-1,1.54-1.31
		C154.32,109.69,154.97,109.53,155.61,109.53L155.61,109.53z M184.46,109.53c0.49,0,1.04,0.1,1.54,0.25c0.2,0.06,0.74,0.25,0.8,0.25
		c0.1,0,0.16-0.06,0.25-0.1c0.1-0.06,0.16-0.16,0.25-0.29v-0.06h0.49v0.1l0.1,2.75v0.1h-0.59v-0.06c-0.2-0.7-0.55-1.25-1-1.6
		c-0.39-0.35-0.94-0.55-1.58-0.55c-0.9,0-1.64,0.35-2.19,1.05c-0.55,0.7-0.84,1.64-0.84,2.85c0,1.15,0.29,2.05,0.9,2.75
		s1.35,1.05,2.29,1.05c0.55,0,1.04-0.16,1.48-0.39c0.45-0.29,0.9-0.7,1.29-1.31l0.06-0.06l0.64,0.39l-0.06,0.06
		c-0.39,0.7-0.94,1.31-1.54,1.64c-0.59,0.35-1.35,0.55-2.19,0.55c-0.59,0-1.13-0.06-1.64-0.25c-0.49-0.16-1-0.45-1.39-0.8
		c-0.49-0.45-0.9-0.96-1.13-1.54s-0.39-1.25-0.39-1.95c0-0.55,0.06-1.09,0.25-1.64c0.2-0.51,0.45-1,0.8-1.45
		c0.45-0.55,0.94-1,1.54-1.31C183.17,109.69,183.81,109.53,184.46,109.53L184.46,109.53z M164.62,109.75v0.61h-0.1
		c-0.39,0-0.68,0.06-0.84,0.2c-0.16,0.1-0.25,0.35-0.25,0.64v5.98c0,0.35,0.1,0.55,0.25,0.7c0.16,0.1,0.45,0.2,0.84,0.2h0.1v0.64
		h-3.85v-0.64h0.1c0.39,0,0.68-0.06,0.84-0.2c0.16-0.1,0.25-0.35,0.25-0.64v-5.98c0-0.29-0.1-0.51-0.25-0.64
		c-0.16-0.1-0.45-0.2-0.84-0.2h-0.1v-0.64h3.85V109.75z M173.54,109.75v0.1l0.06,2.13v0.1h-0.61v-0.06
		c-0.1-0.55-0.29-0.94-0.55-1.13c-0.25-0.2-0.7-0.29-1.31-0.29h-0.82v6.66c0,0.29,0.1,0.49,0.25,0.64c0.16,0.1,0.45,0.2,0.86,0.2
		h0.1v0.64h-3.91v-0.64h0.1c0.41,0,0.7-0.06,0.86-0.2c0.16-0.16,0.25-0.39,0.25-0.68v-6.6h-0.86c-0.61,0-1.05,0.1-1.31,0.29
		s-0.45,0.59-0.55,1.13v0.06h-0.64V112l0.1-2.13v-0.1h7.97L173.54,109.75z M178.5,109.75v0.61h-0.1c-0.39,0-0.68,0.06-0.82,0.2
		c-0.2,0.1-0.23,0.35-0.23,0.64v5.98c0,0.35,0.04,0.55,0.2,0.7c0.14,0.1,0.43,0.2,0.82,0.2h0.1v0.64h-3.79v-0.64h0.1
		c0.39,0,0.68-0.06,0.82-0.2c0.14-0.1,0.23-0.35,0.23-0.64v-5.98c0-0.29-0.1-0.51-0.23-0.64c-0.14-0.1-0.43-0.2-0.82-0.2h-0.1v-0.64
		h3.83L178.5,109.75z M216.51,109.75v0.06l5.08,6.35v-4.75c0-0.35-0.1-0.61-0.25-0.74c-0.16-0.16-0.39-0.25-0.8-0.25h-0.1v-0.64
		h3.14v0.61h-0.1c-0.35,0-0.61,0.1-0.74,0.25c-0.16,0.16-0.25,0.39-0.25,0.74v7.6h-0.64v-0.06l-5.82-7.25v5.55
		c0,0.29,0.1,0.55,0.25,0.7c0.16,0.16,0.39,0.2,0.74,0.2h0.2v0.64h-3.24v-0.64h0.16c0.35,0,0.61-0.06,0.74-0.2
		c0.16-0.1,0.25-0.35,0.25-0.7v-6.35c-0.1-0.16-0.25-0.25-0.39-0.29c-0.16-0.1-0.35-0.16-0.61-0.16h-0.1v-0.64h2.48L216.51,109.75
		L216.51,109.75z M199.05,109.75c1.05,0,1.8,0.16,2.34,0.55c0.55,0.35,0.86,0.9,0.86,1.6c0,0.55-0.2,1-0.55,1.35
		c-0.25,0.29-0.64,0.55-1.19,0.7c0.64,0.16,1.15,0.35,1.5,0.7c0.45,0.41,0.64,0.9,0.64,1.56c0,0.7-0.29,1.35-0.96,1.8
		c-0.59,0.43-1.35,0.68-2.25,0.7h-4.73v-0.64h0.1c0.39,0,0.64-0.06,0.8-0.2c0.1-0.1,0.2-0.31,0.2-0.61v-6.07
		c0-0.29-0.06-0.51-0.2-0.64c-0.14-0.1-0.41-0.2-0.74-0.2h-0.16v-0.61L199.05,109.75L199.05,109.75z M208.58,109.75l0.06,0.06
		l3.3,7.25c0.16,0.39,0.35,0.64,0.55,0.8c0.18,0.14,0.41,0.2,0.68,0.23l0.06,0.02h0.1v0.64h-4.1v-0.64h0.1
		c0.35,0,0.61-0.06,0.74-0.16c0.16-0.06,0.2-0.2,0.2-0.35c0-0.1-0.06-0.2-0.06-0.29c0-0.14-0.04-0.23-0.08-0.31l-0.02-0.04
		l-0.51-1.09h-3.55l-0.45,1.09c-0.06,0.1-0.1,0.2-0.1,0.29c-0.06,0.06-0.06,0.16-0.06,0.25c0,0.16,0.06,0.25,0.16,0.35
		c0.14,0.1,0.37,0.2,0.72,0.23h0.18v0.59h-3.24v-0.64h0.1c0.25,0,0.51-0.1,0.64-0.25c0.14-0.14,0.33-0.37,0.47-0.68l0.04-0.06
		l3.4-7.25v-0.06h0.68L208.58,109.75z M228.6,109.75v0.64h-0.1c-0.39,0-0.64,0.06-0.8,0.2c-0.16,0.1-0.2,0.35-0.2,0.64v3.07
		l3.09-2.77c0.2-0.2,0.29-0.35,0.39-0.45c0.06-0.1,0.1-0.2,0.1-0.25c0-0.16-0.06-0.25-0.16-0.29c-0.1-0.06-0.29-0.1-0.8-0.16h-0.1
		v-0.64h3.93v0.64h-0.06c-0.29,0.06-0.55,0.1-0.8,0.25c-0.29,0.16-0.55,0.29-0.8,0.55l-2.34,2.09l2.34,3.57
		c0.35,0.49,0.61,0.84,0.84,1c0.2,0.16,0.49,0.25,0.8,0.25h0.1v0.64h-4.08v-0.64h0.1c0.25,0,0.49-0.06,0.64-0.1
		c0.18-0.08,0.2-0.14,0.2-0.18v-0.02c0-0.06,0-0.16-0.06-0.25s-0.1-0.25-0.29-0.49l-1.8-2.73l-1.29,1.19v1.68
		c0,0.29,0.06,0.49,0.2,0.64c0.16,0.1,0.39,0.2,0.8,0.2h0.1v0.64h-3.73v-0.64h0.1c0.39,0,0.64-0.06,0.8-0.2
		c0.16-0.1,0.2-0.35,0.2-0.64v-5.96c0-0.29-0.06-0.49-0.2-0.64c-0.16-0.1-0.45-0.2-0.8-0.2h-0.1v-0.64L228.6,109.75L228.6,109.75z
		 M199.03,114.45h-1.5v2.56c0,0.45,0.1,0.64,0.2,0.7c0.16,0.1,0.45,0.16,0.96,0.16c0.8,0,1.46-0.16,1.87-0.45
		c0.41-0.29,0.61-0.7,0.61-1.25c0-0.51-0.2-0.96-0.55-1.25S199.69,114.45,199.03,114.45L199.03,114.45z M207.96,111.88l-1.46,2.99
		h2.77L207.96,111.88z M198.76,110.61h-1.23v2.99h1.09c0.68,0,1.23-0.14,1.58-0.39c0.35-0.29,0.55-0.68,0.55-1.15
		s-0.16-0.82-0.49-1.05C199.89,110.74,199.38,110.61,198.76,110.61L198.76,110.61z"/>
</g>
</svg>
