<?xml version="1.0" encoding="utf-8"?>
<!-- Generator: Adobe Illustrator 26.3.1, SVG Export Plug-In . SVG Version: 6.00 Build 0)  -->
<svg version="1.1" id="图层_1" xmlns="http://www.w3.org/2000/svg" xmlns:xlink="http://www.w3.org/1999/xlink" x="0px" y="0px"
	 viewBox="0 0 272 191" style="enable-background:new 0 0 272 191;" xml:space="preserve">
<style type="text/css">
	.st0{display:none;fill:none;}
	.st1{fill-rule:evenodd;clip-rule:evenodd;fill:#231815;}
	.st2{fill:#8E8E8E;}
	.st3{fill-rule:evenodd;clip-rule:evenodd;fill:#8E8E8E;}
</style>
<polyline class="st0" points="31.56,74.76 31.56,126.19 240.44,126.19 240.44,74.76 "/>
<g>
	<g>
		<path class="st1" d="M92.42,92.44c0.12-0.02,0.25-0.01,0.38,0H92.42"/>
	</g>
	<path class="st2" d="M41.67,87.61l-7.85,19.21H65l-7.83-19.29l-7.76,19.05L41.67,87.61 M72.2,102.21h6.24
		c-0.12,0.46-0.25,0.92-0.38,1.39h-5.28L72.2,102.21z M71.15,99.6h7.8c-0.07,0.46-0.15,0.93-0.25,1.4H71.7L71.15,99.6z M70.11,96.98
		h9.12c-0.02,0.47-0.07,0.93-0.11,1.4h-8.45L70.11,96.98z M69.06,94.36h10.17c0.01,0.37,0.02,0.75,0.02,1.12v0.26h-9.65L69.06,94.36
		z M68.01,91.76h11c0.07,0.46,0.11,0.92,0.15,1.39H68.57L68.01,91.76z M66.96,89.14h11.56c0.11,0.46,0.21,0.92,0.3,1.39H67.52
		L66.96,89.14z M24.33,95.49C24.33,80.31,36.63,68,51.8,68c12.54,0,23.12,8.41,26.41,19.91H66.48l-6.84-17.08l-7.68,19.11L44.13,71
		l-14.52,35.82l5.93,8.34h32.77l5.67-8.5l-0.73-1.81h4.39C73.83,115.43,63.71,123,51.82,123C36.62,122.99,24.33,110.67,24.33,95.49z
		"/>
	<path class="st3" d="M117.16,83.64c-0.55,1.07-1.39,2-1.56,3.22c-0.19,0.23-0.37,0.49-0.56,0.76v-0.01
		c-0.44,0.62-0.92,1.19-1.69,1.19c-0.36-0.18-0.87-0.57-0.9-1.02c0.01-0.05,0.03-0.12,0.05-0.18l0,0c0.32-0.9,1.19-1.58,1.4-2.55
		c0.11-0.74-0.07-1.61,0.25-2.27c0.04-0.08,0.09-0.16,0.14-0.24c0.69-0.33,1.74,0.03,2.45-0.31c0.22-0.08,0.3,0.13,0.46,0.22
		c0.07,0.1,0.11,0.21,0.13,0.33c0.02,0.1,0.02,0.21,0.01,0.33C117.24,83.28,117.17,83.45,117.16,83.64 M116.55,98.22l-0.09,3.48
		c-0.97,0.52-2.01-0.11-2.97-0.04l-2.35,0.14c-0.37-1.04-0.35-2.38-0.2-3.52l0.05-0.07l0.38-0.4l4.72,0.04
		c0.13,0.12,0.3,0.16,0.45,0.22L116.55,98.22z M109.78,92.54c0-0.03,0-0.07,0-0.11c0.08-1.23,0.9-2.18,1.66-3.06
		c0.35-0.16,0.38,0.27,0.51,0.46c0.2,0.57,0.52,1.18,1.15,1.33c0.57,0.18,1.21,0.37,1.35,1.07c-0.01,0.07-0.03,0.13-0.07,0.2
		c-0.04,0.08-0.1,0.15-0.18,0.22c-0.97,0.24-2.08,0.18-3.11,0.26C110.66,92.77,110.04,92.99,109.78,92.54z M109.32,84.05
		c-0.6,1.21-1.37,2.36-2.11,3.54c0,0.01,0,0.02,0,0.03c0,0.62-0.27,1.11-0.59,1.59c-0.3,0.27-0.58-0.09-0.91-0.05
		c-0.24-0.67-0.86-1.1-1.43-1.54c-0.14-0.11-0.3-0.23-0.43-0.35c-0.05-0.42,0.24-0.65,0.56-0.82c0.78,0.12,1.33-0.08,1.76-0.77
		c0.49-0.88,0.56-1.94,0.89-2.89l0,0c0.08-0.24,0.18-0.47,0.31-0.69c0.56,0.08,1.1,0.29,1.66,0.2c0.08,0.15,0.15,0.32,0.23,0.49
		C109.41,83.2,109.52,83.62,109.32,84.05z M120.97,76.11c-2.27-0.29-3.87,1.06-6.07,0.92c-0.11-0.1-0.13,0.05-0.25,0
		c-0.36-0.01-0.67-0.16-1-0.25c-2.42-0.41-5.01-0.42-7.38-0.97c-0.22,0.14,0.02,0.47-0.2,0.6c-0.02,0.77,0.27,1.41,0.45,2.1
		c0.08,0.65,0.48,1.18,0.41,1.9c-0.18,0.33-0.43,0.58-0.75,0.77c-0.64,0.01-1.54,0.26-1.91-0.42c-0.22-2.2,0.23-4.5,0-6.71
		c-0.12-0.27-0.43-0.1-0.65-0.15c-1.17-0.16-2.29-0.37-3.26-0.97c-0.31-0.14-0.57-0.15-0.91-0.05c-0.8,2.57,0.65,4.72,0.66,7.21
		c-0.18,0.41-0.32,0.76-0.76,0.97c-1.26,0.33-2.71,0.21-4.06,0.31c-0.49,0.13-0.84-0.26-1.31-0.05c-0.03,0.53,0.04,1,0.19,1.46l0,0
		c0.24,0.79,0.64,1.52,0.87,2.32c0.13,0.51,0.18,1.09,0.15,1.59c0.21,0.43,0.7,0.37,1.06,0.56c0.25,0.1,0.64,0.03,0.86,0.05
		c0.7,0.27,1.07-0.74,1.8-0.36c0.25,0.18,0.44,0.4,0.57,0.65c0.18,0.31,0.27,0.67,0.32,1.03c0.29,1.24-0.75,2.09-1.61,2.66
		c-1.25,1.22-3.44,0.15-4.8,1.12c-0.01,0-0.01,0.01-0.02,0.01c-0.18,0.03-0.37,0.01-0.57-0.01h-0.38c-0.18,0.02-0.32,0.09-0.4,0.26
		c-0.14,2.13,1.02,3.74,1.74,5.52l0,0c0.21,0.51,0.37,1.03,0.46,1.59h0.11c0.21-0.35,0.48-0.67,0.8-0.98
		c0.3-0.25,0.63-0.44,0.96-0.62l0,0c0.03-0.01,0.05-0.03,0.09-0.04c0.92,0,1.5-0.96,2.17-1.48c0.09,0.12,0.3-0.04,0.35,0.15
		c0.29,0.41,0.42,0.88,0.48,1.39l0,0c0.04,0.34,0.05,0.7,0.07,1.07c0.08,1.11,0.08,2.32,0,3.42c-0.12,0.02-0.18,0.25-0.34,0.16
		c-0.18,0.18-0.47,0.07-0.7,0.1c-0.03,0.02-0.05,0.04-0.08,0.07l0,0c-0.79,0.56-1.57,1.22-1.92,2.14c0.08,0.56,0.64,0.82,0.97,1.22
		c0.78,0.95,2.23,0.56,3.35,0.56c0.88-0.09,1.87-0.03,2.71-0.05c0.27-0.22,0.29-0.54,0.41-0.82c0.12-0.3,0.18-0.67,0.14-0.98
		c0.12-0.15,0-0.36-0.05-0.52c-0.01-0.54,0.03-1.06,0.08-1.57v-0.01c0.05-0.77,0.11-1.53,0.03-2.3c-0.16-0.44-0.1-0.99-0.4-1.37
		c0.02-0.38,0.02-0.76,0.01-1.13l0,0c-0.03-1.19-0.18-2.35,0.08-3.48c0.08-0.21,0.07-0.46,0.15-0.67c0.13-0.26,0.4-0.66,0.8-0.51
		c0.81,0.57,1.66,1.21,1.8,2.24c-0.18,0.75-0.07,1.61-0.11,2.41c-0.01,0.12-0.02,0.24-0.03,0.36l0.1,7.76l0.21,0.21
		c0.34,0.27,0.34,1.02,0.9,0.87c0.14-0.16,0.4-0.09,0.55-0.25l2.56-0.14c0.12-0.02,0.29,0.02,0.34,0c1.3,0.19,3.1-0.23,4.37,0.35
		c1.67-0.12,3.66-0.69,5.21,0.11c0.3,0.26,0.64-0.04,0.96-0.05c0.66-0.12,0.2-0.98,0.41-1.43c0.36-0.26,0.12-0.76,0.2-1.13
		c-0.14-0.59-0.24-1.21-0.32-1.84c-0.19-1.56-0.21-3.21-0.18-4.82c0.01-0.57,0.02-1.13,0.04-1.68c-0.34-1.43,0.59-2.46,0.54-3.84
		c-0.05-0.13-0.14-0.22-0.26-0.26v-0.01c-0.21-0.11-0.48-0.11-0.75-0.09c-0.05,0.03-0.11,0.07-0.16,0.1
		c-0.85,0.45-2.03,0.33-2.99,0.21c-0.1-0.05-0.18-0.13-0.23-0.21c-0.19-0.24-0.18-0.57-0.16-0.91c0.15-0.49,0.78-0.25,1.15-0.46
		c0.52-0.74,1.14-1.47,1.8-2.1c0.13-0.46,0.31-0.9,0.51-1.34l0,0c0.16-0.38,0.34-0.77,0.49-1.17c0.24-1.25,0.6-2.45,0.99-3.65
		c0.37-1.14,0.76-2.29,1.07-3.46c0.03-0.36,0.1-0.7,0.25-1.02c0.02-0.42,0.35-0.68,0.3-1.13C123.75,75.75,122.05,76.33,120.97,76.11
		z"/>
	<path class="st3" d="M155.83,91.21c0.11,0.51-0.14,0.87-0.38,1.23c-0.1,0.15-0.2,0.3-0.25,0.47c-0.27,0.24-0.59,0.53-0.96,0.41
		c-0.31-0.46-0.96-0.45-1.18-0.87c-0.07-0.11-0.09-0.26-0.08-0.46c0.01-0.36-0.05-0.82,0.25-1.02c0.42-0.03,0.84-0.37,1.25-0.1
		C154.89,91.1,155.45,90.95,155.83,91.21 M155.52,98.22c-0.05,0.64-0.1,1.28-0.03,1.94c-0.2,0.22-0.25,0.58-0.14,0.88
		c-0.19,0.63,0.08,1.42-0.08,2l0,0c-0.07,0.26-0.23,0.48-0.57,0.62c-0.3,0.02-0.58-0.02-0.71-0.26l0.01-0.35l0.05-2.71
		c0.12-0.16,0.16-0.35,0.14-0.57c-0.02-0.51-0.04-1.02-0.05-1.54c-0.01-0.82,0-1.64,0.1-2.4c0.12-0.18,0.3-0.41,0.51-0.46
		c0.3-0.07,0.48,0.1,0.7,0.21C155.67,96.44,155.59,97.32,155.52,98.22z M151.48,95.1c-0.2,0.36-0.67,0.18-0.95,0.16l-1.56-0.05
		c-0.25-0.44,0.41-0.75,0.45-1.19c-0.12-0.52-0.2-1.06-0.31-1.58c-0.05-0.23-0.11-0.45-0.19-0.67c-0.07-0.23,0.1-0.37,0.15-0.56
		c0.62,0,1.54-0.48,1.96,0.21c-0.01,0.35-0.01,0.68,0,1.01c0.02,0.62,0.07,1.23,0.09,1.85C151.24,94.56,151.74,94.72,151.48,95.1z
		 M150.62,101.09c-0.2,0.16-0.37,0.45-0.69,0.41c-0.31-0.07-0.57-0.24-0.8-0.46c-0.26-0.07-0.57-0.05-0.79-0.2
		c0.1-0.79,0.02-1.7,0.04-2.46c0.27-0.18,0.7-0.11,1-0.04c0.16-0.08,0.45-0.03,0.68-0.11c0.07-0.02,0.13-0.05,0.18-0.1
		c0.26-0.05,0.48,0.02,0.68,0.1v0.01c0.12,0.03,0.23,0.09,0.36,0.11C151.13,99.17,151.9,100.71,150.62,101.09z M148.11,84.82
		l0.8-0.87c0.51-0.03,1-0.38,1.51-0.11c0.22,0.11,0.53,0,0.75,0.11c0.16,0.21,0.11,0.57,0.05,0.82c-0.53,0.62,0.09,1.98-1.11,2.05
		c-0.46-0.18-1.15,0-1.34-0.62C148.44,85.77,147.95,85.43,148.11,84.82z M145.16,93.61c-0.53,0.36-1.13,0.56-1.8,0.62
		c-0.2-0.1-0.31-0.32-0.4-0.51c-0.14-0.56,0.26-0.88,0.45-1.29c0.1-0.2,0.14-0.43,0.04-0.71c0.19-0.1,0.04-0.32,0.25-0.41
		c0.34,0.04,0.73-0.05,1.01-0.31c0.3-0.07,0.47,0.1,0.69,0.2c0.35,0.31,0.14,0.85,0.29,1.23c0.01,0.02,0.01,0.03,0.02,0.05
		C145.61,92.94,145.54,93.37,145.16,93.61z M163.72,78.32c-0.82-0.32-1.9-0.48-2.75-0.25c-1.06,0.59-2.4,0.45-3.63,0.6
		c-1.39-0.13-2.77,0.51-4.16,0.05c-0.59-0.3-1.91,0.48-1.86-0.66c0.15-1.06,1.28-1.69,1.76-2.62c0.05-0.41,0.51-0.65,0.51-1.08
		c-0.12-0.45-0.79-0.23-1.11-0.52c-0.81-0.6-1.81-0.75-2.9-0.66c-0.34,0.03-0.6,0.18-0.9,0.25c-1.13,0.22-2.33-0.54-3.11,0.46
		c-0.18,0.47,0.05,0.9,0.25,1.28c0.34,0.36,0.22,0.95,0.25,1.43c0.25,0.27,0.54,0.53,0.75,0.82c0.31,0.52,0.89,0.76,1.14,1.28
		c-0.09,0.31-0.38,0.24-0.59,0.36c-1.2,0.14-2.44,0.12-3.66,0.2c-0.08-0.07-0.23-0.09-0.3,0c-1.89-0.14-3.98-0.12-5.87-0.41
		c-0.96,0.19-1.51-0.68-2.31-0.87c-0.07,0.11-0.13,0.21-0.1,0.36c-0.36,1.4-0.48,3.29,0.54,4.43l0,0c0.02,0.02,0.04,0.04,0.07,0.07
		c0.12,0.43-0.05,0.98,0.14,1.39c0.46,0.34,0.47,1.19,1.15,1.12c1.57-0.45,3.37-0.36,5.03-0.66c0.48,0.13,0.89-0.22,1.35-0.31
		c0.13,0.08,0.31,0.02,0.41,0.2c0.01,0.67,0.84,1,0.7,1.74c-0.2,0.43-0.74,0.24-1.11,0.36c-1.28-0.2-2.57-0.47-3.9-0.36
		c-0.47,0.16-0.34,0.69-0.51,1.02c-0.02,0.08-0.04,0.15-0.07,0.24c-0.2,0.89-0.01,1.76,0.07,2.67c0.03,0.71,0.05,1.43,0.07,2.14
		c0.04,1.92,0.03,3.86,0.02,5.78c0,1.01-0.01,2.01,0,3.01c0.08,0.63-0.08,1.22-0.04,1.8l0,0c0.01,0.19,0.03,0.37,0.1,0.55v0.1
		c0.12,0.74-0.05,1.59,0.15,2.31c0.82,0.25,1.62,0.57,2.52,0.66c0.47,0.01,0.68-0.68,1.25-0.46c0.54-0.29,0.91-0.92,0.9-1.59
		c-0.02-0.52-0.03-1.04-0.04-1.57c-0.03-1.62-0.03-3.24-0.15-4.82c-0.02-0.24-0.03-0.47-0.07-0.71c0.02-0.52,0.15-1.07,0.14-1.54
		c0.54,0.05,1,0.25,1.41,0.6c0.05,0.57-0.07,1.1-0.05,1.64l0,0c0,0.18,0.02,0.34,0.05,0.52c0.35,0.59-0.03,1.25-0.04,1.89
		c0.34,0.74,0.11,1.56,0.12,2.41l0,0c0,0.1,0.01,0.2,0.01,0.3c0.16,0.33,0.51,0.41,0.76,0.62c1.73,0.04,3.54-0.12,5.18,0.14
		c0.35,0.22,0.34,0.59,0.4,0.91c-0.08,0.65-0.81,0.82-1.14,1.29c0.44-0.02,0.63,0.58,1.14,0.36c0.91,0.48,1.95,0.97,3.01,0.77
		c1.77,0.01,3.56,0.43,5.26,0.14c0.34-0.33,0.16-0.98,0.35-1.42c0.4-0.98,0.44-2.03,0.38-3.12c-0.05-1.2-0.23-2.41-0.2-3.59
		c0.01-0.42,0-0.82-0.02-1.23c-0.08-1.95-0.33-3.87-0.2-5.77c0.02-0.24,0.04-0.48,0.07-0.71c0.22-0.07-0.01-0.33,0.21-0.41
		c0.05-0.88-0.1-1.77-0.25-2.61c-0.08-0.34-0.04-0.73-0.05-1.09l0,0c0-0.21-0.03-0.41-0.1-0.59c-0.8-0.8-1.91-0.82-3.07-0.77
		c-0.42,0.12-0.76,0.41-1.25,0.35c-0.42-0.07-0.51-0.53-0.59-0.87c0.14-0.58,0.27-1.18,0.7-1.64c1.11-0.07,2.14,0.1,3.16,0.25
		c0.1,0.07,0.14-0.13,0.21,0c0.02-0.07,0.1-0.05,0.14-0.05c0.23-0.04,0.49-0.04,0.7-0.15c1-0.54,1.78,0.36,2.82,0.2
		c0.26-0.19,0.31-0.48,0.35-0.77c0.03-0.27,0.1-0.53,0.19-0.78c0.27-0.81,0.71-1.55,0.71-2.49
		C164.05,79.65,164.19,78.84,163.72,78.32z"/>
	<path class="st3" d="M198.29,96.12c-0.25,0.03-0.4,0.36-0.69,0.26c-0.42-0.49-0.8-1.04-1.06-1.64c-0.1-0.15-0.03-0.38-0.05-0.56
		c0.16-0.49,0.67-0.12,0.96-0.31c0.69,0.09,1.17-0.36,1.9-0.21c0.45-0.25,0.93,0.02,1.36,0.15c0.21,0.03,0.38,0.13,0.54,0.31
		c-0.01,0.31-0.25,0.38-0.51,0.46C199.99,95.26,199,95.34,198.29,96.12 M196.69,98.88c-0.31,0.35-0.37,0.96-0.91,1.03
		c-0.14,0.48-0.7,0.36-1.06,0.31c-0.12-0.63-0.12-1.32-0.09-1.99l0,0c0.01-0.27,0.03-0.55,0.05-0.81c0.4-0.37-0.25-1.72,0.75-1.33
		l0.25,0.25c-0.05,0.63,0.44,1.08,0.79,1.5c0.08,0.11,0.14,0.25,0.2,0.4l0,0C196.75,98.43,196.77,98.66,196.69,98.88z M195.48,88.81
		c1.22,0.35,2.56-1.2,3.46,0.15c-0.03,0.48-0.09,1.01-0.51,1.23c-0.96,0.22-1.9,0.43-2.96,0.42c-0.45-0.18-0.38-0.75-0.45-1.19
		C195.13,89.19,195.27,88.99,195.48,88.81z M195.38,83.58c0.53-0.1,1.28,0.04,1.7-0.45c0.69,0.27,1.4-0.36,2,0.14
		c0.1,0.16,0.03,0.38,0.05,0.57c-0.57,0.52-1.04,1.48-1.91,1.19c-0.23-0.15-0.53-0.14-0.79-0.21l-1.36-0.04
		C195.11,84.4,194.98,83.8,195.38,83.58z M191.51,99.81c-0.09,0.24-0.24,0.45-0.25,0.71c-0.66,0.65-0.2,2.47-1.66,2.1
		c-0.32-0.24-0.36-0.68-0.65-0.97c0.09-0.79,1.07-1.18,1.06-2c0.11-0.46,0.11-0.95,0.1-1.43c-0.03-0.68-0.1-1.39,0.05-2.05
		c0.13-0.11,0.13-0.33,0.04-0.46c-0.44-0.44-0.4-1.22-0.25-1.79c0.03-0.25-0.07-0.57,0.11-0.77c0.05-0.24,0.16-0.47,0.21-0.73
		c0.02-0.1,0.03-0.2,0.03-0.3c0.16-0.7,0.11-1.56,0.04-2.31c-0.13-0.29-0.23-0.62-0.55-0.77c-0.73-0.16-1.47-0.31-2.21-0.46
		c-0.15-0.14-0.4-0.12-0.45-0.36c-0.02-0.23,0-0.43,0.08-0.62V87.6c0.02-0.04,0.04-0.09,0.07-0.13c0.48,0.01,0.84-0.44,1.36-0.21
		c0.3,0.02,0.73,0.33,0.95,0c-0.16-0.99,0.63-1.56,0.96-2.35c0.16-0.18,0.58-0.13,0.6,0.15c0.02,0.86,0.09,1.72,0.1,2.55
		c0.01,0.35,0.01,0.69,0,1.03c0.32,1.17,0.25,2.49,0.25,3.78c0,0.82,0.01,1.64,0.15,2.41c0,1.07-0.16,2.25-0.07,3.38
		c0.01,0.15,0.03,0.31,0.07,0.46C191.74,99.11,191.53,99.42,191.51,99.81z M188.41,99.4c-0.27-0.6-0.62,0.33-0.92-0.2
		c-0.38-0.04-0.71-0.29-0.85-0.66c-0.01-0.11-0.01-0.21,0-0.31c0.03-0.2,0.13-0.35,0.3-0.45c0.21-0.05,0.43-0.1,0.6-0.2
		c0.44-0.01,0.9-0.02,1.25,0.2c-0.01,0.19,0.08,0.33,0.2,0.45c0.25,0.24,0.65,0.41,0.52,0.82C189.31,99.48,188.82,99.38,188.41,99.4
		z M188.41,94.38c-0.01,0.12,0.01,0.24-0.11,0.31c-0.46-0.08-1.35,0.23-1.31-0.45c0.1-0.32-0.01-0.77,0.36-0.93
		c0.43-0.35,1.23-0.47,1.56,0.11c-0.02,0.07,0.11,0.15,0,0.2C189.04,93.98,188.51,94.05,188.41,94.38z M186.16,82.79
		c0.02-0.08,0.05-0.15,0.1-0.23c0.32-0.34,0.46-1.18,1.17-0.91c0.3,0.3,0.55,0.43,0.84,0.71l0.16,0.05
		c0.13,0.09,0.14,0.24,0.14,0.38c0,0.1-0.01,0.19-0.01,0.27c-0.47,0.27-0.43,1.09-1.06,1.13c-0.36-0.23-0.76-0.38-1.2-0.46
		C186.03,83.46,186.05,83.12,186.16,82.79z M184.2,87.61c0.01,0.22,0,0.4-0.05,0.63c-0.35-0.07-0.67,0.12-0.96,0.05
		c-0.01-0.27,0.19-0.46,0.31-0.67l0,0c0.07-0.1,0.1-0.21,0.09-0.34c0.19,0.11,0.46-0.02,0.6,0.21
		C184.19,87.52,184.2,87.57,184.2,87.61L184.2,87.61z M206.86,100.06c-0.77,0.37-1.61-0.03-2.41-0.05c-1.26-0.84-3.04-0.54-4.08-1.8
		v0.01c-0.01-0.02-0.02-0.03-0.03-0.05c-0.07-0.35,0.09-0.6,0.36-0.82c0.95,0.01,1.98,0.18,2.96,0.25c0.56-0.14,1.06-0.45,1.51-0.92
		c0.21-0.08,0.43-0.1,0.59-0.31c-0.21-0.15-0.42-0.34-0.45-0.67c-0.26-0.42,0.08-0.81,0.11-1.22c-0.35-0.33-0.01-0.76,0-1.13
		c0.13-0.47-0.13-0.71-0.44-0.92c-0.19-0.13-0.38-0.25-0.53-0.41c-0.13,0-0.34-0.22-0.41,0c-0.02,0.18-0.13,0.3-0.25,0.41
		c-0.16,0.15-0.33,0.3-0.31,0.56c-0.37,0.34-0.73,0.73-1.25,0.67c-0.11-0.16-0.19-0.36-0.1-0.56c-0.03-0.24-0.02-0.46,0.02-0.67l0,0
		c0.12-0.64,0.49-1.17,0.54-1.84c-0.18-0.92-0.05-1.98-0.09-2.98c0-0.11-0.01-0.23-0.02-0.34c-0.02-0.9,0.21-1.8,0.4-2.66
		c0.2-0.56,0.14-1.23,0.3-1.81c0.05-0.21,0.13-0.41,0.26-0.58c0.26-1.41,0.14-3.04,0.11-4.51c-0.13-0.29-0.43-0.42-0.76-0.35
		c-0.65,0.1-1.32,0.15-1.8,0.71c-0.74-0.14-1.1,0.66-1.86,0.51c-0.82-0.4-1.94-0.1-2.9-0.21c-0.76-0.15-1.41,0.08-2.27,0
		c-0.86-0.87-1.8-1.57-2.87-2c-0.3,0.44-0.27,1.1-0.2,1.64c-0.47,0.8,0.35,1.81-0.49,2.41c-0.32,0.09-0.62,0.09-0.9-0.05
		c-0.51,0.12-0.6-0.36-0.95-0.62c-0.05-0.32,0.18-0.54,0.34-0.77c0.02-0.44,0.02-0.85-0.34-1.12c-0.05-0.91-1.19-1.01-1.31-1.85
		c-0.34-0.4-0.75-0.77-0.91-1.22c-0.22-0.58-0.85-1.04-1.3-1.5c-0.18-0.04-0.49-0.16-0.6,0.11c-0.04,2.49-1.02,4.56-1.51,6.85
		c-0.14,0.88-0.35,1.72-0.63,2.54c-0.55,1.68-1.34,3.27-2.18,4.82l0,0c-0.55,1.03-1.12,2.05-1.66,3.08
		c-0.8,1.13-2.09,1.34-3.26,1.69c-0.01,0.01-0.03,0.03-0.05,0.04c-0.38,0.23-1.04,0.19-1,0.78c0.35,0.32,0.14,0.93,0.2,1.32
		c0.48,0.57,1.12,0.7,1.8,0.77c0.2,0.23,0.22,0.53,0.51,0.73c0.38,0.1,0.71,0.62,1.21,0.56c0.16-0.01,0.34-0.19,0.35-0.35
		c-0.27-0.7,0.67-0.87,0.71-1.44c0-0.11-0.03-0.23,0.1-0.3c0.04-0.27,0.25-0.47,0.45-0.67c0.21-0.45,0.11-1.11,0.59-1.39
		c0.03-0.01,0.07-0.03,0.11-0.04c0.01,0.01,0.03,0.02,0.05,0.03c0.44,0.33,0.56,0.87,1,1.24c0.36,0.1,0.79,0.03,1.15-0.05
		c0.42-0.04,1.12-0.4,1.35,0.11c-0.1,0.43,0.02,0.93-0.31,1.28c-1.13,0.18-2.46,0.07-3.62,0.1c0.03,0.07-0.04,0.16,0.05,0.2
		c0.1,0.59-0.02,1.3,0.31,1.79l0.04,1.12l0.01,0.07c0.09,0.37,0.2,0.74,0.3,1.11c0.75-0.05,1.44-0.55,1.91-1.18
		c0.09-0.12,0.16-0.24,0.24-0.36c0.2-0.18,0.54-0.1,0.75-0.04c0.16,0.1,0.26,0.24,0.31,0.4c0.09,0.25,0.04,0.57,0,0.82
		c-0.32,1.01-1.39,0.85-2.11,1.22c-0.76,0.66-1.96,0.25-2.85,0.15c-0.24,0.26,0.07,0.43,0.04,0.73c0.08,0.64,0.43,1.15,0.55,1.78
		c0,0.04,0,0.08,0.01,0.11c0.1,0.76,1.08,0.85,1.24,1.57c0.75,0.49,0.91,1.46,1.72,1.85c0.59-0.21,1.01-0.84,1.66-0.93
		c0.36-0.36,0.84-0.51,1.31-0.65c0.86-0.01,0.96-1.22,1.8-1.28c0.54,0.05,0.97,0.64,1.22,1.07c-0.12,0.92,0.43,1.55,0.58,2.36
		c0.19,0.12,0.41,0.18,0.66,0.14c0.84-0.56,1.98-0.36,2.79-0.92c0.37-0.24,0.88-0.11,1.21-0.41c1.52-0.16,2-1.89,3.11-2.71
		c0.08-0.02,0.14-0.05,0.2-0.1c0.56-0.35,0.55-1.22,1.24-1.3c0.31,0.41,0.67,0.77,0.67,1.29c0,0.01,0.01,0.01,0.01,0.01
		c0.34,0.46,0.91,0.92,1.13,1.47c0.3,0.74,1.09,0.49,1.42,1.13c0.4-0.01,0.4,0.58,0.79,0.52c0.4-0.05,0.46,0.48,0.75,0.56
		c0.63-0.57,0.96-1.31,1.72-1.64c0.45-0.66,1.12-1.29,1.51-2.03c0.05-0.1,0.1-0.21,0.14-0.32
		C206.47,101.8,207.01,101.02,206.86,100.06z"/>
	<polyline class="st1" points="230.7,92.44 230.7,92.44 230.7,92.43 230.7,92.44 	"/>
	<path class="st3" d="M247.45,87.62c0-0.73,0.04-1.44,0.22-2.08h-0.14c-0.15,0.33-0.46,0.42-0.8,0.51c-0.46,0.57-1.2,0.46-1.75,0.77
		c-1.76,0.07-3.46,0.19-5.18,0.35c-2.63-0.16-5.17,0.33-7.83,0.11l-0.3,0.1c-0.09,0.05-0.13,0.14-0.16,0.24
		c-0.04,0.15-0.04,0.35-0.04,0.47c0.03,0.27-0.01,0.67-0.1,0.97c-0.68,0.7-0.49-0.65-1.1-0.62c-0.11-0.27-0.31-0.58-0.55-0.82v-0.01
		c-0.29-0.3-0.65-0.51-1.07-0.49c-0.69-0.22-0.27-1.08-0.4-1.54c0.4-0.64,1.22-0.46,1.8-0.71c0-0.51,0.16-0.96,0.25-1.43
		c0.09-0.22,0.13-0.43,0.15-0.64v-0.01c0.05-0.84-0.34-1.66-0.15-2.53c-0.08-0.51-0.38-1.1-0.04-1.59c0.05-0.51,0.46-0.87,0.44-1.43
		c-0.6-0.34-0.23-1.14-0.86-1.43c-0.33,0-0.6-0.38-0.7-0.67c-0.16-0.22-0.36-0.01-0.51,0.11c-0.64,0.03-1.11,0.47-1.56,0.97
		c-0.27,1-1.41,1.64-1.41,2.76c-0.34,0.36-0.33,0.89-0.59,1.29c-0.54,0.35-0.73,1.11-1.3,1.44c-0.26,0.46-0.66,0.79-1.08,1.1l0,0
		c-0.38,0.29-0.79,0.55-1.13,0.89c-0.37,0.32-1.02-0.23-1.25,0.52c-0.67,0.32-1.36,0.57-2.01,0.97l0.04,2.35l0.09,0.09l0.22,0.22
		c-0.14,0.54,0.45,0.84,0.7,1.18c0.23,0.11,0.6-0.02,0.7,0.31c0.27-0.02,0.6,0.04,0.86-0.05c0.22-0.46,0.89-0.11,1.06-0.71
		c0.41-0.15,0.7-0.62,1.06-0.93l0,0c0.01-0.01,0.03-0.02,0.04-0.03c0.05,0.01,0.1,0.02,0.14,0.03c0.41,0.15,0.46,0.74,0.91,0.93
		c0.14,0.42-0.24,0.66-0.4,0.91c0,0.63-0.54,1.03-0.96,1.48c-0.31,0.76-1.06,0.98-1.62,1.48v0.01c-0.07,0.07-0.13,0.13-0.2,0.21
		c-0.65,0.18-0.89,1.06-1.61,1.08c-0.76,0.07-1.23,0.79-2.01,0.81c-0.26,0.31-0.7,0.46-0.89,0.77c0.02,0.16,0.23,0.1,0.3,0.25
		c-0.18,0.44,0.27,0.42,0.46,0.67c0.11,0.76,1.06,0.99,1.59,1.48c0.54,0.1,1.06,0.24,1.66,0.21c1-0.54,1.51-1.91,2.6-2.31
		c0.37,0.14,0.56,0.52,0.62,0.87c-0.18,0.57-0.22,1.14-0.21,1.73c0.03,1.36,0.37,2.74,0.01,4.1c-0.12,0.22-0.18,0.46-0.22,0.73
		v-0.01c-0.04,0.26-0.05,0.54-0.09,0.81c-0.09,0.2-0.23,0.45-0.41,0.52c-0.33,0.53-0.9,0.88-1.46,1.08
		c-0.29,0.64,0.55,0.52,0.8,0.82c0.35,0.15,0.86-0.01,1.06,0.41c0.19-0.02,0.24,0.25,0.44,0.14c0.88,0.49,1.86,1.04,2.96,0.67
		c0.32-0.13,0.32-0.46,0.55-0.67c0.63-0.1,0.9-0.74,1.06-1.28c0.37-0.76,0.38-1.61,0.34-2.5l0,0c-0.03-0.82-0.12-1.67,0.01-2.46
		c0.3-0.54,0.05-1.29,0.15-1.95c0.02-0.13,0.03-0.27,0.04-0.41v0.01c0.03-0.57-0.05-1.12,0.1-1.69c-0.32-0.73,0.24-1.43-0.09-2.16
		c-0.51-0.4-0.19-0.95-0.35-1.47c-0.07-0.18-0.04-0.33,0.02-0.47c0.16-0.33,0.6-0.58,0.67-0.91c0.76,0.05,0.69-1.11,1.56-0.6
		c0.7,0.43-0.25,0.89,0.05,1.53c0,0,0,0.01,0.01,0.01l0.86,0.1c1.57,0.54,3.07-0.38,4.66,0c0.3,0.85,0.05,1.91,0.2,2.82
		c-0.04,0.96-0.31,1.88-0.15,2.87v-0.01c0,0.02,0.01,0.04,0.01,0.07c0.53,1.58-0.58,2.74-0.2,4.4c-0.07,0.12-0.13,0.24-0.2,0.36
		c-0.33,0.54-0.81,0.98-1.32,1.44c-0.65,0.2-1.14-0.35-1.75-0.42c-0.36-0.07-0.19,0.27-0.31,0.46c-0.33,0.37-0.22,0.89-0.1,1.33
		c0.16,0.62,0.84,0.62,1,1.22c0.22,0.14,0.51,0.14,0.75,0.22c1.98,0.56,4.25,0.37,6.38,0.56c0.31-0.04,0.64-0.09,0.84-0.41
		c0.19-1.48,0.12-2.94,0.02-4.4c-0.08-1.17-0.16-2.34-0.15-3.53c-0.07-0.41-0.05-0.85-0.05-1.29l0,0c0.01-0.67,0.03-1.33-0.2-1.89
		c0.09-1,0.25-2.11,0.04-3.11c-0.01-0.29-0.02-0.57,0.15-0.78l0,0c0.02-0.01,0.02-0.03,0.04-0.04c0.96-0.34,2.07-0.46,3.06-0.11
		c0.71,0.25,1.24-0.25,1.96-0.15c0.43-0.03,0.86-0.2,1.2,0.15c0.09-0.12,0.03-0.31,0.05-0.46c-0.45-0.55,0-1.22,0-1.85
		C247.5,89.23,247.45,88.41,247.45,87.62"/>
	<path class="st3" d="M245.75,78.06c-0.12-0.29-0.34-0.38-0.6-0.46c-0.41-0.24-0.67,0.2-1.04,0.2c-1,0.73-2.13,1.04-3.23,1.53
		c-1.79,0.34-3.33-0.41-5.06-0.25c-1.14,0.55-2.24-0.21-3.51,0.05c-0.33-0.09-0.78-0.31-1.06,0c-0.05,0.16,0.1,0.27,0.05,0.46
		c0.09,0.25,0.2,0.52,0.29,0.77c0.01,0.82,0.08,1.63,0.15,2.43c0.03,0.4,0.08,0.8,0.1,1.2c0.12,0.41-0.04,0.95,0.15,1.32
		c0.14-0.01,0.25-0.08,0.35-0.21c2.08,0.16,3.89-0.29,5.93-0.2c1.72,0,3.48-0.45,5.11,0c0.48,0.02,1.15,0.2,1.56-0.14
		c0.34-0.42,0.1-1.09,0.59-1.44c-0.01-0.18-0.02-0.35-0.03-0.53c-0.03-1.35,0.27-2.57,0.27-3.92
		C245.87,78.63,245.92,78.27,245.75,78.06"/>
	<path class="st3" d="M157.11,118.34L157.11,118.34c-0.12,0.01-0.24,0.02-0.37,0.02h-0.24v-2.47c0-0.37,0.04-0.55,0.63-0.55
		c0.98,0,1.46,0.64,1.46,1.48C158.58,117.8,157.97,118.24,157.11,118.34 M161.23,121.56c-0.18-0.19-0.43-0.52-0.86-1.11l-1.39-1.92
		c0.18-0.04,0.34-0.1,0.51-0.16v-0.01c0.71-0.29,1.32-0.82,1.32-1.57c0-0.9-0.77-1.47-1.7-1.67c-0.53-0.11-1.85-0.12-3.12-0.12h-2.6
		v0.25c0.71,0.01,0.97,0.07,0.97,0.89v4.75c0,0.82-0.26,0.88-0.97,0.9v0.25h4.08v-0.25c-0.71-0.02-0.97-0.07-0.97-0.9v-2.16h0.34
		l2.2,3.31h2.66v-0.25C161.54,121.77,161.42,121.74,161.23,121.56z"/>
	<path class="st3" d="M151.92,120.79c-0.77,0.8-1.35,0.8-2.53,0.8c-0.87,0-0.91-0.12-0.91-0.87v-2.23c1.25,0,1.68,0.52,1.84,1.56
		h0.27v-3.48h-0.27c-0.15,1.04-0.58,1.56-1.84,1.56v-2.21c0-0.52,0.14-0.54,0.7-0.54h0.74c1.4,0,1.94,0.54,2.07,1.58h0.27v-1.99
		h-6.9v0.25c0.71,0.01,0.98,0.07,0.98,0.89v4.75c0,0.82-0.26,0.88-0.98,0.9v0.25h6.98l0.45-2.13l-0.29-0.07
		C152.47,119.96,152.26,120.44,151.92,120.79"/>
	<path class="st3" d="M246.65,121.1l-2.83-3.56l1.96-1.65c0.34-0.29,1-0.66,1.62-0.66v-0.25h-3.11v0.25c0.31,0,0.91,0,0.91,0.33
		c0,0.15-0.33,0.53-0.8,0.93l-2.2,1.83v-2.21c0-0.81,0.26-0.88,0.98-0.89v-0.25h-4.08v0.25c0.71,0.01,0.98,0.07,0.98,0.89v4.75
		c0,0.82-0.25,0.88-0.98,0.9v0.25h4.08v-0.25c-0.71-0.02-0.98-0.07-0.98-0.9v-1.96l0.18-0.13l1.76,2.22
		c0.2,0.25,0.31,0.45,0.31,0.53c0,0.22-0.35,0.22-0.57,0.23V122h3.72v-0.25C247.13,121.75,246.9,121.41,246.65,121.1"/>
	<path class="st3" d="M97.29,121.66c-1.52,0-1.95-1.32-1.95-3.23c0-0.02,0-0.05,0-0.08c0.01-1.86,0.46-3.13,1.95-3.13
		c1.33,0,2.28,1.06,2.68,2.02h0.27v-2.42h-0.27c-0.12,0.33-0.34,0.43-0.57,0.43c-0.15,0-0.32-0.05-0.46-0.11
		c-0.63-0.23-1.07-0.32-1.76-0.33c-2.39,0-4.07,1.52-4.15,3.55l0,0c0,0.05,0,0.11,0,0.15c0,2.11,1.7,3.71,4.15,3.71
		c1.14,0,2.39-0.48,3.08-1.33l-0.31-0.36C99.33,121.15,98.44,121.66,97.29,121.66"/>
	<path class="st3" d="M125.1,119.58l0.62-1.24l0.56-1.13l0.59,1.13l0.66,1.24H125.1 M130.87,121.25c-0.22-0.32-0.42-0.71-0.7-1.25
		l-0.9-1.66l-1.94-3.55h-0.38l-2.88,5.78c-0.35,0.7-0.44,1.1-1.26,1.2v0.25h2.71v-0.25c-0.48,0-1.03-0.05-1.03-0.59
		c0-0.27,0.27-0.9,0.43-1.17h2.88l0.15,0.3c0.1,0.2,0.45,0.84,0.45,1.07c0,0.18-0.13,0.31-0.29,0.35c-0.14,0.03-0.36,0.05-0.63,0.05
		v0.25h4.36v-0.25C131.39,121.77,131.08,121.56,130.87,121.25z"/>
	<path class="st3" d="M166.46,121.66c-1.51,0-1.96-1.32-1.96-3.23c0-0.02,0-0.05,0-0.08c0.01-1.86,0.46-3.13,1.96-3.13
		c1.33,0,2.28,1.06,2.69,2.02h0.26v-2.42h-0.26c-0.13,0.33-0.35,0.43-0.58,0.43c-0.13,0-0.32-0.05-0.45-0.11
		c-0.63-0.23-1.06-0.32-1.76-0.33c-2.39,0-4.07,1.52-4.15,3.55c0,0.05-0.01,0.11-0.01,0.15c0,2.11,1.72,3.71,4.16,3.71
		c1.14,0,2.4-0.48,3.07-1.33l-0.3-0.36C168.49,121.15,167.61,121.66,166.46,121.66"/>
	<path class="st3" d="M181.58,119.58l0.62-1.24l0.56-1.13l0.59,1.13l0.65,1.24H181.58 M187.35,121.25c-0.22-0.32-0.41-0.71-0.7-1.25
		l-0.9-1.66l-1.94-3.55h-0.38l-2.88,5.78c-0.35,0.7-0.44,1.1-1.25,1.2v0.25H182v-0.25c-0.48,0-1.03-0.05-1.03-0.59
		c0-0.27,0.27-0.9,0.43-1.17h2.88l0.14,0.3c0.1,0.2,0.46,0.84,0.46,1.07c0,0.18-0.14,0.31-0.29,0.35c-0.13,0.03-0.37,0.05-0.64,0.05
		v0.25h4.37v-0.25C187.88,121.77,187.56,121.56,187.35,121.25z"/>
	<path class="st3" d="M209.51,118.34c-0.2-0.18-0.44-0.34-0.71-0.46l-1.46-0.67c-0.55-0.25-1.08-0.52-1.08-1.14
		c0-0.54,0.53-0.86,1.11-0.86c1.07,0,1.88,0.95,2.08,1.8h0.31l-0.07-2.21h-0.33c-0.01,0.21-0.2,0.29-0.38,0.29
		c-0.14,0-0.27-0.03-0.4-0.07c-0.41-0.15-0.97-0.22-1.22-0.22c-1.41,0-2.41,0.9-2.41,2.16c0,0.57,0.19,1.02,0.57,1.39
		c0.22,0.22,0.52,0.41,0.87,0.58l1.25,0.62c0.57,0.29,1.08,0.57,1.08,1.2c0,0.67-0.62,1.03-1.37,1.03c-1.2,0-1.98-1.08-2.17-2.02
		h-0.31l0.07,2.43h0.3c0.05-0.2,0.15-0.31,0.41-0.31c0.31,0,0.99,0.31,1.77,0.31c1.67-0.03,2.84-0.96,2.84-2.34
		C210.25,119.3,210,118.77,209.51,118.34L209.51,118.34"/>
	<path class="st3" d="M223.34,119.58l0.62-1.24l0.56-1.13l1.25,2.36h-2.43 M229.11,121.25c-0.22-0.32-0.41-0.71-0.7-1.25l-2.84-5.21
		h-0.4l-2.88,5.78c-0.35,0.7-0.44,1.1-1.26,1.2v0.25h2.71v-0.25c-0.48,0-1.03-0.05-1.03-0.59c0-0.27,0.27-0.9,0.43-1.17h2.88
		l0.14,0.3c0.1,0.2,0.46,0.84,0.46,1.07c0,0.18-0.14,0.31-0.29,0.35c-0.14,0.03-0.36,0.05-0.63,0.05v0.25h4.36v-0.25
		C229.64,121.77,229.32,121.56,229.11,121.25z"/>
	<path class="st3" d="M217.15,121.66c-0.52,0-0.57-0.05-0.57-0.71v-2.47h0.48c0.78,0,1.54,0.38,1.54,1.62
		C218.6,120.99,218.31,121.66,217.15,121.66 M216.58,115.64c0-0.18,0.07-0.31,0.43-0.31c0.16,0,0.52,0.01,0.75,0.2
		c0.35,0.27,0.46,0.73,0.46,1.21c0,1.14-0.63,1.36-1.2,1.36h-0.44V115.64z M219.67,118.57c-0.22-0.09-0.45-0.16-0.67-0.22l0,0
		c-0.18-0.04-0.35-0.08-0.53-0.09c0.21-0.04,0.43-0.1,0.75-0.24c0.67-0.27,1.13-0.75,1.13-1.41s-0.29-0.93-0.62-1.19
		c-0.54-0.42-1.51-0.44-2.58-0.44h-3.68v0.25c0.71,0.01,0.98,0.07,0.98,0.89v4.75c0,0.82-0.26,0.88-0.98,0.9v0.25h3.24
		c0.31,0,0.92,0,1.3-0.03c1.57-0.12,2.83-0.59,2.83-1.98C220.83,119.37,220.23,118.79,219.67,118.57z"/>
	<path class="st3" d="M105.85,115.22c0.7,0.01,0.97,0.07,0.97,0.89v2.02h-2.96v-2.02c0-0.81,0.26-0.88,0.98-0.89v-0.25h-4.09v0.25
		c0.71,0.01,0.98,0.07,0.98,0.89v4.75c0,0.82-0.26,0.88-0.98,0.9v0.25h4.09v-0.25c-0.71-0.02-0.98-0.07-0.98-0.9v-2.27h2.96v2.27
		c0,0.82-0.26,0.88-0.97,0.9v0.25h4.08v-0.25c-0.7-0.02-0.97-0.07-0.97-0.9v-4.75c0-0.81,0.26-0.88,0.97-0.89v-0.25h-4.08V115.22"/>
	<path class="st3" d="M110.06,115.22c0.7,0.01,0.97,0.07,0.97,0.89v4.75c0,0.82-0.26,0.88-0.97,0.9v0.25h4.08v-0.25
		c-0.71-0.02-0.98-0.07-0.98-0.9v-4.75c0-0.81,0.26-0.88,0.98-0.89v-0.25h-4.08V115.22"/>
	<path class="st3" d="M122.8,114.97h-2.62v0.25c0.69,0,1.19,0.11,1.19,0.97v2.99l-0.84-0.84l-3.4-3.37h-2.88v0.25
		c0.36,0.01,0.48,0.01,1.01,0.64v4.89c0,0.65-0.25,0.98-1.01,1.01v0.25h2.83v-0.25c-0.76,0.01-1.26-0.11-1.26-0.97v-4.34l5.83,5.74
		h0.27v-6c0-0.62,0.24-0.93,0.87-0.97v-0.26"/>
	<path class="st3" d="M174.99,115.22c0.71,0.01,0.98,0.07,0.98,0.89v2.02h-2.96v-2.02c0-0.81,0.26-0.88,0.97-0.89v-0.25h-4.09v0.25
		c0.71,0.01,0.98,0.07,0.98,0.89v4.75c0,0.82-0.26,0.88-0.98,0.9v0.25h4.09v-0.25c-0.71-0.02-0.97-0.07-0.97-0.9v-2.27h2.96v2.27
		c0,0.82-0.26,0.88-0.98,0.9v0.25h4.08v-0.25c-0.71-0.02-0.98-0.07-0.98-0.9v-4.75c0-0.81,0.26-0.88,0.98-0.89v-0.25h-4.08V115.22"
		/>
	<path class="st3" d="M194.41,115.22c0.69,0,1.19,0.11,1.19,0.97v2.99l-0.84-0.84l-3.4-3.37h-2.88v0.25
		c0.36,0.01,0.48,0.01,1.01,0.64v4.89c0,0.65-0.25,0.98-1.01,1.01v0.25h2.83v-0.25c-0.76,0.01-1.26-0.11-1.26-0.97v-4.34l5.83,5.74
		h0.29v-6c0-0.62,0.24-0.93,0.87-0.97v-0.25h-2.62L194.41,115.22"/>
	<path class="st3" d="M236.18,115.22c0.69,0,1.19,0.11,1.19,0.97v2.99l-0.84-0.84l-3.4-3.37h-2.88v0.25
		c0.37,0.01,0.48,0.01,1.01,0.64v4.89c0,0.65-0.26,0.98-1.01,1.01v0.25h2.83v-0.25c-0.76,0.01-1.26-0.11-1.26-0.97v-4.34l5.83,5.74
		h0.27v-6c0-0.62,0.24-0.93,0.88-0.97v-0.25h-2.62L236.18,115.22"/>
	<path class="st3" d="M197.22,114.97l-0.08,1.92h0.27c0.18-0.91,0.84-1.51,1.92-1.51c0.33,0,0.41,0,0.41,0.23v5.26
		c0,0.73-0.32,0.87-1.19,0.89v0.25h4.49v-0.25c-0.86-0.02-1.19-0.16-1.19-0.89v-5.26c0-0.23,0.07-0.23,0.41-0.23
		c1.1,0,1.76,0.59,1.94,1.51h0.27l-0.1-1.92H197.22"/>
	<path class="st3" d="M140.32,118.34l-0.53,1.15l-0.49-1.15l-1.45-3.37h-3.19v0.25c0.57,0.01,0.88,0.09,0.88,0.78v4.45
		c0,1.2-0.32,1.31-0.88,1.31v0.25h2.52v-0.25c-0.99,0-1.08-0.35-1.08-1.14v-4.77l1.09,2.5l1.61,3.67h0.37l2.85-6.17l0.01,2.5
		l0.01,2.53c0,0.82-0.26,0.88-0.98,0.9v0.25h3.97v-0.25c-0.71-0.02-0.97-0.07-0.97-0.9v-4.75c0-0.81,0.26-0.88,0.97-0.89v-0.25
		h-3.17L140.32,118.34"/>
</g>
</svg>
