<?xml version="1.0" encoding="utf-8"?>
<!-- Generator: Adobe Illustrator 26.3.1, SVG Export Plug-In . SVG Version: 6.00 Build 0)  -->
<svg version="1.1" id="图层_1" xmlns="http://www.w3.org/2000/svg" xmlns:xlink="http://www.w3.org/1999/xlink" x="0px" y="0px"
	 viewBox="0 0 272 191" style="enable-background:new 0 0 272 191;" xml:space="preserve">
<style type="text/css">
	.st0{fill:#8E8E8E;}
</style>
<g id="Layer_2">
	<g id="Layer_1-2">
		<path class="st0" d="M56.86,84.42c0.88-0.52,2.01-0.22,2.53,0.66c0.17,0.29,0.26,0.63,0.25,0.97l0,0c0,7.01,0.03,14.01,0.04,21.04
			c0,0.62-0.33,1.19-0.86,1.51l-1.22,0.7c-0.85,0.48-1.93,0.19-2.41-0.66c-0.15-0.27-0.23-0.57-0.23-0.87V93.94
			c0-0.97-0.78-1.77-1.76-1.77c-0.31,0-0.61,0.08-0.88,0.23L42.29,98l-3.9,2.22c-0.54,0.3-1.21,0.3-1.75,0l-13.36-7.71l-0.09-0.06
			c-0.85-0.48-1.93-0.18-2.41,0.67c-0.15,0.27-0.23,0.57-0.23,0.87v10.38c-0.01,0.64,0.33,1.22,0.89,1.54l15.42,8.87
			c0.54,0.31,1.21,0.31,1.75,0l9.04-5.22c0.85-0.48,1.93-0.19,2.41,0.66c0.15,0.27,0.23,0.57,0.23,0.87v1.42
			c0.01,0.64-0.34,1.23-0.89,1.54l-10.81,6.23c-0.54,0.31-1.21,0.31-1.75,0l-20.15-11.6c-0.56-0.31-0.91-0.91-0.9-1.55V83.88
			c-0.01-0.64,0.34-1.23,0.89-1.54l20.14-11.62c0.54-0.31,1.21-0.31,1.75,0l10.82,6.23c0.55,0.31,0.89,0.9,0.89,1.54v1.38
			c0,0.98-0.79,1.77-1.77,1.77c-0.31,0-0.61-0.08-0.87-0.23l-9.03-5.22c-0.54-0.31-1.21-0.31-1.75,0l-13.58,7.84
			c-0.84,0.49-1.12,1.56-0.64,2.4c0.15,0.26,0.37,0.48,0.64,0.64l13.39,7.71c0.54,0.31,1.21,0.31,1.75,0l16.39-9.22
			c0.48-0.25,0.96-0.53,1.45-0.77L56.86,84.42z"/>
		<path class="st0" d="M227.73,104.25h-10.79v-5.3h8.88c1.24-0.06,2.2-1.11,2.14-2.35c-0.05-1.16-0.98-2.09-2.14-2.14h-8.88v-5.3
			h10.79c1.24-0.06,2.2-1.11,2.14-2.35c-0.05-1.16-0.98-2.09-2.14-2.14h-13.04c-1.24,0-2.25,1.01-2.25,2.25c0,0,0,0,0,0v19.56
			c0,1.24,1.01,2.25,2.25,2.25h13.04c1.24,0.06,2.29-0.9,2.35-2.14s-0.9-2.29-2.14-2.35c-0.07,0-0.14,0-0.21,0L227.73,104.25z"/>
		<path class="st0" d="M203.59,89.19c1.24,0.06,2.29-0.9,2.35-2.14c0.06-1.24-0.9-2.29-2.14-2.35c-0.07,0-0.14,0-0.21,0h-13.04
			c-1.24,0-2.25,1.01-2.25,2.25v19.56c0,1.24,1.01,2.25,2.25,2.25c1.24,0,2.25-1.01,2.25-2.25v-7.53h8.88
			c1.24,0.06,2.29-0.9,2.35-2.14c0.06-1.24-0.9-2.29-2.14-2.35c-0.07,0-0.14,0-0.21,0h-8.88v-5.3L203.59,89.19z"/>
		<path class="st0" d="M91.14,102.49c-3.19,2.99-8.19,2.83-11.18-0.35c-2.99-3.19-2.83-8.19,0.35-11.18
			c3.07-2.88,7.86-2.85,10.9,0.06c0.42,0.4,0.98,0.63,1.56,0.63c1.24-0.01,2.24-1.03,2.23-2.27c-0.01-0.6-0.25-1.17-0.67-1.58
			c-4.94-4.74-12.79-4.59-17.53,0.35s-4.59,12.79,0.35,17.53c4.76,4.57,12.26,4.61,17.07,0.1c0.92-0.83,0.99-2.26,0.16-3.18
			c-0.83-0.92-2.26-0.99-3.18-0.16c-0.02,0.02-0.04,0.04-0.06,0.05V102.49z"/>
		<path class="st0" d="M144.73,83.99c-7.04,0-12.74,5.71-12.73,12.74c0,7.04,5.71,12.74,12.74,12.73c7.04,0,12.74-5.71,12.73-12.74
			C157.46,89.69,151.76,84,144.73,83.99z M144.73,104.97c-4.55,0-8.25-3.69-8.25-8.24c0-4.55,3.69-8.25,8.24-8.25
			s8.25,3.69,8.25,8.24C152.96,101.27,149.28,104.95,144.73,104.97L144.73,104.97z"/>
		<path class="st0" d="M125.38,86.66c0,0,0-0.03,0-0.05c-0.02-0.13-0.05-0.26-0.09-0.38c0-0.01,0-0.02,0-0.03
			c-0.04-0.12-0.1-0.25-0.16-0.36c0-0.01,0-0.03,0-0.04c-0.07-0.11-0.14-0.22-0.23-0.32l-0.07-0.04c-0.09-0.1-0.19-0.19-0.29-0.27
			l0,0l0,0c-0.11-0.08-0.23-0.15-0.35-0.21h-0.04c-0.12-0.06-0.24-0.1-0.37-0.13h-0.05c-0.12-0.03-0.25-0.05-0.38-0.06h-0.16
			c-0.09-0.01-0.19-0.01-0.28,0h-0.05c-0.13,0.02-0.25,0.05-0.38,0.09h-0.04c-0.12,0.04-0.24,0.1-0.36,0.16l-0.04,0.02
			c-0.11,0.07-0.22,0.14-0.32,0.23l-0.04,0.03c-0.1,0.09-0.19,0.19-0.27,0.29l0,0l-8.04,10.48l-7.71-10.46l0,0
			c-0.08-0.11-0.17-0.21-0.27-0.3l-0.04-0.04c-0.1-0.08-0.2-0.16-0.3-0.23l-0.05-0.03c-0.11-0.06-0.22-0.12-0.34-0.16h-0.05
			c-0.12-0.04-0.24-0.07-0.37-0.09h-0.05c-0.1-0.02-0.21-0.02-0.31-0.02h-0.13c-0.12,0.01-0.25,0.03-0.37,0.05h-0.05
			c-0.13,0.03-0.25,0.07-0.37,0.13h-0.04c-0.12,0.06-0.24,0.13-0.35,0.21l0,0l0,0c-0.11,0.08-0.2,0.17-0.29,0.27l-0.04,0.04
			c-0.08,0.1-0.16,0.2-0.23,0.31l-0.03,0.05c-0.06,0.11-0.12,0.23-0.16,0.35v0.04c-0.04,0.12-0.07,0.25-0.09,0.37c0,0,0,0.03,0,0.05
			c-0.01,0.1-0.01,0.21,0,0.31v19.56c0,1.24,1.01,2.25,2.25,2.25c1.24,0,2.25-1.01,2.25-2.25V93.79l5.42,7.37l0.09,0.1l-0.04,0.07
			c0.09,0.1,0.18,0.19,0.29,0.27l0,0H112c0.08,0.06,0.16,0.11,0.24,0.15l0.06,0.03c0.09,0.05,0.19,0.09,0.29,0.13h0.09
			c0.08,0.02,0.15,0.04,0.23,0.06h0.1c0.1,0.01,0.2,0.01,0.3,0l0,0c0.1,0,0.2,0,0.3,0h0.1c0.08-0.01,0.15-0.03,0.23-0.05h0.08
			c0.1-0.03,0.2-0.07,0.29-0.12l0.05-0.03c0.08-0.04,0.16-0.09,0.24-0.15h0.04l0,0c0.11-0.08,0.2-0.17,0.29-0.27l0.05-0.06
			l0.09-0.11l5.78-7.58v12.89c0,1.24,1.01,2.25,2.25,2.25c1.24,0,2.25-1.01,2.25-2.25c0,0,0,0,0,0V86.94
			C125.37,86.85,125.37,86.75,125.38,86.66z"/>
		<path class="st0" d="M251.65,99.85c3.97-1.88,5.67-6.62,3.79-10.59c-1.28-2.71-3.98-4.47-6.98-4.55h-0.23h-9.41
			c-1.24,0-2.25,1-2.25,2.25v19.56c-0.06,1.24,0.9,2.29,2.14,2.35c1.24,0.06,2.29-0.9,2.35-2.14c0-0.07,0-0.14,0-0.21v-5.88h5.51
			l5.61,7.23c0.86,0.9,2.28,0.93,3.18,0.07c0.76-0.73,0.91-1.89,0.36-2.79L251.65,99.85z M241.05,89.19h7.16
			c1.92-0.07,3.53,1.42,3.6,3.34c0.07,1.92-1.42,3.53-3.34,3.6c-0.09,0-0.17,0-0.26,0h-7.15L241.05,89.19z"/>
		<path class="st0" d="M179.45,89.26c1.24,0.06,2.3-0.89,2.36-2.13s-0.89-2.3-2.13-2.36c-0.07,0-0.14,0-0.21,0l-13.04-0.07
			c-1.24,0-2.24,1-2.25,2.24l-0.1,19.56c-0.06,1.24,0.9,2.29,2.14,2.35c1.24,0.06,2.29-0.9,2.35-2.14c0-0.07,0-0.14,0-0.21
			l0.04-7.53l8.88,0.05c1.24,0.06,2.3-0.89,2.36-2.13c0.06-1.24-0.89-2.3-2.13-2.36c-0.07,0-0.14,0-0.21,0l-8.88-0.05l0.03-5.3
			L179.45,89.26z"/>
	</g>
</g>
</svg>
