<?xml version="1.0" encoding="utf-8"?>
<!-- Generator: Adobe Illustrator 26.3.1, SVG Export Plug-In . SVG Version: 6.00 Build 0)  -->
<svg version="1.1" id="图层_1" xmlns="http://www.w3.org/2000/svg" xmlns:xlink="http://www.w3.org/1999/xlink" x="0px" y="0px"
	 viewBox="0 0 272 191" style="enable-background:new 0 0 272 191;" xml:space="preserve">
<style type="text/css">
	.st0{fill:#8E8E8E;}
</style>
<g>
	<path class="st0" d="M111.99,101.28c0.75,0,1.2,0,1.8-0.15c-0.15,1.8-0.15,3.75-0.3,8.1v5.55c0,3.45,0.3,5.55,0.6,6.45
		c1.2,2.7,3.6,5.25,7.8,5.11c3.75-0.15,6.31-1.35,7.8-4.35c1.05-2.1,1.2-3.6,1.35-9v-3.45c-0.15-3-0.3-4.95-0.45-8.4
		c0,0,0.9,0.15,1.35,0.15c0.45,0,0.9,0,1.35-0.15c-0.15,1.2-0.3,7.66-0.3,7.66v4.05c0,5.41-0.3,6.61-0.9,8.4
		c-0.3,1.35-1.2,2.55-2.25,3.61c-1.8,2.1-4.81,3.15-8.4,3.15c-3.3,0-6.45-0.9-8.26-2.55c-1.95-1.95-2.7-3.75-2.7-7.8v-5.71v-3.45
		c0-2.7-0.3-5.85-0.45-7.36C110.79,101.28,111.09,101.28,111.99,101.28L111.99,101.28z M96.68,100.23c0,0,1.05,2.7,1.95,4.81
		c1.5,3,3.91,8.56,4.81,10.81c0.9,2.1,3.3,7.21,3.3,7.21l2.1,4.5c-0.75,0-1.35-0.15-2.1-0.15c-0.75,0-1.2,0-2.1,0.15l-1.5-3.9
		c0,0-0.45-1.5-1.2-3.01c-1.05-2.7-1.65-3.75-1.65-3.75H90.22c-0.15,0.45-0.9,2.25-1.35,3.6c-1.95,4.51-2.55,7.21-2.55,7.21
		c-0.6-0.15-0.9-0.3-1.35-0.3s-0.75,0-1.35,0.15c0,0,0.75-1.95,1.65-3.75c1.2-2.7,2.85-6.31,4.21-9.3
		c1.05-2.4,6.31-13.96,6.31-14.26L96.68,100.23L96.68,100.23z M94.43,107.43c-0.6,1.2-3.6,7.96-3.6,7.96h8.86c0,0-1.5-3.45-2.4-5.71
		c-1.35-3-1.95-4.21-1.95-4.05C95.33,105.63,94.87,106.68,94.43,107.43L94.43,107.43z M140.81,101.43h1.95l3.01-0.15l2.55-0.15h0.75
		c5.11,0,7.36,0.6,9.91,3.01c2.4,2.25,3.9,5.41,3.9,9.3c0,4.65-2.1,8.4-5.25,11.11c-2.7,2.25-5.71,3-12.46,2.85h-5.25
		c-1.35,0-2.1,0.15-2.1,0.15c0.15-0.6,0.3-6.31,0.3-7.65v-6.61c0-1.5,0-5.55-0.15-7.8c0-1.35-0.15-4.21-0.15-4.21
		C139.01,101.43,139.76,101.43,140.81,101.43z M145.92,126.05c1.65,0,3.3,0,4.21-0.15c2.4-0.45,3.6-0.9,5.55-2.85
		c2.25-2.1,3.3-5.41,3.3-9.16c-0.15-3.91-1.05-7.5-3.75-9.46c-2.1-1.5-3.3-1.8-7.5-1.95c-1.8,0-4.35,0.15-6.15,0.45l-0.3,0.15
		c0,0.75-0.15,4.51-0.15,7.36v11.41c0.15,1.8,0.15,2.85,0.3,4.05C142.61,126.2,145.46,126.05,145.92,126.05z M166.93,101.13
		c3.6,0.15,5.11,0.15,6.75,0.15h6.61c0,0.3-0.15,0.75-0.15,1.05c0,0.3,0,1.05,0.15,1.05c-0.9-0.15-1.8-0.15-3.15-0.3
		c-3.6-0.15-4.51-0.15-5.71-0.15h-1.5v4.65c-0.15,0.6-0.15,1.5-0.15,2.4c0,1.35,0.15,2.7,0.15,2.7h6.45c1.65-0.15,2.55-0.15,3-0.15
		c-0.15,0-0.15,0.45-0.15,1.05c0,0.45,0.15,1.05,0,1.05c-1.35-0.15-4.35-0.3-6.76-0.3h-2.55v5.55c0,1.5,0.15,2.55,0.15,2.7
		c0,0.75,0,1.95,0.15,3.15c0.3,0.15,0.75,0.15,1.2,0.15c3.15,0,7.8-0.6,9.16-0.75c0,0-0.15,0.75-0.15,1.05v1.2h-10.5
		c-1.8,0-2.7,0-3.61,0.15c0.15,0,0.45-3.15,0.45-5.25V119l0.15-4.81c0,0-0.3-11.56-0.45-13.06H166.93L166.93,101.13L166.93,101.13z
		 M73.11,125.9h1.95c1.5,0,2.25,0,3.15-0.15c2.1,0,3.6-0.3,4.05-0.3v2.1h-0.9c-0.75,0-1.65,0-3.15-0.15H71
		c-2.1,0-3.15,0.15-3.3,0.15c0.15-1.35,0.45-8.1,0.45-13.06s-0.45-13.36-0.45-13.36c0.6,0,1.35,0.15,1.95,0.15
		c0.6,0,1.95-0.15,1.95-0.15c-0.6,6.15-0.45,11.56-0.45,11.56s0,9.6,0.15,12.46l0.15,0.6C71.46,125.9,72.2,125.9,73.11,125.9
		L73.11,125.9z M188.39,114.79v4.65l0.15,3.75l0.15,4.05v0.3c-1.05-0.15-1.5-0.15-1.95-0.15c-0.75,0-1.2,0-1.8,0.15l0.15-4.05
		c0.15-3,0.15-5.71,0.15-10.36c0-3,0-4.5-0.15-7.96c0-1.35-0.15-3.91-0.15-3.91c0.9,0.15,1.8,0.15,2.85,0.15
		c0.75,0,1.95-0.15,3-0.15c1.8-0.15,3-0.15,3.3-0.15c6.31,0,8.1,3.01,8.1,6.01c0,3.6-3.15,6.31-8.4,7.36v0.15l2.85,3.45l2.55,3.15
		l2.85,3.61c1.2,1.5,1.5,2.1,2.25,2.85h-4.21l-4.65-6.31c-1.2-1.65-5.25-6.61-5.41-6.61L188.39,114.79L188.39,114.79L188.39,114.79z
		 M190.49,113.44c3,0,4.05-0.45,5.41-1.2c1.5-0.9,2.85-2.7,2.7-4.81c-0.15-2.85-1.8-4.95-6.31-4.95c-1.5,0-3.45,0.3-3.91,0.45v10.36
		C188.85,113.44,189.75,113.44,190.49,113.44L190.49,113.44z M93.37,68.25c-3.3,0.15-5.25,1.95-5.25,4.81c0.15,1.95,0.9,3.45,3,4.51
		c0.9,0.3,2.25,1.05,3.6,1.5c4.35,1.35,6.15,3.45,6.15,6.61c0,4.95-4.21,8.56-9.46,8.56c-2.55,0-4.95-0.75-6.61-2.25
		c0,0,0.45-2.1,0.6-3c0,0,2.7,4.21,6.61,4.05c3.75,0,6.01-2.85,6.01-5.85c0-2.7-1.65-4.35-5.55-5.71c-3.91-1.35-5.55-2.85-6.31-4.05
		c-0.6-1.05-0.9-2.1-0.9-3.3c0-4.21,3.45-7.21,8.4-7.21c4.05,0,6.01,1.95,6.01,1.95c-0.45,1.05-0.75,1.65-1.05,3
		C98.62,71.86,97.13,68.25,93.37,68.25L93.37,68.25z M113.94,69.46l-0.15,4.35l-0.15,5.25c0,0-0.15,2.55,0,5.25
		c0,2.85,0,7.5,0.3,9.6c0,0-1.2-0.15-1.95-0.15c-0.9,0-1.8,0.15-1.8,0.15c0.15-2.1,0.3-4.35,0.3-9.46V73.81c0,0-0.15-3.3-0.15-4.35
		l-4.21,0.15c-2.25,0-2.7,0.15-4.21,0.3c0,0,0-0.6,0.15-1.2c0-0.45,0-0.3-0.15-1.05c0.3,0.15,9.6,0.15,9.6,0.15h1.2
		c3.3,0,9.3-0.15,9.3-0.15v1.05c0,0.45,0.15,1.2,0.15,1.2c-1.8-0.3-2.85-0.3-4.65-0.45H113.94L113.94,69.46L113.94,69.46z
		 M68.31,67.65c3.61,0.15,4.95,0.15,6.76,0.15c1.05,0,5.41,0,6.15-0.15h0.45c0,0.3-0.15,0.75-0.15,1.05v1.05c-0.75,0-1.8,0-3-0.15
		c-3.6-0.15-4.65-0.15-5.71-0.15h-1.5v0.45l-0.15,4.21v4.95c0,0,0,0.15,0.15,0.15h3.6c0.45,0,1.2,0,2.85-0.15h2.85v1.95
		c-1.5,0-4.35-0.15-6.91-0.3c-0.75,0-1.8,0-2.4,0.15h-0.15v2.55l0.15,3v2.7c0,0.6,0.15,1.95,0.15,3l0.15,0.15h1.2
		c3.15,0,7.66-0.45,9.16-0.6c0,0-0.15,0.6-0.15,1.05v1.2h-3.3l-2.55-0.15l-4.81,0.15h-3.45c0,0,0.3-3,0.3-5.11l0.15-3.3v-4.81
		c0,0-0.15-11.56-0.3-13.06L68.31,67.65L68.31,67.65L68.31,67.65z M125.5,64.65h13.96V63H125.5C125.5,63,125.5,64.65,125.5,64.65z
		 M126.1,67.65c3.6,0.15,5.11,0.15,6.75,0.15c1.05,0,5.55,0,6.15-0.15h0.6c-0.15,0.3-0.15,0.75-0.15,1.05v1.05
		c-0.9,0-1.8,0-3.15-0.15c-3.45-0.15-4.51-0.15-5.71-0.15h-1.5v9.76h3.75c0.45,0,1.05,0,2.85-0.15h2.85c0,0,0,0.45-0.15,0.9
		c0,0.6,0.15,1.05,0.15,1.05c-1.5,0-4.35-0.15-6.91-0.3c-0.75,0-1.8,0-2.55,0.15v2.55l0.15,3v2.7c0,0.6,0.15,1.95,0.15,3v0.15h1.35
		c3,0,7.66-0.45,9-0.6c0,0-0.15,0.6-0.15,1.05c0,0.45,0,0.9,0.15,1.2h-3.3l-2.55-0.15l-4.81,0.15h-3.45c0,0,0.3-3,0.3-5.11v-3.3
		l0.15-4.81c0,0-0.15-11.56-0.45-13.06L126.1,67.65L126.1,67.65L126.1,67.65z M144.41,67.65c3.61,0.15,5.11,0.15,6.76,0.15
		c1.05,0,5.55,0,6.15-0.15h0.6c-0.15,0.3-0.15,0.75-0.15,1.05v1.05c-0.9,0-1.8,0-3.15-0.15c-3.45-0.15-4.51-0.15-5.71-0.15h-1.5
		v9.76h3.75c0.45,0,1.05,0,2.85-0.15h2.85c0,0,0,0.45-0.15,0.9c0,0.6,0.15,1.05,0.15,1.05c-1.5,0-4.35-0.15-6.91-0.3
		c-0.75,0-1.8,0-2.55,0.15v2.55l0.15,3v2.7c0,0.6,0.15,1.95,0.15,3v0.15h1.35c3.01,0,7.66-0.45,9-0.6c0,0-0.15,0.6-0.15,1.05
		c0,0.45,0,0.9,0.15,1.2h-3.3l-2.55-0.15l-4.81,0.15h-3.45c0,0,0.3-3,0.3-5.11v-3.3l0.15-4.81c0,0-0.15-11.56-0.45-13.06
		L144.41,67.65L144.41,67.65z"/>
</g>
</svg>
