<?xml version="1.0" encoding="utf-8"?>
<!-- Generator: Adobe Illustrator 26.3.1, SVG Export Plug-In . SVG Version: 6.00 Build 0)  -->
<svg version="1.1" id="图层_1" xmlns="http://www.w3.org/2000/svg" xmlns:xlink="http://www.w3.org/1999/xlink" x="0px" y="0px"
	 viewBox="0 0 272 191" style="enable-background:new 0 0 272 191;" xml:space="preserve">
<style type="text/css">
	.st0{fill:#8E8E8E;}
</style>
<g>
	<path class="st0" d="M225.77,89.73c-1.7-0.03-3.41-0.07-5.1-0.1c-0.59-0.01-1.13-0.17-1.6-0.53c-0.72-0.55-1.43-1.1-2.12-1.66
		c-0.22-0.17-0.35-0.19-0.58,0.01c-0.65,0.55-1.33,1.05-1.99,1.56c-0.55,0.42-1.17,0.62-1.88,0.62c-1.26-0.01-2.51,0-3.78,0.01
		c-0.39,0-0.78,0.04-1.21-0.01c2.05-1.57,4.12-3.15,6.23-4.75c-0.25-0.17-0.46-0.3-0.66-0.46c-0.45-0.36-0.88-0.72-1.33-1.1
		c-0.17-0.16-0.29-0.22-0.45,0.07c-0.35,0.64-0.88,1.05-1.63,1.11c-0.78,0.07-1.56,0.1-2.37,0.16c0.4-1.05,0.75-2.01,1.11-2.96
		c0.68-1.83,1.37-3.67,2.04-5.5c0.13-0.36,0.29-0.51,0.71-0.49c1.04,0.04,2.09,0.01,3.19,0.01c-0.17,0.38-0.33,0.72-0.51,1.1
		c0.16,0.03,0.26,0.04,0.36,0.04c2.89,0,5.75-0.01,8.64-0.01c0.9,0,1.24,0.33,1.27,1.24c0.01,0.72-0.03,1.46,0.01,2.18
		c0.03,0.72-0.35,1.21-0.84,1.62c-1.16,0.95-2.37,1.85-3.54,2.79c-0.06,0.04-0.1,0.09-0.2,0.16c0.07,0.07,0.13,0.16,0.2,0.22
		c1.89,1.44,3.78,2.87,5.68,4.32c0.1,0.09,0.2,0.2,0.32,0.29C225.77,89.68,225.77,89.7,225.77,89.73z M219.79,80.21
		c-0.03-0.03-0.03-0.06-0.06-0.09c-2.07,0-4.13,0-6.21,0c-0.01,0.03-0.03,0.06-0.04,0.09c1.07,0.81,2.12,1.62,3.19,2.41
		C217.73,81.8,218.76,81,219.79,80.21z"/>
	<path class="st0" d="M90.92,93.08c-1.68,0.74-3.21,1.63-4.64,2.74c-1.76,1.36-3.31,2.9-4.75,4.58c-1.5,1.72-3.32,2.76-5.62,2.96
		c-3.54,0.29-6.89-1.92-8.01-5.29c-1.24-3.73,0.42-7.84,3.97-9.52c1.16-0.55,2.48-0.77,3.74-1.07c3.87-0.92,7.51-2.35,10.57-4.97
		c1.53-1.31,2.93-2.77,4.32-4.23c1.3-1.37,2.76-2.41,4.65-2.73c4.23-0.74,8.16,1.95,9.1,6.2c0.35,1.55,0.06,3-0.42,4.46
		c-1.01,3.13-1.79,6.31-1.75,9.62c0.04,2.63,0.55,5.17,1.31,7.67c0.26,0.85,0.52,1.7,0.77,2.54c0.59,2.05,0.19,3.97-0.85,5.78
		c-1.18,2.07-3.03,3.25-5.34,3.74c-2.54,0.55-5.07,1.18-7.44,2.3c-2.18,1.03-4.16,2.35-5.89,4c-1.24,1.2-2.41,2.47-3.63,3.71
		c-2.37,2.41-5.69,3.09-8.8,1.79c-1.2-0.49-2.15-1.33-3.02-2.28c-1.7-1.92-3.48-3.76-5.6-5.23c-2.83-1.98-6.01-3.18-9.35-3.93
		c-1.3-0.29-2.61-0.51-3.81-1.13c-3.19-1.63-4.88-5.55-3.89-9c0.55-1.86,1.13-3.73,1.53-5.62c0.81-3.78,0.59-7.54-0.45-11.26
		c-0.33-1.16-0.65-2.31-1.03-3.45c-1-3.02,0.2-6.49,2.76-8.48c1.08-0.84,2.31-1.27,3.63-1.56c2.37-0.49,4.67-1.14,6.88-2.12
		c2.93-1.3,5.45-3.19,7.66-5.49c0.82-0.85,1.6-1.76,2.44-2.57c1.43-1.4,3.21-2.11,5.17-2.22c1.37-0.09,2.66,0.36,3.86,1.01
		c3.19,1.72,4.82,5.24,3.93,8.75c-0.74,2.89-2.59,4.84-5.5,5.65c-1.62,0.46-3.25,0.81-4.85,1.26c-3.73,1.07-6.96,3.03-9.74,5.73
		c-2.18,2.11-1.82,1.37-2.7,5.24c-0.9,3.96-0.59,7.88,0.46,11.77c0.26,0.95,0.69,1.73,1.4,2.44c2.53,2.5,5.32,4.62,8.68,5.86
		c1.37,0.49,2.77,0.9,4.19,1.27c0.42,0.1,0.94,0.03,1.37-0.09c3.5-0.88,6.8-2.21,9.62-4.54c1.21-1,2.34-2.11,3.47-3.19
		c0.27-0.26,0.42-0.68,0.55-1.05c0.98-3.22,1.34-6.53,1.14-9.88C90.98,93.21,90.96,93.19,90.92,93.08z"/>
	<path class="st0" d="M137.49,80.14c-6.9,0-13.74,0-20.64,0c0,0.97,0,1.89,0,2.86c0.16,0,0.3,0,0.46,0
		c5.43-0.01,10.85-0.03,16.28-0.03c0.62,0,1.26,0.03,1.89,0.03c1.03,0.03,1.98,0.95,1.98,1.99c0.03,2.98,0.01,5.95,0.03,8.93
		c0,0.04-0.03,0.07-0.04,0.17c-6.85,0-13.72,0-20.6,0c0,0.98,0,1.89,0,2.9c0.42,0,0.85,0,1.27,0c5.88,0,11.73-0.01,17.61-0.01
		c0.49,0,1-0.01,1.5,0c0.1,0,0.26,0.14,0.26,0.22c0.03,1.18,0.01,2.37,0.01,3.6c-0.19,0.01-0.33,0.03-0.49,0.03
		c-7.36,0-14.72,0-22.07,0c-0.26,0-0.52,0-0.77-0.01c-0.81-0.03-1.27-0.49-1.27-1.29c-0.01-6.34-0.01-12.69-0.01-19.02
		c0-0.98-0.03-1.95-0.01-2.92c0.01-0.75,0.55-1.27,1.29-1.27c7.05-0.01,14.08-0.03,21.13-0.03c0.62,0,1.24,0,1.85-0.01
		c0.2,0,0.36,0,0.36,0.29C137.47,77.72,137.49,78.89,137.49,80.14z M116.84,90.22c5.62,0,11.19,0,16.77,0c0-1.16,0-2.27,0-3.37
		c-5.6,0-11.18,0-16.77,0C116.84,88,116.84,89.09,116.84,90.22z"/>
	<path class="st0" d="M173.84,80.16c0,3.02,0,5.95,0,8.91c0,3.8,0,7.62,0.01,11.41c0,0.2-0.01,0.33-0.26,0.33
		c-1.16-0.01-2.31-0.01-3.48-0.03c-0.03,0-0.06-0.03-0.13-0.07c0-0.72,0-1.46,0-2.18c0-6.47,0-12.94,0-19.41
		c0-0.72,0.01-1.4,0.49-1.98c0.42-0.49,0.92-0.85,1.6-0.85c2.4-0.01,4.78-0.03,7.18-0.03c4.61-0.01,9.22-0.01,13.82-0.01
		c0.35,0,0.68,0.03,1.03,0.04c1.26,0.1,2.07,0.94,2.08,2.24c0.03,1.73,0,3.47,0,5.2c0,5.54,0,11.08,0.03,16.61
		c0,0.38-0.09,0.49-0.46,0.49c-1.11-0.03-2.24-0.01-3.41-0.01c0-0.25,0-0.46,0-0.66c0-6.54-0.01-13.09,0-19.62
		c0-0.3-0.07-0.4-0.38-0.4c-5.53,0.01-11.05,0.01-16.57,0.03C174.88,80.16,174.36,80.16,173.84,80.16z"/>
	<path class="st0" d="M168.77,100.82c-0.59,0-1.13,0-1.66,0c-0.71,0-1.4-0.03-2.11-0.01c-0.79,0.03-1.33-0.33-1.69-1.01
		c-1.21-2.24-2.44-4.46-3.65-6.7c-1.81-3.31-3.61-6.62-5.43-9.92c-0.14-0.27-0.29-0.53-0.48-0.88c-0.77,1.4-1.49,2.7-2.2,4
		c-2.38,4.38-4.8,8.75-7.14,13.16c-0.53,1-1.23,1.4-2.31,1.37c-1.11-0.04-2.22-0.01-3.41-0.01c0.2-0.36,0.39-0.65,0.56-0.97
		c2.67-4.88,5.32-9.76,7.97-14.65c1.5-2.76,3.02-5.53,4.49-8.29c0.25-0.46,0.55-0.68,1.1-0.66c1.4,0.04,2.8,0.01,4.26,0.01
		c-1.03,1.88-2.04,3.71-3.09,5.63c0.22,0,0.36,0,0.51,0c1.24-0.03,2.5-0.06,3.73-0.06c0.14,0,0.33,0.16,0.42,0.29
		c1.81,3.32,3.61,6.66,5.42,9.98c1.53,2.8,3.06,5.59,4.61,8.39C168.7,100.59,168.71,100.67,168.77,100.82z"/>
	<path class="st0" d="M174.75,81.87c1.03,0,2.04,0,3.06,0c0.25,0,0.33,0.14,0.4,0.36c0.43,1.18,0.88,2.35,1.33,3.54
		c0.03,0.09,0.12,0.14,0.25,0.3c0.14-0.35,0.23-0.62,0.35-0.88c0.39-1.01,0.78-2.02,1.2-3.02c0.06-0.13,0.26-0.27,0.4-0.27
		c0.9-0.03,1.79-0.01,2.7-0.03c0.25,0,0.39,0.07,0.48,0.33c0.43,1.17,0.88,2.33,1.33,3.48c0.04,0.1,0.1,0.2,0.2,0.36
		c0.1-0.22,0.2-0.36,0.26-0.49c0.46-1.13,0.88-2.27,1.36-3.38c0.04-0.12,0.25-0.25,0.36-0.25c1-0.03,1.99-0.01,3.02-0.01
		c-0.26,0.62-0.53,1.27-0.79,1.94c-0.82,2.05-1.66,4.1-2.47,6.17c-0.06,0.13-0.04,0.32,0.01,0.45c0.88,2.25,1.78,4.49,2.67,6.73
		c0.19,0.45,0.39,0.88,0.62,1.4c-0.22,0-0.4,0-0.59,0c-0.77,0-1.55-0.01-2.31,0.01c-0.29,0.01-0.45-0.07-0.55-0.36
		c-0.42-1.07-0.85-2.15-1.29-3.22c-0.07-0.16-0.16-0.33-0.29-0.59c-0.1,0.2-0.16,0.29-0.2,0.4c-0.45,1.13-0.9,2.25-1.33,3.39
		c-0.1,0.29-0.26,0.36-0.55,0.36c-0.85-0.01-1.69-0.01-2.54,0.01c-0.29,0.01-0.45-0.09-0.55-0.36c-0.42-1.11-0.87-2.2-1.3-3.31
		c-0.06-0.14-0.12-0.29-0.2-0.52c-0.1,0.16-0.19,0.23-0.23,0.32c-0.46,1.17-0.91,2.34-1.39,3.51c-0.06,0.14-0.23,0.33-0.36,0.33
		c-1.01,0.03-2.02,0.01-3.06,0.01c0.42-1.01,0.81-1.98,1.2-2.96c0.69-1.72,1.4-3.44,2.08-5.17c0.06-0.16,0-0.39-0.07-0.56
		c-1.05-2.63-2.11-5.24-3.18-7.87C174.77,81.96,174.77,81.9,174.75,81.87z M183.07,94.44c0.1-0.14,0.16-0.2,0.19-0.26
		c0.51-1.24,1.01-2.48,1.52-3.73c0.06-0.13,0.03-0.32-0.03-0.45c-0.46-1.17-0.94-2.33-1.4-3.48c-0.06-0.13-0.16-0.23-0.23-0.38
		c-0.09,0.1-0.13,0.13-0.16,0.19c-0.51,1.26-1.01,2.51-1.5,3.78c-0.04,0.1-0.01,0.25,0.03,0.36c0.29,0.71,0.59,1.4,0.87,2.11
		C182.55,93.14,182.8,93.74,183.07,94.44z"/>
	<path class="st0" d="M216.62,90.85c2.33,0,4.67,0,6.99,0c0.61,0,1.08,0.43,1.08,1.01c0,2.63,0,5.24-0.01,7.86
		c0,0.66-0.43,1.1-1.11,1.1c-4.64,0.01-9.27,0.01-13.91,0c-0.69,0-1.14-0.43-1.14-1.13c-0.01-2.6,0-5.21,0.01-7.81
		c0-0.58,0.51-1.03,1.07-1.03C211.96,90.85,214.29,90.85,216.62,90.85z M211.87,94.12c0,1.14,0,2.24,0,3.35c3.19,0,6.36,0,9.56,0
		c0-1.13,0-2.24,0-3.35C218.25,94.12,215.07,94.12,211.87,94.12z"/>
	<path class="st0" d="M206.28,76.28c-0.77,2.04-1.53,4.06-2.31,6.11c0.97,0,1.92,0,2.89,0c-1.11,2.96-2.24,5.95-3.37,8.97
		c1.13,0,2.21,0,3.32,0c0,1.1,0,2.15,0,3.26c-2.4,0-4.75,0-7.18,0c0-0.13,0-0.25,0-0.38c0-0.84,0-1.66,0.03-2.5
		c0.01-0.29,0.06-0.58,0.16-0.84c0.72-1.91,1.44-3.81,2.18-5.76c-0.97,0-1.91,0-2.93,0c0.14-0.36,0.27-0.68,0.39-0.98
		c0.94-2.5,1.88-5,2.8-7.5c0.12-0.33,0.27-0.43,0.62-0.42C204,76.29,205.13,76.28,206.28,76.28z"/>
	<path class="st0" d="M193.08,111.17c0.14-0.43,0.27-0.85,0.42-1.29c0.39-1.18,0.77-2.37,1.18-3.54c0.03-0.1,0.17-0.25,0.27-0.26
		c0.46-0.03,0.94-0.01,1.4-0.01c-0.39,1.18-0.77,2.34-1.16,3.5c-0.46,1.37-0.94,2.73-1.36,4.12c-0.16,0.49-0.46,0.45-0.84,0.46
		c-0.38,0.01-0.61-0.1-0.72-0.51c-0.39-1.34-0.81-2.67-1.23-4.02c-0.04-0.14-0.1-0.29-0.26-0.42c-0.14,0.49-0.26,1-0.42,1.5
		c-0.29,1-0.59,1.99-0.88,3c-0.09,0.3-0.23,0.49-0.58,0.45c-0.36-0.06-0.81,0.16-0.98-0.42c-0.68-2.15-1.37-4.29-2.08-6.44
		c-0.13-0.39-0.29-0.77-0.42-1.17c0.49,0,0.94-0.03,1.39,0.01c0.13,0.01,0.3,0.19,0.35,0.33c0.46,1.46,0.9,2.92,1.36,4.38
		c0.04,0.14,0.1,0.27,0.22,0.53c0.1-0.29,0.19-0.46,0.23-0.62c0.39-1.46,0.77-2.89,1.14-4.35c0.03-0.1,0.12-0.23,0.19-0.25
		c0.36-0.03,0.75-0.03,1.11,0c0.07,0.01,0.16,0.17,0.2,0.29c0.39,1.46,0.75,2.9,1.14,4.36c0.03,0.13,0.1,0.26,0.16,0.39
		C193.01,111.17,193.05,111.17,193.08,111.17z"/>
	<path class="st0" d="M165.49,111.32c0-0.52,0-0.97,0-1.4c0-1.17,0.01-2.35,0-3.52c0-0.23,0.06-0.33,0.32-0.32
		c0.38,0.03,0.77,0.01,1.18,0.01c0.01,0.16,0.03,0.29,0.03,0.42c0,2.41-0.01,4.81,0,7.22c0,0.33-0.1,0.39-0.42,0.43
		c-0.75,0.1-1.24-0.2-1.63-0.87c-0.88-1.49-1.85-2.93-2.79-4.38c-0.09-0.14-0.2-0.25-0.42-0.33c0.01,0.33,0.04,0.66,0.04,1
		c0.01,1.4,0,2.8,0.03,4.2c0,0.29-0.1,0.38-0.36,0.36c-0.36-0.01-0.71,0-1.11,0c0-2.7,0-5.34,0-8.01c0.53,0,1.1-0.03,1.66,0.01
		c0.1,0.01,0.23,0.19,0.32,0.32c1,1.53,1.98,3.08,2.96,4.62C165.35,111.15,165.39,111.2,165.49,111.32z"/>
	<path class="st0" d="M143.57,106.12c0.49,0,0.95,0,1.46,0c0.01,0.13,0.03,0.23,0.03,0.35c0,2.44-0.01,4.9,0,7.34
		c0,0.25-0.07,0.35-0.3,0.33c-0.22-0.01-0.43-0.03-0.64,0c-0.33,0.03-0.56-0.1-0.75-0.38c-1.01-1.59-2.05-3.16-3.08-4.75
		c-0.12-0.19-0.26-0.36-0.46-0.62c-0.03,0.2-0.03,0.29-0.03,0.38c0.01,1.66,0.03,3.35,0.06,5.01c0.01,0.29-0.09,0.38-0.36,0.36
		c-0.36-0.01-0.71,0-1.14,0c0-0.43,0-0.82,0-1.2c0-2.18,0-4.35-0.01-6.53c0-0.26,0.06-0.38,0.33-0.33c0.1,0.03,0.23,0.04,0.33,0.03
		c0.91-0.19,1.37,0.29,1.79,1.03c0.72,1.24,1.53,2.41,2.31,3.61c0.12,0.19,0.26,0.36,0.45,0.61
		C143.57,109.56,143.57,107.85,143.57,106.12z"/>
	<path class="st0" d="M206.64,110.09c0.07,2.5-2.27,4.2-4.26,4.23c-2.28,0.01-4.2-1.98-4.23-4.26c-0.03-1.99,1.79-4.23,4.45-4.1
		C204.87,106.03,206.67,107.81,206.64,110.09z M205.15,110.08c-0.01-1.5-1.26-2.74-2.77-2.74c-1.47,0.01-2.72,1.3-2.72,2.82
		c0,1.43,1.27,2.67,2.74,2.67C203.93,112.83,205.16,111.59,205.15,110.08z"/>
	<path class="st0" d="M119.61,108.48c-0.16-0.16-0.32-0.27-0.46-0.42c-1.05-0.98-2.63-0.98-3.74,0c-1.1,0.98-1.26,2.47-0.38,3.61
		c0.88,1.17,2.47,1.49,3.68,0.72c0.14-0.09,0.32-0.2,0.38-0.33c0.1-0.19,0.17-0.43,0.13-0.62c-0.03-0.1-0.33-0.2-0.49-0.2
		c-0.36-0.03-0.74-0.01-1.14-0.01c0-0.42,0-0.81,0-1.27c1,0,1.99,0,3.06,0c0,0.84,0.01,1.69-0.01,2.54c0,0.16-0.17,0.33-0.3,0.46
		c-2.3,2.31-5.82,1.52-7.16-1.56c-0.79-1.82,0.43-4.02,1.78-4.84c1.75-1.07,3.9-0.84,5.39,0.56c0.23,0.23,0.29,0.39-0.01,0.62
		C120.05,107.96,119.86,108.22,119.61,108.48z"/>
	<path class="st0" d="M209.43,106.12c1.21,0,2.37-0.03,3.51,0.01c1,0.03,1.85,0.85,2.05,1.92c0.16,0.9-0.38,1.86-1.27,2.25
		c-0.07,0.03-0.13,0.1-0.23,0.17c0.81,0.45,1.05,1.21,1.31,1.98c0.2,0.55,0.4,1.1,0.62,1.69c-0.49,0-0.97,0.03-1.42-0.01
		c-0.12-0.01-0.26-0.2-0.3-0.33c-0.17-0.49-0.29-0.98-0.46-1.47c-0.49-1.31-0.82-1.53-2.28-1.44c0,1.07,0,2.12,0,3.26
		c-0.46,0-0.88,0.03-1.31-0.03c-0.07-0.01-0.19-0.25-0.19-0.38c-0.01-2.18-0.01-4.38-0.01-6.57
		C209.43,106.81,209.43,106.46,209.43,106.12z M210.92,109.79c0.59-0.04,1.14-0.04,1.66-0.16c0.53-0.12,0.91-0.69,0.88-1.17
		c-0.03-0.52-0.43-1.14-0.88-1.21c-0.55-0.07-1.1-0.07-1.68-0.12C210.92,108.04,210.92,108.86,210.92,109.79z"/>
	<path class="st0" d="M136.01,114.12c-0.49,0-0.97,0.03-1.43-0.01c-0.13-0.01-0.29-0.19-0.35-0.33c-0.17-0.33-0.29-0.69-0.46-1.01
		c-0.09-0.14-0.29-0.29-0.43-0.3c-1.13-0.03-2.27-0.03-3.39,0c-0.13,0-0.3,0.13-0.36,0.25c-0.2,0.35-0.36,0.72-0.51,1.08
		c-0.1,0.23-0.26,0.33-0.53,0.32c-0.42-0.03-0.82-0.01-1.27-0.01c0.36-0.78,0.72-1.52,1.07-2.25c0.84-1.76,1.68-3.54,2.5-5.3
		c0.17-0.36,0.42-0.49,0.81-0.49c0.42-0.01,0.68,0.1,0.87,0.51c1.14,2.44,2.3,4.88,3.45,7.32
		C135.97,113.96,135.98,114.03,136.01,114.12z M133.02,111.22c-0.45-1-0.88-1.98-1.37-3.06c-0.49,1.07-0.92,2.04-1.39,3.06
		C131.2,111.22,132.08,111.22,133.02,111.22z"/>
	<path class="st0" d="M224.7,114.13c-0.65,0-1.2,0.03-1.76-0.01c-0.17-0.01-0.36-0.17-0.49-0.32c-0.87-0.95-1.72-1.92-2.57-2.89
		c-0.1-0.13-0.19-0.29-0.27-0.45c-0.06,0.04-0.1,0.07-0.16,0.12c0,1.16,0,2.31,0,3.54c-0.48,0-0.94,0.01-1.37-0.01
		c-0.07,0-0.16-0.2-0.16-0.32c-0.01-2.35-0.01-4.69,0-7.05c0-0.2,0-0.42,0-0.69c0.45,0,0.88-0.03,1.33,0.03
		c0.09,0.01,0.23,0.23,0.23,0.35c0,0.84-0.03,1.66-0.04,2.5c0,0.2,0,0.4,0,0.69c0.17-0.12,0.32-0.17,0.4-0.29
		c0.9-0.98,1.78-1.98,2.67-2.96c0.13-0.14,0.35-0.25,0.53-0.27c0.49-0.07,1-0.07,1.6-0.1c-1.27,1.37-2.47,2.67-3.71,4
		C222.19,111.38,223.43,112.74,224.7,114.13z"/>
	<path class="st0" d="M175.34,110.53c-1.3,0-2.5,0-3.74,0c0,0.75,0,1.49,0,2.28c1.24,0,2.5,0,3.76,0c0,0.46,0,0.85,0,1.3
		c-1.76,0-3.48,0-5.27,0c0-2.64,0-5.3,0-7.97c1.73,0,3.48,0,5.27,0c0,0.4,0,0.77,0,1.17c-1.24,0-2.5,0-3.76,0c0,0.68,0,1.29,0,1.98
		c0.16,0.01,0.33,0.03,0.49,0.03c0.95-0.01,1.92-0.01,2.87-0.03c0.3-0.01,0.42,0.09,0.39,0.39
		C175.31,109.91,175.34,110.18,175.34,110.53z"/>
	<path class="st0" d="M199.64,100.81c0-1.07-0.01-2.09,0.01-3.09c0-0.09,0.2-0.23,0.33-0.23c2.05-0.33,4.13-0.64,6.19-0.95
		c0.2-0.03,0.42-0.07,0.69-0.12c0,1.05,0.01,2.05-0.03,3.05c0,0.1-0.23,0.25-0.39,0.29c-1.33,0.23-2.67,0.45-4.02,0.66
		C201.53,100.52,200.62,100.66,199.64,100.81z"/>
	<path class="st0" d="M149.82,107.42c-0.66,0-1.27-0.03-1.89,0.01c-0.35,0.01-0.46-0.12-0.45-0.45c0.03-0.27,0-0.55,0-0.87
		c0.25,0,0.46,0,0.66,0c1.65,0,3.28,0.01,4.93,0c0.36,0,0.49,0.07,0.46,0.48c-0.07,0.81-0.04,0.82-0.88,0.82c-0.45,0-0.88,0-1.36,0
		c0,2.27,0,4.46,0,6.71c-0.51,0-1,0-1.5,0C149.82,111.9,149.82,109.7,149.82,107.42z"/>
	<path class="st0" d="M181.32,114.11c-0.52,0-1,0-1.52,0c0-2.24,0-4.45,0-6.7c-0.75,0-1.46,0-2.21,0c0-0.43,0-0.82,0-1.24
		c0.04-0.01,0.1-0.04,0.17-0.04c1.79-0.01,3.61-0.01,5.41-0.03c0.29,0,0.46,0.07,0.42,0.42c-0.03,0.27-0.01,0.55-0.01,0.88
		c-0.75,0-1.49,0-2.27,0C181.32,109.65,181.32,111.86,181.32,114.11z"/>
	<path class="st0" d="M124.9,114.12c-0.51,0-0.98,0-1.5,0c0-2.67,0-5.34,0-8.01c0.49,0,0.98,0,1.5,0
		C124.9,108.79,124.9,111.43,124.9,114.12z"/>
</g>
</svg>
