<?xml version="1.0" encoding="utf-8"?>
<!-- Generator: Adobe Illustrator 26.3.1, SVG Export Plug-In . SVG Version: 6.00 Build 0)  -->
<svg version="1.1" id="图层_1" xmlns="http://www.w3.org/2000/svg" xmlns:xlink="http://www.w3.org/1999/xlink" x="0px" y="0px"
	 viewBox="0 0 272 191" style="enable-background:new 0 0 272 191;" xml:space="preserve">
<style type="text/css">
	.st0{fill:#8E8E8E;}
	.st1{fill-rule:evenodd;clip-rule:evenodd;fill:#8E8E8E;}
</style>
<g>
	<g>
		<path class="st0" d="M209.99,81.1c0,2.13-0.31,3.56-1.14,4.52c-0.82,0.92-2.1,0.96-4.04,1.12c0.09,0.94,0.14,2.03,0.2,3.02h7.2
			c0.55,0,1.18,0.27,1.44,0.76c0.18,0.34,0.17,0.74-0.02,1.06c-0.21,0.37-0.65,0.65-1.27,0.65h-7.2c0.15,4.61,0.45,11.32-0.01,15.63
			h9.06c1.97,0,2.12,2.48,0.15,2.48h-20.67c-1.78,0-2.1-2.32,0.29-2.48h0.02h8.98c-0.76-4.92-0.49-10.66-0.38-15.63h-7.29
			c-0.59,0-1.04-0.28-1.26-0.65c-0.2-0.34-0.21-0.73-0.02-1.07c0.22-0.38,0.73-0.71,1.57-0.76h7.08c0.04-1,0.05-1.99,0.11-2.99
			c-1.24-0.12-2.36-0.03-3.23-0.65c-0.94-0.66-1.57-1.69-1.78-3.18c-0.05-0.44-0.14-1.47-0.04-2.33c0.1-0.76,0.35-1.44,0.99-1.54
			c0.37-0.06,1.04,0.18,1.28,1.01c1.25-0.19,2.53-0.3,3.8-0.3c1.3,0,2.62,0.12,3.91,0.34c0.2-0.58,0.47-1.15,1.16-1.09
			C209.83,79.14,209.99,80.25,209.99,81.1 M195.17,76.92c0.4-0.06,0.81-0.14,1.23-0.19c0.32-0.05,0.65-0.08,0.96-0.13
			c-0.08-0.09-0.15-0.2-0.25-0.29c-0.17-0.21-0.35-0.42-0.5-0.63c-0.17-0.25-0.25-0.53-0.24-0.8s0.13-0.54,0.34-0.74l0.01-0.01
			l0.01-0.01c0.21-0.21,0.46-0.32,0.73-0.36c0.27-0.04,0.55,0.02,0.82,0.15l0,0c0.27,0.15,0.84,0.7,1.34,1.26
			c0.35,0.42,0.69,0.84,0.84,1.15c0.36-0.03,0.74-0.06,1.08-0.08c0.34-0.02,0.68-0.04,1.03-0.05v-1.64c0-0.69,0.3-1.19,0.7-1.44
			c0.16-0.11,0.35-0.17,0.55-0.18h0.01c0.19-0.01,0.38,0.03,0.56,0.13c0.38,0.21,0.68,0.67,0.75,1.45v0.01
			c0.03,0.4,0.02,0.86,0.01,1.3c0,0.12-0.01,0.24-0.01,0.37c0.29,0.01,0.58,0.02,0.87,0.03c0.34,0.02,0.68,0.03,1.01,0.05
			c0.35-0.32,1.16-1.04,1.85-1.64c0.5-0.44,0.93-0.8,1.07-0.9l0.02-0.01c0.35-0.23,0.77-0.19,1.13,0.02
			c0.16,0.09,0.32,0.22,0.45,0.36c0.13,0.15,0.24,0.33,0.3,0.51c0.13,0.38,0.08,0.79-0.25,1.13c-0.29,0.26-0.59,0.53-0.89,0.79
			c0.32,0.03,0.65,0.05,0.96,0.08c0.48,0.05,0.95,0.11,1.44,0.17c0.19-0.31,0.51-0.74,0.85-1.05c0.3-0.27,0.63-0.48,0.94-0.51
			c0.27-0.03,0.54,0.06,0.71,0.28c0.15,0.19,0.22,0.45,0.22,0.71c0,0.24-0.09,0.55-0.2,0.92c-0.21,0.74-0.33,1.31-0.28,2.09
			c0.03,0.54,0.13,1.07,0.24,1.66c0.05,0.28,0.13,0.57,0.16,0.86c0.05,0.38-0.02,0.81-0.3,1.04c-0.12,0.1-0.28,0.15-0.48,0.15
			c-0.37,0-0.74-0.28-1.05-0.67c-0.45-0.55-0.84-1.31-0.96-1.64c-0.1-0.25-0.18-0.52-0.25-0.79c-0.05-0.21-0.08-0.42-0.11-0.63
			c-6-0.75-10.97-0.89-16.97,0.13c-0.02,0.25-0.06,0.48-0.12,0.72c-0.06,0.3-0.15,0.6-0.27,0.87c-0.14,0.35-0.57,1.14-1.05,1.7
			c-0.34,0.41-0.73,0.72-1.08,0.72c-0.59-0.01-0.8-0.46-0.79-0.98c0-0.54,0.21-1.22,0.35-1.69c0.05-0.18,0.09-0.33,0.11-0.41
			c0.1-0.51,0.15-0.89,0.17-1.27c0.01-0.38-0.02-0.76-0.06-1.27c-0.02-0.17-0.06-0.38-0.11-0.59c-0.08-0.38-0.16-0.79-0.14-1.13l0,0
			c0.02-0.2,0.09-0.35,0.2-0.48l0,0c0.09-0.1,0.19-0.16,0.31-0.2c0.12-0.04,0.24-0.05,0.37-0.04c0.23,0.02,0.46,0.13,0.68,0.32l0,0
			c0.19,0.17,0.41,0.43,0.6,0.69C194.91,76.5,195.06,76.72,195.17,76.92z M207.25,82.54c-1.16-0.18-2.34-0.27-3.52-0.27
			c-1.15,0-2.31,0.08-3.44,0.25c0.15,0.82,0.49,1.33,0.99,1.64c0.56,0.35,1.34,0.46,2.3,0.46c1.24,0,2.13-0.07,2.72-0.39
			C206.8,83.94,207.11,83.42,207.25,82.54z"/>
		<path class="st0" d="M180.18,77.59c1.95,0,2.13,2.48,0.15,2.48h-11.54c-0.2,0-0.37-0.02-0.54-0.06c-1.01-0.3-1.2-1.62-0.28-2.13
			c0.15-0.08,0.32-0.15,0.49-0.18c0.2-0.05,0.43-0.08,0.62-0.09L180.18,77.59L180.18,77.59z M171.56,84.17
			c-0.67,1.93-0.65,3.25-0.69,5.15c-0.05,3.13,0.04,7.59-0.36,10.73c-0.46,3.62-1.42,6.97-4.35,9.38c-0.88,0.82-1.87-0.01-1.39-0.8
			c1.01-1.45,1.95-3.93,2.41-5.65c0.96-3.71,0.98-7.95,0.98-11.96c0.01-1.81-0.17-3.32,0.46-5.03c0.24-0.65,0.54-1.3,0.82-1.81
			h-3.88c-0.05,0.85-0.08,1.73-0.13,2.61c-0.08,2.08-0.14,4.16-0.17,6.24c-0.03,2.51,0.09,5.02-0.37,7.5
			c-0.24,1.26-0.59,2.44-1.06,3.55c-0.98,2.3-1.98,3.64-3.9,5.25c-1.14,1.11-1.97-0.15-1.38-0.78c1.31-1.44,2.23-3.35,2.86-5.16
			c1.26-3.56,1.07-6.66,1.14-10.3c0.08-4.5,0.1-10.51,1.37-14.49c0.29-0.9,0.65-1.77,1.14-2.58h-1.1c-1.81,0-2.05-2.39,0.31-2.48
			h17.61c2.03,0,2.07,2.48,0.15,2.48h-14.54c-0.44,0.77-0.75,1.64-1,2.48c-0.15,0.51-0.28,1.05-0.4,1.63
			c-0.1,0.5-0.2,1.02-0.28,1.57h16.5c0.54,0,1.19,0.29,1.44,0.78c0.17,0.34,0.16,0.74-0.04,1.06c-0.22,0.36-0.65,0.64-1.26,0.64
			C178.83,84.17,175.2,84.17,171.56,84.17z M181.8,86.05c0.19,0.19,0.28,0.44,0.3,0.68c0.02,0.27-0.06,0.55-0.2,0.76
			c-0.07,0.13-0.16,0.23-0.25,0.33c-0.1,0.09-0.21,0.17-0.32,0.24c-1.14,0.67-2.32,1.27-3.48,1.91c0.99,2.41,0.95,4.42,1.44,6.95
			c0.64,3.25,1.4,6.59,3.25,9.37c0.55,0.83,1.03,1.47,1.64,2.22c0.59,0.81-0.38,1.79-1.8,0.78c-1.88-1.33-3.52-3.95-4.31-6.03
			c-0.74-1.97-1.24-4.42-1.6-6.52c-0.18-1.07-0.33-2.16-0.48-3.24c-0.45-3-0.83-4.2-2.61-6.51c-0.45-0.59-0.77-1.18-0.3-1.63
			c0.6-0.52,1.41,0.15,1.93,0.54c0.55,0.43,1.33,1.18,1.71,1.79l1.66-0.91c0.61-0.34,0.83-0.45,1.52-0.84
			c0.32-0.15,0.68-0.27,1.05-0.26C181.27,85.7,181.56,85.8,181.8,86.05z"/>
		<path class="st0" d="M140.18,74.14c-0.41,0.68-0.74,1.52-1.04,2.28h5.46c1.01,0,1.93,1.09,1.96,2.06l-0.07,11.97
			c0.02,2.05,0.05,4.28,0.34,6.48c0.5,3.85,3.42,9,5.87,11.95c0.84,1.02-0.35,1.77-0.95,1.2c-2.8-2.66-5.84-6.2-7.01-9.95
			c-0.93-2.98-1.1-6.52-1.1-9.64c0-3.81,0.05-7.62,0.07-11.44c0.01-0.13-0.05-0.15-0.12-0.15h-5.21c-0.6,1.98-0.86,3.62-0.86,5.71
			c0,3.38-0.15,6.43-0.43,9.18c-0.55,5.22-1.85,12.75-6.52,15.97c-1.49,1.1-2.41-0.08-1.7-0.84c3.62-3.14,4.97-11.07,5.44-15.79
			c0.25-2.57,0.38-5.41,0.38-8.52c0-2.23,0.32-3.63,1.14-5.71h-1.34c-0.4,0-0.88-0.05-1.24-0.22c-0.96-0.45-0.91-1.65,0.06-2.06
			c0.4-0.16,0.92-0.2,1.34-0.2h2.26c0.68-1.17,1.07-1.74,2.04-3.06C139.61,72.54,140.62,73.39,140.18,74.14"/>
	</g>
	<path class="st0" d="M215.16,115.37l0.2,2.51h-0.22c-0.21-0.63-0.47-1.09-0.8-1.41c-0.47-0.45-1.08-0.68-1.82-0.68
		c-1.01,0-1.78,0.4-2.3,1.2c-0.45,0.67-0.66,1.48-0.66,2.42c0,0.76,0.15,1.44,0.44,2.08c0.29,0.63,0.67,1.08,1.15,1.37
		c0.47,0.29,0.96,0.44,1.46,0.44c0.29,0,0.58-0.04,0.85-0.12c0.27-0.07,0.54-0.18,0.79-0.33v-2.31c0-0.4-0.03-0.66-0.09-0.79
		c-0.06-0.12-0.15-0.22-0.28-0.28c-0.13-0.06-0.35-0.1-0.67-0.1v-0.22h3.07v0.22h-0.15c-0.31,0-0.51,0.1-0.63,0.31
		c-0.08,0.15-0.12,0.43-0.12,0.85v2.44c-0.45,0.25-0.9,0.42-1.33,0.54c-0.44,0.11-0.93,0.17-1.45,0.17c-1.54,0-2.7-0.49-3.5-1.48
		c-0.6-0.74-0.9-1.59-0.9-2.55c0-0.7,0.16-1.37,0.5-2.02c0.39-0.76,0.94-1.34,1.64-1.76c0.58-0.34,1.27-0.51,2.06-0.51
		c0.29,0,0.55,0.03,0.78,0.07c0.24,0.05,0.57,0.15,1.01,0.31c0.22,0.08,0.36,0.13,0.44,0.13c0.08,0,0.14-0.04,0.19-0.1
		c0.05-0.07,0.08-0.21,0.09-0.4C214.92,115.37,215.16,115.37,215.16,115.37z M198.92,115.55h2.13l4.88,5.98v-4.6
		c0-0.49-0.05-0.8-0.16-0.92c-0.15-0.16-0.38-0.25-0.7-0.25h-0.28v-0.22h2.8v0.22h-0.28c-0.35,0-0.58,0.1-0.73,0.31
		c-0.08,0.13-0.13,0.41-0.13,0.86v6.7h-0.21l-5.24-6.41v4.91c0,0.49,0.05,0.8,0.16,0.92c0.15,0.16,0.38,0.25,0.69,0.25h0.28v0.22
		h-2.8v-0.22h0.28c0.35,0,0.59-0.1,0.74-0.31c0.08-0.13,0.13-0.42,0.13-0.85v-5.53c-0.23-0.27-0.41-0.45-0.53-0.54
		c-0.12-0.09-0.29-0.16-0.53-0.25c-0.11-0.04-0.28-0.05-0.52-0.05L198.92,115.55L198.92,115.55z M195.68,120.42l-1.34-3.21
		l-1.38,3.21H195.68z M195.87,120.85h-3.08l-0.53,1.24c-0.14,0.31-0.2,0.54-0.2,0.69c0,0.12,0.05,0.23,0.17,0.32
		c0.11,0.09,0.36,0.15,0.74,0.18v0.22h-2.52v-0.22c0.34-0.05,0.55-0.14,0.65-0.23c0.2-0.18,0.42-0.57,0.66-1.14l2.8-6.55h0.2
		l2.76,6.61c0.23,0.54,0.43,0.87,0.61,1.04c0.18,0.15,0.44,0.25,0.76,0.26v0.22h-3.13v-0.22c0.32-0.02,0.53-0.07,0.65-0.16
		c0.11-0.09,0.16-0.2,0.16-0.33c0-0.17-0.08-0.45-0.24-0.82L195.87,120.85z M190.89,115.55l0.08,1.87h-0.22
		c-0.05-0.33-0.1-0.56-0.18-0.7c-0.12-0.23-0.28-0.39-0.48-0.5c-0.21-0.11-0.46-0.16-0.79-0.16h-1.13v6.08
		c0,0.49,0.05,0.8,0.16,0.92c0.15,0.16,0.37,0.25,0.69,0.25h0.27v0.22h-3.38v-0.22h0.29c0.34,0,0.58-0.1,0.72-0.31
		c0.09-0.13,0.14-0.42,0.14-0.85v-6.08h-0.95c-0.37,0-0.64,0.03-0.79,0.08c-0.21,0.07-0.37,0.22-0.52,0.43
		c-0.15,0.21-0.23,0.5-0.25,0.85h-0.22l0.08-1.87H190.89z M172.4,115.55h2.14l4.87,5.98v-4.6c0-0.49-0.05-0.8-0.16-0.92
		c-0.15-0.16-0.37-0.25-0.69-0.25h-0.28v-0.22h2.8v0.22h-0.28c-0.34,0-0.58,0.1-0.73,0.31c-0.08,0.13-0.13,0.41-0.13,0.86v6.7h-0.21
		l-5.23-6.41v4.91c0,0.49,0.05,0.8,0.16,0.92c0.15,0.16,0.38,0.25,0.7,0.25h0.28v0.22h-2.79v-0.22h0.28c0.35,0,0.58-0.1,0.73-0.31
		c0.08-0.13,0.13-0.42,0.13-0.85v-5.53c-0.23-0.27-0.41-0.45-0.53-0.54c-0.12-0.09-0.29-0.16-0.53-0.25
		c-0.12-0.04-0.28-0.05-0.52-0.05v-0.22H172.4z M167.68,115.97v3.14h1.75c0.45,0,0.75-0.06,0.91-0.2c0.2-0.18,0.32-0.5,0.34-0.94
		h0.22v2.77h-0.22c-0.05-0.38-0.11-0.64-0.16-0.74c-0.07-0.14-0.18-0.25-0.35-0.32c-0.16-0.08-0.41-0.12-0.74-0.12h-1.75v2.63
		c0,0.35,0.02,0.56,0.05,0.65c0.04,0.07,0.08,0.14,0.16,0.18c0.08,0.05,0.23,0.06,0.45,0.06h1.34c0.45,0,0.77-0.04,0.98-0.09
		c0.2-0.06,0.4-0.19,0.58-0.37c0.25-0.25,0.49-0.61,0.74-1.1h0.25l-0.69,1.99h-6.13v-0.22h0.28c0.19,0,0.36-0.05,0.54-0.14
		c0.13-0.06,0.21-0.15,0.25-0.28c0.05-0.13,0.06-0.38,0.06-0.76v-5.18c0-0.5-0.05-0.82-0.15-0.94c-0.15-0.15-0.37-0.24-0.71-0.24
		h-0.28v-0.22h6.13l0.08,1.75h-0.23c-0.08-0.42-0.17-0.71-0.27-0.87c-0.1-0.16-0.25-0.28-0.45-0.36c-0.15-0.06-0.44-0.09-0.83-0.09
		L167.68,115.97L167.68,115.97z M158.93,119.24h3.69v-2.3c0-0.4-0.03-0.67-0.07-0.8c-0.05-0.1-0.13-0.18-0.25-0.25
		c-0.17-0.1-0.35-0.15-0.54-0.15h-0.28v-0.22h3.41v0.22h-0.28c-0.19,0-0.36,0.05-0.54,0.14c-0.13,0.06-0.21,0.15-0.25,0.28
		c-0.05,0.13-0.07,0.38-0.07,0.77v5.15c0,0.4,0.03,0.66,0.07,0.79c0.05,0.1,0.13,0.18,0.25,0.25c0.17,0.09,0.35,0.14,0.54,0.14h0.28
		v0.22h-3.41v-0.22h0.28c0.33,0,0.56-0.1,0.71-0.28c0.1-0.13,0.15-0.43,0.15-0.9v-2.43h-3.69v2.43c0,0.4,0.03,0.66,0.07,0.79
		c0.04,0.1,0.12,0.18,0.25,0.25c0.16,0.09,0.35,0.14,0.53,0.14h0.29v0.22h-3.41v-0.22h0.28c0.33,0,0.57-0.1,0.72-0.28
		c0.1-0.13,0.14-0.43,0.14-0.9v-5.15c0-0.4-0.03-0.67-0.07-0.8c-0.05-0.1-0.12-0.18-0.24-0.25c-0.17-0.1-0.35-0.15-0.55-0.15h-0.28
		v-0.22h3.41v0.22h-0.29c-0.19,0-0.36,0.05-0.53,0.14c-0.12,0.06-0.21,0.15-0.25,0.28s-0.07,0.38-0.07,0.77v2.32H158.93z
		 M155.63,115.37l0.18,2.7h-0.18c-0.25-0.81-0.59-1.39-1.04-1.75c-0.45-0.35-0.99-0.54-1.62-0.54c-0.52,0-1,0.14-1.43,0.4
		c-0.43,0.27-0.75,0.69-1,1.28c-0.25,0.59-0.36,1.32-0.36,2.19c0,0.72,0.12,1.34,0.35,1.87c0.23,0.53,0.57,0.94,1.04,1.22
		c0.46,0.28,0.99,0.43,1.58,0.43c0.52,0,0.97-0.11,1.36-0.34c0.39-0.22,0.83-0.65,1.29-1.32l0.18,0.12
		c-0.4,0.71-0.85,1.23-1.39,1.54c-0.53,0.33-1.16,0.49-1.89,0.49c-1.31,0-2.33-0.49-3.05-1.46c-0.54-0.73-0.81-1.59-0.81-2.57
		c0-0.79,0.18-1.53,0.54-2.19c0.35-0.66,0.84-1.18,1.46-1.54c0.62-0.36,1.3-0.55,2.03-0.55c0.57,0,1.14,0.14,1.69,0.42
		c0.16,0.09,0.28,0.14,0.35,0.14c0.11,0,0.19-0.04,0.27-0.11c0.1-0.11,0.17-0.25,0.22-0.44L155.63,115.37L155.63,115.37z
		 M142.76,115.77v-0.22h2.8v0.22h-0.3c-0.31,0-0.55,0.13-0.72,0.39c-0.08,0.12-0.13,0.4-0.13,0.84v3.23c0,0.8-0.07,1.42-0.24,1.85
		c-0.15,0.44-0.46,0.82-0.93,1.14c-0.46,0.32-1.09,0.47-1.89,0.47c-0.86,0-1.53-0.15-1.97-0.45c-0.45-0.3-0.77-0.71-0.95-1.22
		c-0.13-0.35-0.19-1-0.19-1.95v-3.11c0-0.49-0.06-0.81-0.2-0.96c-0.14-0.15-0.35-0.23-0.65-0.23h-0.3v-0.22h3.43v0.22h-0.3
		c-0.33,0-0.56,0.11-0.7,0.31c-0.1,0.14-0.15,0.44-0.15,0.88v3.47c0,0.31,0.03,0.66,0.08,1.06s0.15,0.71,0.31,0.94
		c0.15,0.22,0.36,0.4,0.65,0.55c0.28,0.15,0.62,0.22,1.03,0.22c0.52,0,0.98-0.11,1.39-0.35c0.41-0.23,0.69-0.52,0.84-0.87
		c0.15-0.35,0.22-0.95,0.22-1.8v-3.22c0-0.5-0.05-0.81-0.16-0.93c-0.15-0.17-0.38-0.25-0.67-0.25h-0.3V115.77z M136.68,123.29v0.22
		h-3.41v-0.22h0.28c0.33,0,0.57-0.1,0.72-0.28c0.09-0.13,0.15-0.43,0.15-0.9v-5.15c0-0.4-0.03-0.66-0.07-0.8
		c-0.04-0.1-0.12-0.18-0.25-0.25c-0.17-0.1-0.35-0.15-0.54-0.15h-0.29v-0.22h3.41v0.22h-0.28c-0.33,0-0.56,0.1-0.71,0.29
		c-0.1,0.13-0.15,0.43-0.15,0.9v5.15c0,0.4,0.03,0.66,0.07,0.79c0.04,0.1,0.12,0.18,0.25,0.25c0.16,0.09,0.35,0.14,0.54,0.14
		L136.68,123.29L136.68,123.29z M129.44,115.77v-0.22h3.41v0.22h-0.29c-0.33,0-0.56,0.1-0.71,0.29c-0.09,0.13-0.15,0.43-0.15,0.9
		v3.9c0,0.6-0.06,1.08-0.2,1.45c-0.13,0.37-0.35,0.69-0.67,0.97c-0.32,0.27-0.7,0.42-1.15,0.42c-0.36,0-0.65-0.09-0.86-0.27
		c-0.21-0.18-0.32-0.39-0.32-0.63c0-0.19,0.05-0.34,0.15-0.44c0.13-0.13,0.28-0.18,0.45-0.18c0.13,0,0.24,0.04,0.34,0.12
		c0.1,0.08,0.23,0.3,0.37,0.65c0.09,0.21,0.21,0.32,0.35,0.32c0.1,0,0.2-0.06,0.29-0.19c0.09-0.13,0.14-0.35,0.14-0.69v-5.43
		c0-0.4-0.03-0.66-0.07-0.8c-0.05-0.1-0.12-0.18-0.25-0.25c-0.16-0.1-0.34-0.15-0.53-0.15L129.44,115.77L129.44,115.77z"/>
	<path class="st0" d="M56.82,102.81c0.15,0.11,0.2,0.24,0.2,0.36c0.04,12.64,12.13,23.8,27.12,19.5
		c9.88-3.34,14.14-11.92,14.35-19.25c0.07-2.64-0.52-5.01-2-6.96c-1.11-1.45-2.74-0.28-2.55,0.88c0.27,4.11-0.96,8.46-4.33,12.1
		c-3.32,3.38-9.13,6.47-16.55,4.32C64.68,111,60.29,102.62,62.3,94.43c0.96-3.68,3.01-6.42,5.08-8.23c0.61-0.55,0.05-1.32-0.51-1.24
		C59.17,85.9,53.14,98.17,56.82,102.81"/>
	<path class="st1" d="M72.15,82.02c1.99-0.77,4.98-0.61,5.51-0.01c0.13,0.19,0.16,0.37,0.13,0.57c-0.12,0.7-6.54,4.78-8.59,4.78
		c-0.78,0-1.02,1.14-0.07,1.38c3.67,0.96,14.53-3.15,15.25-4.92c0.2-0.49,0.24-0.65,0.24-0.9c0.03-0.35,0.32-0.39,0.46-0.37
		c8.98,2.17,16.13,9.35,17.56,18.6c1.48,9.83-2.6,16.21-6.22,19.98c-1.34,1.4-2.7,2.39-3.73,3.11c-0.39,0.24-0.55,1.15,0.35,1.26
		c2.57,0.15,6.72-0.82,6.42-3.32c0-0.12,0.02-0.26,0.19-0.37c6.4-3.92,11.25-10.47,12.75-17.75c0.02-0.09,0.05-0.18,0.17-0.26
		c4.6-4.68,0.62-19.11-7.68-22.76c-0.31-0.15-0.19-0.8,0.32-0.69c4.03,0.17,6.75,1.73,8.05,2.75c0.15,0.12,0.37,0.15,0.56-0.05
		c1.24-1.57,1.55-3.64-0.14-5.19c-0.24-0.26-0.07-0.54,0.06-0.61c2.31-1.34,2.11-3.85,0.84-5.51c-0.12-0.12-0.15-0.44,0.13-0.59
		c1.8-0.85,2.78-3.13,1.88-5.4c-0.1-0.23-0.33-0.24-0.41-0.24c-7.72,0.91-15.17,5.14-20.78,8.52c-0.48,0.29-0.84,0.23-1.16-0.17
		c-1.55-2.93-6.77-5.4-10.38-1.83c-0.14,0.11-0.22,0.2-0.44,0.11c-2.31-0.96-6.84,1.08-9.02,2.32c-0.45,0.21-1.34,0.64-1.88,1.94
		c-1.36,2.07-4.12,1.63-5.6,1.83c-1.41,0.18-3.42,1.24-3.81,3.67c-0.01,0.12-0.01,0.19,0.06,0.3c0.25,0.38,0.78,0.69,1.55,0.67
		C67.15,82.72,69.92,82.88,72.15,82.02"/>
</g>
</svg>
