<?xml version="1.0" encoding="utf-8"?>
<!-- Generator: Adobe Illustrator 26.3.1, SVG Export Plug-In . SVG Version: 6.00 Build 0)  -->
<svg version="1.1" id="图层_1" xmlns="http://www.w3.org/2000/svg" xmlns:xlink="http://www.w3.org/1999/xlink" x="0px" y="0px"
	 viewBox="0 0 272 191" style="enable-background:new 0 0 272 191;" xml:space="preserve">
<style type="text/css">
	.st0{fill:#8E8E8E;}
</style>
<g>
	<g>
		<path class="st0" d="M89.11,85.34h4.27l-3.36,16.72h9.12l-0.7,3.58h-13.4L89.11,85.34z"/>
		<path class="st0" d="M113.93,85.34h5.11l2.1,20.31h-4.48l-0.54-11.01c-0.11-2-0.18-3.97-0.27-6.04h-0.13
			c-0.86,2-1.69,3.98-2.59,6.02l-4.92,11.03h-4.71L113.93,85.34z M109.35,97.32h9.29l-0.72,3.22h-9.32L109.35,97.32z"/>
		<path class="st0" d="M131.07,85.34h4.28l2.45,10.63l0.8,4.41h0.13c0.2-2.14,0.57-5.66,0.87-7.2l1.55-7.85h4.04l-4.06,20.31h-4.19
			l-2.59-10.63l-0.8-4.42h-0.13c-0.21,2.22-0.52,5.5-0.9,7.46l-1.47,7.59H127L131.07,85.34z"/>
		<path class="st0" d="M152.91,85.34h4.56c5.42,0,8.62,2.61,8.62,7.98c0,8.02-4.57,12.33-10.89,12.33h-6.35L152.91,85.34z
			 M155.1,102.22c3.7,0,6.59-2.65,6.59-8.63c0-3.38-1.77-4.81-4.36-4.81h-0.86l-2.66,13.44H155.1z"/>
		<path class="st0" d="M176.38,85.34h4.27l-3.36,16.72h9.12l-0.7,3.58h-13.4L176.38,85.34z"/>
		<path class="st0" d="M201.2,85.34h5.11l2.1,20.31h-4.48l-0.54-11.01c-0.11-2-0.18-3.97-0.27-6.04h-0.13
			c-0.86,2-1.69,3.98-2.59,6.02l-4.92,11.03h-4.71L201.2,85.34z M196.62,97.32h9.29l-0.72,3.22h-9.32L196.62,97.32z"/>
		<path class="st0" d="M218.34,85.34h4.28l2.45,10.63l0.8,4.41H226c0.2-2.14,0.57-5.66,0.87-7.2l1.55-7.85h4.04l-4.06,20.31h-4.19
			l-2.59-10.63l-0.8-4.42h-0.13c-0.21,2.22-0.52,5.5-0.9,7.46l-1.47,7.59h-4.04L218.34,85.34z"/>
		<path class="st0" d="M241,85.34h13.26l-0.7,3.58h-9.03l-0.86,4.4h7.53l-0.7,3.58h-7.53l-1.06,5.15h9.29l-0.7,3.58h-13.57
			L241,85.34z"/>
	</g>
	<g>
		<path class="st0" d="M32.17,72.89c-6.86,3.22-12.22,9.48-13.9,17.47c-1.68,7.99,0.68,15.88,5.66,21.59L32.17,72.89z"/>
		<path class="st0" d="M37.57,119.96c1.68,0.35,3.34,0.52,5,0.54l10.1-47.94c-1.51-0.65-3.11-1.17-4.79-1.52
			c-1.68-0.35-3.34-0.52-5-0.54l-10.1,47.94C34.29,119.1,35.89,119.61,37.57,119.96z"/>
		<path class="st0" d="M53.28,118.13c6.86-3.22,12.22-9.48,13.9-17.47c1.68-7.99-0.68-15.88-5.66-21.59L53.28,118.13z"/>
	</g>
</g>
</svg>
