<?xml version="1.0" encoding="utf-8"?>
<!-- Generator: Adobe Illustrator 26.3.1, SVG Export Plug-In . SVG Version: 6.00 Build 0)  -->
<svg version="1.1" id="图层_1" xmlns="http://www.w3.org/2000/svg" xmlns:xlink="http://www.w3.org/1999/xlink" x="0px" y="0px"
	 viewBox="0 0 272 191" style="enable-background:new 0 0 272 191;" xml:space="preserve">
<style type="text/css">
	.st0{fill:#8E8E8E;}
</style>
<g>
	<path class="st0" d="M74.48,86.48l-3.52,2.08c-0.66-1.15-1.29-1.89-1.89-2.24c-0.62-0.4-1.43-0.6-2.4-0.6
		c-1.21,0-2.2,0.34-3.01,1.03c-0.79,0.67-1.19,1.52-1.19,2.54c0,1.41,1.05,2.54,3.13,3.39l2.87,1.17c2.34,0.95,4.04,2.09,5.13,3.46
		c1.08,1.36,1.62,3.03,1.62,5.01c0,2.64-0.88,4.84-2.64,6.56c-1.78,1.74-3.98,2.61-6.61,2.61c-2.5,0-4.56-0.74-6.19-2.22
		c-1.61-1.48-2.61-3.56-3.01-6.24l4.39-0.97c0.2,1.69,0.55,2.86,1.05,3.5c0.89,1.25,2.2,1.87,3.92,1.87c1.35,0,2.48-0.45,3.38-1.36
		s1.34-2.06,1.34-3.45c0-0.56-0.08-1.07-0.23-1.53c-0.15-0.46-0.4-0.89-0.73-1.29c-0.32-0.39-0.76-0.76-1.27-1.1
		c-0.52-0.34-1.15-0.67-1.87-0.97l-2.78-1.16c-3.94-1.67-5.91-4.1-5.91-7.31c0-2.17,0.83-3.97,2.48-5.42
		c1.65-1.46,3.71-2.2,6.17-2.2C70.03,81.64,72.62,83.25,74.48,86.48z"/>
	<path class="st0" d="M96.2,102.89H83.19c0.11,1.49,0.6,2.68,1.45,3.56c0.86,0.87,1.96,1.31,3.3,1.31c1.05,0,1.9-0.25,2.59-0.75
		c0.67-0.5,1.43-1.42,2.29-2.76l3.54,1.98c-0.55,0.93-1.13,1.73-1.73,2.39c-0.6,0.67-1.26,1.21-1.96,1.64
		c-0.69,0.43-1.44,0.74-2.26,0.94c-0.81,0.2-1.69,0.3-2.63,0.3c-2.71,0-4.88-0.87-6.52-2.61c-1.64-1.75-2.46-4.08-2.46-6.98
		c0-2.87,0.79-5.2,2.38-6.98c1.61-1.75,3.73-2.63,6.37-2.63c2.67,0,4.78,0.85,6.34,2.55c1.54,1.69,2.31,4.03,2.31,7.03L96.2,102.89z
		 M91.89,99.46c-0.59-2.24-1.99-3.36-4.23-3.36c-0.51,0-0.98,0.08-1.43,0.23c-0.45,0.15-0.86,0.38-1.22,0.67
		c-0.37,0.29-0.68,0.64-0.94,1.06s-0.46,0.88-0.6,1.4H91.89z"/>
	<path class="st0" d="M105.45,96.74v14.24h-4.2V96.74h-1.79v-3.92h1.79v-6.65h4.2v6.65h3.26v3.92
		C108.71,96.74,105.45,96.74,105.45,96.74z"/>
	<path class="st0" d="M135.42,86.48l-3.52,2.08c-0.66-1.15-1.29-1.89-1.89-2.24c-0.62-0.4-1.43-0.6-2.4-0.6
		c-1.21,0-2.2,0.34-3.01,1.03c-0.79,0.67-1.19,1.52-1.19,2.54c0,1.41,1.05,2.54,3.13,3.39l2.87,1.17c2.34,0.95,4.04,2.09,5.13,3.46
		s1.62,3.03,1.62,5.01c0,2.64-0.88,4.84-2.64,6.56c-1.78,1.74-3.98,2.61-6.61,2.61c-2.5,0-4.56-0.74-6.19-2.22
		c-1.61-1.48-2.61-3.56-3.01-6.24l4.39-0.97c0.2,1.69,0.55,2.86,1.05,3.5c0.89,1.25,2.2,1.87,3.92,1.87c1.35,0,2.48-0.45,3.38-1.36
		c0.89-0.91,1.34-2.06,1.34-3.45c0-0.56-0.08-1.07-0.23-1.53c-0.15-0.46-0.4-0.89-0.73-1.29c-0.32-0.39-0.76-0.76-1.27-1.1
		c-0.52-0.34-1.15-0.67-1.87-0.97l-2.78-1.16c-3.94-1.67-5.91-4.1-5.91-7.31c0-2.17,0.83-3.97,2.48-5.42
		c1.65-1.46,3.71-2.2,6.17-2.2C130.96,81.64,133.55,83.25,135.42,86.48z"/>
	<path class="st0" d="M140.6,79.5h4.2v14.84c1.49-1.34,3.14-2.01,4.94-2.01c2.05,0,3.69,0.67,4.92,1.99
		c1.05,1.16,1.57,3.01,1.57,5.54v11.13h-4.2v-10.74c0-1.45-0.26-2.51-0.78-3.16c-0.51-0.65-1.34-0.97-2.49-0.97
		c-1.46,0-2.5,0.45-3.1,1.36c-0.59,0.92-0.88,2.5-0.88,4.74v8.78h-4.2L140.6,79.5L140.6,79.5z"/>
	<path class="st0" d="M160.68,101.77c0-2.63,0.94-4.86,2.82-6.7s4.16-2.76,6.86-2.76c2.71,0,5.01,0.93,6.89,2.78
		c1.87,1.85,2.8,4.12,2.8,6.82c0,2.73-0.94,5-2.82,6.84c-1.89,1.82-4.21,2.74-6.95,2.74c-2.73,0-5-0.93-6.84-2.8
		C161.6,106.87,160.68,104.56,160.68,101.77z M164.96,101.84c0,1.81,0.49,3.25,1.45,4.3c0.99,1.06,2.3,1.61,3.93,1.61
		c1.64,0,2.95-0.53,3.93-1.59c0.98-1.06,1.47-2.46,1.47-4.23s-0.49-3.18-1.47-4.23c-0.99-1.06-2.3-1.61-3.93-1.61
		c-1.61,0-2.91,0.53-3.9,1.61C165.46,98.78,164.96,100.16,164.96,101.84z"/>
	<path class="st0" d="M183.63,101.77c0-2.63,0.94-4.86,2.82-6.7c1.88-1.84,4.16-2.76,6.86-2.76c2.71,0,5.01,0.93,6.89,2.78
		c1.87,1.85,2.8,4.12,2.8,6.82c0,2.73-0.94,5-2.82,6.84c-1.89,1.82-4.21,2.74-6.95,2.74c-2.73,0-5-0.93-6.84-2.8
		C184.54,106.87,183.63,104.56,183.63,101.77z M187.91,101.84c0,1.81,0.49,3.25,1.45,4.3c0.99,1.06,2.3,1.61,3.93,1.61
		c1.64,0,2.95-0.53,3.93-1.59c0.98-1.06,1.47-2.46,1.47-4.23s-0.49-3.18-1.47-4.23c-0.99-1.06-2.3-1.61-3.93-1.61
		c-1.61,0-2.91,0.53-3.9,1.61C188.41,98.78,187.91,100.16,187.91,101.84z"/>
	<path class="st0" d="M211.97,96.74v14.24h-4.2V96.74h-1.79v-3.92h1.79v-6.65h4.2v6.65h3.26v3.92
		C215.23,96.74,211.97,96.74,211.97,96.74z"/>
</g>
</svg>
