<?xml version="1.0" encoding="utf-8"?>
<!-- Generator: Adobe Illustrator 24.0.1, SVG Export Plug-In . SVG Version: 6.00 Build 0)  -->
<svg version="1.1" id="Layer_1" xmlns="http://www.w3.org/2000/svg" xmlns:xlink="http://www.w3.org/1999/xlink" x="0px" y="0px"
	 viewBox="0 0 404.8 80" style="enable-background:new 0 0 404.8 80;" xml:space="preserve">
<style type="text/css">
	.st0{fill:#FFFFFF;}
</style>
<g>
	<path class="st0" d="M87.8,21.8v6.6c0,0.3-0.3,0.5-0.5,0.5H73.6c-0.3,0-0.5,0.3-0.5,0.5v6.5c0,0.3,0.3,0.5,0.5,0.5h13.3
		c0.3,0,0.5,0.3,0.5,0.5v6.6c0,0.3-0.3,0.5-0.5,0.5H73.6c-0.3,0-0.5,0.3-0.5,0.5v13.7c0,0.3-0.3,0.5-0.5,0.5h-7
		c-0.3,0-0.5-0.3-0.5-0.5V21.7c0-0.3,0.3-0.5,0.5-0.5h21.9C87.7,21.3,87.8,21.5,87.8,21.8z"/>
	<path class="st0" d="M113.6,31.2h6.6c0.3,0,0.5,0.3,0.5,0.5v25.7c0,0.3-0.3,0.5-0.5,0.5h-6.6c-0.3,0-0.5-0.3-0.5-0.5v-1.6
		c-1.2,0.9-2.5,1.6-3.9,2.1c-1.4,0.4-2.8,0.7-4.3,0.7c-2.7,0-5.2-0.6-7.2-1.8c-2-1.2-3.6-2.9-4.6-5c-1-2.1-1.7-4.6-1.7-7.2
		c0-2.7,0.5-5.1,1.7-7.3c1-2.2,2.6-3.9,4.6-5c2-1.2,4.4-1.8,7.2-1.8c1.5,0,2.9,0.3,4.3,0.7c1.4,0.4,2.6,1.2,3.9,2.1v-1.7
		C113,31.4,113.3,31.2,113.6,31.2z M110.9,49.5c1.4-1.3,2-2.9,2-5c0-1.9-0.6-3.6-2-4.8c-1.4-1.3-3-1.9-5-1.9c-2,0-3.7,0.6-4.9,1.9
		c-1.3,1.3-1.9,2.9-1.9,4.9c0,2,0.6,3.7,1.9,4.9c1.3,1.3,2.9,1.9,4.9,1.9C107.9,51.5,109.7,50.8,110.9,49.5z"/>
	<path class="st0" d="M150.2,52.3c0.3,0.2,0.3,0.5,0.1,0.7c-1.3,1.7-2.8,2.9-4.6,3.9c-2,1-4.2,1.7-6.5,1.7c-2.5,0-4.9-0.6-7.1-1.9
		c-2.2-1.3-3.9-3-5.1-5.2c-1.3-2.2-1.9-4.6-1.9-7c0-2.5,0.6-4.9,1.9-7.1c1.3-2.2,3-3.9,5.1-5.1c2.2-1.3,4.6-1.9,7.1-1.9
		c2.3,0,4.5,0.5,6.5,1.7c1.8,1,3.3,2.3,4.6,3.9c0.2,0.3,0.1,0.5-0.1,0.7l-5.4,3.7c-0.2,0.1-0.4,0.1-0.6-0.1c-1.5-1.5-3-2.2-4.8-2.2
		c-1.8,0-3.2,0.6-4.6,1.9c-1.3,1.3-1.9,2.8-1.9,4.6s0.6,3.2,1.9,4.6c1.3,1.3,2.8,1.9,4.6,1.9s3.3-0.7,4.8-2.2
		c0.2-0.2,0.4-0.2,0.6-0.1L150.2,52.3z"/>
	<path class="st0" d="M165.9,51c0.5,0.3,1.4,0.5,2.5,0.5c0.5,0,1.2,0,1.8-0.1c0.3,0,0.5,0.2,0.5,0.5v6c0,0.3-0.2,0.4-0.4,0.5
		c-1.6,0.2-2.9,0.2-3.9,0.2c-3,0-5.2-0.6-6.8-2c-1.5-1.4-2.2-3.8-2.2-7.3V39c0-0.3-0.3-0.5-0.5-0.5h-3.6c-0.3,0-0.5-0.3-0.5-0.5
		v-5.8c0-0.3,0.3-0.5,0.5-0.5h3.6c0.3,0,0.5-0.3,0.5-0.5v-5.3c0-0.2,0.2-0.4,0.3-0.4l6.7-2.2c0.3-0.1,0.6,0.1,0.6,0.4v7.5
		c0,0.3,0.3,0.5,0.5,0.5h4.6c0.3,0,0.5,0.3,0.5,0.5V38c0,0.3-0.3,0.5-0.5,0.5h-4.6c-0.3,0-0.5,0.3-0.5,0.5V49
		C165,49.9,165.4,50.7,165.9,51z"/>
	<path class="st0" d="M181.3,56.8c-2.2-1.3-3.9-3-5.1-5.2c-1.3-2.2-1.9-4.6-1.9-7c0-2.5,0.6-4.9,1.9-7.1c1.3-2.2,3-3.9,5.1-5.1
		c2.2-1.3,4.6-1.9,7.1-1.9s4.8,0.6,7,1.9c2.2,1.3,3.9,3,5.1,5.1c1.3,2.2,1.9,4.6,1.9,7.1c0,2.5-0.6,4.9-1.9,7
		c-1.3,2.2-3,3.9-5.1,5.2c-2.2,1.3-4.5,1.9-7,1.9C185.8,58.6,183.4,58,181.3,56.8z M192.9,49.2c1.3-1.3,1.9-2.8,1.9-4.6
		s-0.6-3.2-1.9-4.6c-1.3-1.3-2.8-1.9-4.6-1.9s-3.2,0.6-4.6,1.9c-1.2,1.3-1.8,2.7-1.9,4.4c-0.1,1.8,0.7,3.7,2,4.9
		c1.3,1.2,2.7,1.8,4.5,1.8C190.1,51,191.6,50.5,192.9,49.2z"/>
</g>
</svg>
