<?xml version="1.0" encoding="UTF-8"?>
<svg width="341px" height="341px" viewBox="0 0 341 341" version="1.1" xmlns="http://www.w3.org/2000/svg" xmlns:xlink="http://www.w3.org/1999/xlink">
    <!-- Generator: Sketch 49.2 (51160) - http://www.bohemiancoding.com/sketch -->
    <title>man copy 5</title>
    <desc>Created with Sketch.</desc>
    <defs>
        <circle id="path-1" cx="169.5" cy="169.5" r="169.5"></circle>
    </defs>
    <g id="DESIGN" stroke="none" stroke-width="1" fill="none" fill-rule="evenodd">
        <g id="popup_dark_bg" transform="translate(-970.000000, -583.000000)">
            <g id="Group-3" transform="translate(931.000000, 199.000000)">
                <g id="Group">
                    <g id="man-copy-5" transform="translate(40.000000, 385.000000)">
                        <mask id="mask-2" fill="white">
                            <use xlink:href="#path-1"></use>
                        </mask>
                        <use id="Mask" stroke="#161616" stroke-width="2" fill="#FFFFFF" xlink:href="#path-1"></use>
                        <g id="man" mask="url(#mask-2)">
                            <g transform="translate(-624.000000, -109.000000)" id="man_grey">
                                <g>
                                    <path d="M794.923478,238.579238 C808.270595,238.579238 820.354141,232.726645 831.174118,221.021458 C820.354141,209.316272 808.270595,203.463679 794.923478,203.463679 C781.576361,203.463679 769.492814,209.316272 758.672838,221.021458 C769.492814,232.726645 781.576361,238.579238 794.923478,238.579238 Z" id="Oval-3" stroke="#2E2E2E" stroke-width="2" stroke-linecap="round" stroke-linejoin="round"></path>
                                    <ellipse id="Oval-6-Copy" fill="#2E2E2E" cx="794.923478" cy="221.152637" rx="9.3365773" ry="9.49532783"></ellipse>
                                    <path d="M626.011368,838.854772 C601.583619,656.273877 578.381763,512.99457 631.459517,467.388295 C681.095434,424.739368 756.690797,439.93644 785.196555,442.499875 C807.681849,444.521909 823.382519,435.381159 829.011554,419.066303" id="Path" stroke="#2E2E2E" stroke-width="2" stroke-linecap="round" stroke-linejoin="round"></path>
                                    <path d="M831.275802,393.245854 C831.27272,374.786687 832.023128,363.865955 841.58826,363.865955 C852.960862,363.865955 893.234821,375.683176 896.665678,357.568192 C900.096536,339.453209 870.281773,252.502718 870.281773,232.180559 C870.281773,211.858401 879.347668,182.637397 867.429044,146.68384 C855.510419,110.730283 819.295202,89.1616838 776.667751,98.0172133 C734.0403,106.872743 715.442497,142.727074 718.183269,174.999996 C720.924042,207.272919 736.320597,245.440803 723.392065,248.832867 C710.463533,252.224932 702.691004,219.335226 678.383928,219.335226 C654.076851,219.335226 642.074336,248.081066 661.78343,264.749992 C665.877658,268.212676 668.646017,269.89432 670.065593,273.973171" id="Path" stroke="#2E2E2E" stroke-width="2" stroke-linecap="round" stroke-linejoin="round"></path>
                                    <path d="M684.196928,292.717573 C697.385938,296.277946 699.458648,363.605256 723.392065,411.294979 C747.325482,458.984703 785.196555,492.359807 828.079421,492.359807 C870.962287,492.359807 948.963635,425.563445 955.494369,277.582015 C962.025104,129.600585 905.810437,-18.2742435 756.686813,1.84488506 C607.56319,21.9640136 614.055293,180.480021 496.363425,261.113597 C391.597721,332.891141 166.787128,346.338575 0.0347249123,396.443054" id="Path" stroke="#2E2E2E" stroke-width="2" stroke-linecap="round" stroke-linejoin="round"></path>
                                    <path d="M700.664971,258.202638 C695.960377,258.202638 692.146551,262.031352 692.146551,266.75431 C692.146551,271.3117 696.7755,274.073457 698.319686,279.428711 C699.863873,284.783965 693.864328,293.801318 682.785711,292.316905" id="Path" stroke="#2E2E2E" stroke-width="2" stroke-linecap="round" stroke-linejoin="round"></path>
                                    <path d="M669.377346,258.202638 C664.706765,255.537132 661.558947,250.514791 661.558947,244.758306 C661.558947,236.212051 668.497144,229.283943 677.055844,229.283943" id="Combined-Shape-Copy" stroke="#2E2E2E" stroke-width="2" stroke-linecap="round" stroke-linejoin="round"></path>
                                    <path d="M683.990479,292.641046 C677.950579,291.495458 674.408591,286.301504 672.830771,281.898782 C671.038434,276.897476 670.501444,274.987953 670.192464,274.282939" id="Combined-Shape" stroke="#2E2E2E" stroke-width="2" stroke-linecap="round" stroke-linejoin="round"></path>
                                    <path d="M830.991693,220.845548 C819.741241,214.100265 807.736759,211.726163 794.978249,211.726163 C782.109307,211.726163 770.007503,214.158901 758.672838,221.021458" id="Oval-3" stroke="#2E2E2E" stroke-width="2" stroke-linecap="round" stroke-linejoin="round"></path>
                                    <path d="M824.206848,387.36694 L830.764616,393.924709 L837.385051,387.304274 C847.046395,388.868225 855.929962,394.034674 864.035753,402.80362 C854.170481,413.475996 843.153129,418.812184 830.983699,418.812184 C818.814269,418.812184 807.796918,413.475996 797.931645,402.80362 C805.932313,394.148397 814.690713,389.002838 824.206848,387.36694 Z" id="Combined-Shape-Copy-2" stroke="#2E2E2E" stroke-width="2" stroke-linecap="round" stroke-linejoin="round"></path>
                                    <path d="M800.66561,400.383852 C810.261079,402.827585 820.314129,404.126485 830.670646,404.126485 C840.941384,404.126485 850.91366,402.849012 860.43716,400.444338" id="Oval-4-Copy-2" stroke="#2E2E2E" stroke-width="2" stroke-linecap="round" stroke-linejoin="round"></path>
                                </g>
                            </g>
                        </g>
                    </g>
                </g>
            </g>
        </g>
    </g>
</svg>