<svg width="543" height="543" viewBox="0 0 543 543" fill="none" xmlns="http://www.w3.org/2000/svg">
<path d="M271.659 526.352C412.391 526.352 526.476 412.267 526.476 271.535C526.476 130.804 412.391 16.7181 271.659 16.7181C130.927 16.7181 16.8418 130.804 16.8418 271.535C16.8418 412.267 130.927 526.352 271.659 526.352Z" fill="black"/>
<path d="M271.659 526.352C412.391 526.352 526.476 412.267 526.476 271.535C526.476 130.804 412.391 16.7181 271.659 16.7181C130.927 16.7181 16.8418 130.804 16.8418 271.535C16.8418 412.267 130.927 526.352 271.659 526.352Z" stroke="black" stroke-width="1.52039" stroke-miterlimit="10" stroke-linecap="round" stroke-linejoin="round"/>
<path d="M271.659 496.553C395.933 496.553 496.677 395.809 496.677 271.535C496.677 147.261 395.933 46.5175 271.659 46.5175C147.385 46.5175 46.6416 147.261 46.6416 271.535C46.6416 395.809 147.385 496.553 271.659 496.553Z" fill="white"/>
<path d="M271.659 496.553C395.933 496.553 496.677 395.809 496.677 271.535C496.677 147.261 395.933 46.5175 271.659 46.5175C147.385 46.5175 46.6416 147.261 46.6416 271.535C46.6416 395.809 147.385 496.553 271.659 496.553Z" stroke="black" stroke-width="1.52039" stroke-miterlimit="10" stroke-linecap="round" stroke-linejoin="round"/>
<path d="M71.4246 168.909C69.4481 172.862 69.7522 177.879 71.1205 180.16C72.3368 182.441 75.3776 186.09 75.3776 186.09C75.3776 186.09 69.9042 185.785 67.3196 187.154C64.7349 188.674 60.7819 192.171 60.7819 192.171L71.4246 168.909Z" fill="black"/>
<path d="M84.1951 396.359L86.1716 397.271C86.1716 397.271 90.1246 399.552 92.2532 399.704C94.3817 399.856 99.7031 398.792 99.7031 398.792C99.7031 398.792 96.8143 402.593 96.6623 405.482C96.3582 408.37 97.7266 413.692 97.7266 413.692L91.1889 405.938L84.1951 396.359Z" fill="black"/>
<path d="M105.025 422.662H111.562L113.235 426.767L116.732 429.2H120.989V439.234L105.025 422.662Z" fill="black"/>
<path d="M297.05 495.489L287.319 496.097C287.319 496.097 291.728 493.208 292.945 491.079C294.161 488.951 295.834 484.846 295.834 484.846C295.834 484.846 297.202 489.103 301.003 491.079C304.804 493.056 307.693 494.272 307.693 494.272L297.05 495.489Z" fill="black"/>
<path d="M467.638 382.22L466.117 375.53L469.918 370.057L468.854 364.431L470.982 360.478L468.55 357.894L470.982 356.981C470.982 356.981 476.304 356.221 477.976 354.853C479.801 353.484 482.689 350.292 482.689 350.292L474.327 369.297L467.638 382.22Z" fill="black"/>
<path d="M452.433 137.133L444.983 127.859C444.983 127.859 447.72 133.18 446.96 136.373C446.2 139.718 443.919 144.127 443.919 144.127C443.919 144.127 447.568 143.366 451.217 143.366C454.866 143.366 459.123 146.863 459.123 146.863L452.433 137.133Z" fill="black"/>
<path d="M154.133 79.662L162.343 80.2702L164.623 77.3814L167.816 75.1008L174.962 73.5805L177.699 69.6274L178.307 66.7387" stroke="black" stroke-width="1.52039" stroke-miterlimit="10" stroke-linecap="round" stroke-linejoin="round"/>
<path d="M71.1194 169.517C67.9266 176.359 71.1194 184.265 78.1132 187.306C71.1194 184.265 63.2134 187.61 60.3246 194.603" stroke="black" stroke-width="1.52039" stroke-miterlimit="10" stroke-linecap="round" stroke-linejoin="round"/>
<path d="M82.6746 393.622L82.9787 393.927C87.2358 400.16 95.902 401.528 101.984 397.119C95.902 401.68 94.6857 410.195 99.3989 416.276L99.703 416.58" stroke="black" stroke-width="1.52039" stroke-miterlimit="10" stroke-linecap="round" stroke-linejoin="round"/>
<path d="M282.606 496.249H283.366C290.816 495.792 296.441 488.951 295.529 481.501V481.653C296.441 489.103 303.283 494.272 310.733 493.208H311.189" stroke="black" stroke-width="1.52039" stroke-miterlimit="10" stroke-linecap="round" stroke-linejoin="round"/>
<path d="M471.895 374.314L472.047 373.858C475.24 367.016 472.199 358.958 465.357 355.765L465.205 355.613C472.199 358.654 480.257 355.461 483.146 348.315V348.163" stroke="black" stroke-width="1.52039" stroke-miterlimit="10" stroke-linecap="round" stroke-linejoin="round"/>
<path d="M460.644 149.296L460.492 148.992C456.235 142.758 447.568 141.39 441.487 145.799C447.568 141.238 448.785 132.724 444.071 126.794L443.919 126.49" stroke="black" stroke-width="1.52039" stroke-miterlimit="10" stroke-linecap="round" stroke-linejoin="round"/>
<path d="M438.75 120.713L434.493 123.449L436.622 129.379L430.236 136.373V142.302L437.078 142.91L438.294 148.232" stroke="black" stroke-width="1.52039" stroke-miterlimit="10" stroke-linecap="round" stroke-linejoin="round"/>
<path d="M437.077 142.91L438.75 140.629" stroke="black" stroke-width="1.52039" stroke-miterlimit="10" stroke-linecap="round" stroke-linejoin="round"/>
<path d="M430.235 136.373L425.066 135.156" stroke="black" stroke-width="1.52039" stroke-miterlimit="10" stroke-linecap="round" stroke-linejoin="round"/>
<path d="M434.493 123.449L430.692 122.689L427.651 124.818" stroke="black" stroke-width="1.52039" stroke-miterlimit="10" stroke-linecap="round" stroke-linejoin="round"/>
<path d="M105.025 422.662H111.562L113.235 426.767L116.732 429.2H120.989L120.989 438.778" stroke="black" stroke-width="1.52039" stroke-miterlimit="10" stroke-linecap="round" stroke-linejoin="round"/>
<path d="M111.562 422.662L112.475 420.533" stroke="black" stroke-width="1.52039" stroke-miterlimit="10" stroke-linecap="round" stroke-linejoin="round"/>
<path d="M470.982 360.478L468.853 364.279L469.917 370.056L466.117 375.378L467.637 382.219" stroke="black" stroke-width="1.52039" stroke-miterlimit="10" stroke-linecap="round" stroke-linejoin="round"/>
<path d="M246.269 47.8859L297.05 495.032" stroke="black" stroke-width="1.52039" stroke-miterlimit="10" stroke-linecap="round" stroke-linejoin="round"/>
<path d="M65.3426 181.832L477.976 361.238" stroke="black" stroke-width="1.52039" stroke-miterlimit="10" stroke-linecap="round" stroke-linejoin="round"/>
<path d="M90.7329 405.329L452.585 137.741" stroke="black" stroke-width="1.52039" stroke-miterlimit="10" stroke-linecap="round" stroke-linejoin="round"/>
<path d="M271.66 342.993C311.125 342.993 343.118 311 343.118 271.535C343.118 232.069 311.125 200.077 271.66 200.077C232.195 200.077 200.202 232.069 200.202 271.535C200.202 311 232.195 342.993 271.66 342.993Z" fill="black"/>
<path d="M271.66 339.192C309.026 339.192 339.317 308.901 339.317 271.535C339.317 234.169 309.026 203.878 271.66 203.878C234.293 203.878 204.002 234.169 204.002 271.535C204.002 308.901 234.293 339.192 271.66 339.192Z" fill="white"/>
<path d="M271.812 285.218C279.285 285.218 285.343 279.092 285.343 271.535C285.343 263.978 279.285 257.851 271.812 257.851C264.339 257.851 258.28 263.978 258.28 271.535C258.28 279.092 264.339 285.218 271.812 285.218Z" fill="black"/>
<path d="M271.66 281.417C277.118 281.417 281.542 276.993 281.542 271.535C281.542 266.077 277.118 261.652 271.66 261.652C266.202 261.652 261.777 266.077 261.777 271.535C261.777 276.993 266.202 281.417 271.66 281.417Z" fill="white" stroke="black" stroke-width="1.52039" stroke-miterlimit="10" stroke-linecap="round" stroke-linejoin="round"/>
<path d="M271.66 342.993C311.125 342.993 343.118 311 343.118 271.535C343.118 232.069 311.125 200.077 271.66 200.077C232.195 200.077 200.202 232.069 200.202 271.535C200.202 311 232.195 342.993 271.66 342.993Z" stroke="black" stroke-width="1.52039" stroke-miterlimit="10" stroke-linecap="round" stroke-linejoin="round"/>
<path d="M271.66 339.192C309.026 339.192 339.317 308.901 339.317 271.535C339.317 234.169 309.026 203.878 271.66 203.878C234.293 203.878 204.002 234.169 204.002 271.535C204.002 308.901 234.293 339.192 271.66 339.192Z" stroke="black" stroke-width="1.52039" stroke-miterlimit="10" stroke-linecap="round" stroke-linejoin="round"/>
<path d="M271.659 314.866C295.59 314.866 314.99 295.466 314.99 271.535C314.99 247.604 295.59 228.204 271.659 228.204C247.728 228.204 228.328 247.604 228.328 271.535C228.328 295.466 247.728 314.866 271.659 314.866Z" stroke="black" stroke-width="1.52039" stroke-miterlimit="10" stroke-linecap="round" stroke-linejoin="round"/>
<path d="M261.777 233.525C252.351 235.958 244.293 241.887 239.123 249.641" stroke="black" stroke-width="1.52039" stroke-miterlimit="10" stroke-linecap="round" stroke-linejoin="round"/>
<path d="M234.258 259.676C233.042 263.477 232.433 267.43 232.433 271.535C232.433 276.4 233.346 280.961 234.866 285.218" stroke="black" stroke-width="1.52039" stroke-miterlimit="10" stroke-linecap="round" stroke-linejoin="round"/>
<path d="M287.319 307.416C296.745 303.311 304.347 295.557 308.148 285.827" stroke="black" stroke-width="1.52039" stroke-miterlimit="10" stroke-linecap="round" stroke-linejoin="round"/>
<path d="M310.885 271.535C310.885 266.67 309.973 262.108 308.453 257.851C305.26 249.185 299.026 242.039 291.12 237.478" stroke="black" stroke-width="1.52039" stroke-miterlimit="10" stroke-linecap="round" stroke-linejoin="round"/>
<path d="M271.66 285.218C279.217 285.218 285.343 279.092 285.343 271.535C285.343 263.978 279.217 257.851 271.66 257.851C264.103 257.851 257.976 263.978 257.976 271.535C257.976 279.092 264.103 285.218 271.66 285.218Z" stroke="black" stroke-width="1.52039" stroke-miterlimit="10" stroke-linecap="round" stroke-linejoin="round"/>
<path d="M269.379 275.488L273.94 267.582" stroke="black" stroke-width="1.52039" stroke-miterlimit="10" stroke-linecap="round" stroke-linejoin="round"/>
<path d="M275.613 273.815L267.707 269.254" stroke="black" stroke-width="1.52039" stroke-miterlimit="10" stroke-linecap="round" stroke-linejoin="round"/>
<path d="M230.609 230.332C219.966 240.823 213.428 255.419 213.428 271.535C213.428 274.576 213.732 277.768 214.189 280.657" stroke="black" stroke-width="1.52039" stroke-miterlimit="10" stroke-linecap="round" stroke-linejoin="round"/>
<path d="M254.935 329.766C260.257 331.286 265.882 332.046 271.66 332.046C274.396 332.046 277.133 331.894 279.87 331.438" stroke="black" stroke-width="1.52039" stroke-miterlimit="10" stroke-linecap="round" stroke-linejoin="round"/>
<path d="M329.891 254.507C326.09 241.279 317.88 230.028 306.933 222.122" stroke="black" stroke-width="1.52039" stroke-miterlimit="10" stroke-linecap="round" stroke-linejoin="round"/>
<path d="M188.95 129.683C187.734 128.163 184.541 127.25 180.284 129.987C175.875 132.724 173.138 135.917 172.682 137.285C172.074 138.653 172.682 140.934 174.05 142.302C175.419 143.671 179.98 145.495 183.477 143.519C186.974 141.694 191.079 137.893 190.927 134.852C190.623 131.964 189.863 130.899 188.95 129.683Z" fill="black"/>
<path d="M201.874 118.584C199.441 119.497 194.88 122.689 193.664 124.21C192.447 125.73 193.816 128.163 194.88 129.531C195.944 130.899 198.529 133.18 202.33 131.66C205.979 129.987 209.02 128.619 209.932 127.859C211.3 126.642 210.236 124.21 208.868 121.777C207.499 119.192 207.651 116.608 201.874 118.584Z" fill="black"/>
<path d="M169.337 127.554C169.793 129.379 170.249 134.7 169.033 137.133C167.665 139.565 167.817 142.91 168.729 144.583C169.641 146.103 175.267 150.512 177.395 154.161C179.676 157.81 182.108 161.763 184.845 161.611C187.582 161.459 189.254 157.962 190.015 154.009C190.775 150.056 193.207 147.167 194.88 145.799C196.552 144.431 199.593 145.647 202.178 143.975C204.762 142.302 205.522 139.717 207.347 139.717C209.171 139.717 211.452 141.542 213.885 140.934C216.317 140.326 217.077 139.413 217.077 139.413L219.966 146.711L221.182 151.272C221.182 151.272 224.527 156.29 224.527 160.243C224.527 164.196 225.744 172.102 218.294 176.663C210.844 181.224 203.698 178.335 203.698 178.335C203.698 178.335 197.008 174.534 190.623 174.534C184.237 174.534 181.5 174.23 179.98 176.815C178.46 179.4 178.308 186.698 170.097 187.002C162.039 187.306 162.648 182.744 162.648 182.744L161.583 177.727C161.583 177.727 155.806 176.967 152.917 173.926C150.18 170.885 149.116 167.541 148.812 165.412C148.508 163.284 148.66 161.003 148.66 161.003C148.66 161.003 143.491 157.354 143.491 153.097C143.491 148.84 145.011 146.407 145.011 146.407L146.987 145.039C146.987 145.039 149.724 146.103 152.005 144.887C154.285 143.671 158.694 138.197 158.694 138.197L169.337 127.554Z" fill="black"/>
<path d="M169.185 152.793C167.057 151.272 163.712 148.992 162.344 149.144C160.975 149.296 159.455 153.705 162.8 157.354C166.144 161.003 171.162 161.915 172.834 160.091C174.507 158.266 172.378 155.073 169.185 152.793Z" fill="white"/>
<path d="M212.06 146.711C210.692 145.647 206.739 144.887 202.634 147.319C198.377 149.752 197.617 154.769 197.465 157.05C197.313 159.33 199.137 159.787 200.201 159.482C201.266 159.178 202.634 154.313 205.827 152.337C209.172 150.36 210.54 151.576 212.212 151.424C213.885 151.272 214.037 148.08 212.06 146.711Z" fill="white"/>
<path d="M181.956 133.028C181.956 133.028 179.98 135.156 179.068 137.741" stroke="white" stroke-width="1.52039" stroke-miterlimit="10" stroke-linecap="round" stroke-linejoin="round"/>
<path d="M201.721 122.385C201.721 122.385 199.897 124.057 198.985 126.794" stroke="white" stroke-width="1.52039" stroke-miterlimit="10" stroke-linecap="round" stroke-linejoin="round"/>
<path d="M146.835 145.343C146.835 146.103 150.94 147.167 155.045 142.606C159.15 138.045 171.617 123.449 182.412 117.824C193.207 112.198 199.288 110.678 199.288 110.678C199.288 110.678 196.248 100.035 186.517 96.5382C176.787 93.0413 162.495 95.9301 155.501 103.836C148.507 111.742 143.642 123.601 145.011 133.332C146.379 143.062 146.835 143.214 146.835 145.343Z" stroke="black" stroke-width="1.52039" stroke-miterlimit="10" stroke-linecap="round" stroke-linejoin="round"/>
<path d="M146.683 144.887C146.683 144.887 142.426 146.711 142.882 152.337C143.338 157.962 148.659 161.307 148.659 161.307C148.659 161.307 146.987 169.213 152.308 173.926C157.782 178.639 161.583 177.423 161.583 177.423C161.583 177.423 160.67 187.458 168.12 187.306C175.722 187.154 178.459 181.224 178.763 179.095C179.067 176.967 180.892 174.838 184.084 174.534C187.277 174.23 195.639 174.534 200.201 177.119C204.762 179.704 212.212 180.768 218.901 176.207C225.743 171.646 224.527 160.091 223.767 156.898C223.006 153.705 220.574 151.728 220.574 150.664C220.574 149.6 218.141 141.086 215.861 137.437C213.58 133.94 209.627 128.162 209.627 128.162" stroke="black" stroke-width="1.52039" stroke-miterlimit="10" stroke-linecap="round" stroke-linejoin="round"/>
<path d="M199.289 110.526C199.593 110.222 202.634 114.175 203.85 117.824" stroke="black" stroke-width="1.52039" stroke-miterlimit="10" stroke-linecap="round" stroke-linejoin="round"/>
<path d="M188.95 129.683C187.734 128.163 184.541 127.25 180.284 129.987C175.875 132.724 173.138 135.917 172.682 137.285C172.074 138.653 172.682 140.934 174.05 142.302C175.419 143.671 179.98 145.495 183.477 143.519C186.974 141.694 191.079 137.893 190.927 134.852C190.623 131.964 189.863 130.899 188.95 129.683Z" stroke="black" stroke-width="1.52039" stroke-miterlimit="10" stroke-linecap="round" stroke-linejoin="round"/>
<path d="M201.874 118.584C199.441 119.497 194.88 122.689 193.664 124.21C192.447 125.73 193.816 128.163 194.88 129.531C195.944 130.899 198.529 133.18 202.33 131.66C205.979 129.987 209.02 128.619 209.932 127.859C211.3 126.642 210.236 124.21 208.868 121.777C207.499 119.192 207.651 116.608 201.874 118.584Z" stroke="black" stroke-width="1.52039" stroke-miterlimit="10" stroke-linecap="round" stroke-linejoin="round"/>
<path d="M193.511 127.554C193.511 127.554 190.775 127.25 189.406 129.987" stroke="black" stroke-width="1.52039" stroke-miterlimit="10" stroke-linecap="round" stroke-linejoin="round"/>
<path d="M143.035 154.161C143.035 154.161 141.362 159.027 141.362 164.044C141.21 169.061 141.514 170.886 143.035 169.973C144.555 169.061 147.14 166.476 148.508 164.652" stroke="black" stroke-width="1.52039" stroke-miterlimit="10" stroke-linecap="round" stroke-linejoin="round"/>
<path d="M142.73 150.512C142.73 150.512 138.625 152.641 135.28 157.05C131.936 161.459 132.696 162.827 132.696 163.283C132.848 163.587 138.169 163.283 141.514 161.459" stroke="black" stroke-width="1.52039" stroke-miterlimit="10" stroke-linecap="round" stroke-linejoin="round"/>
<path d="M169.337 127.554C169.793 129.379 170.249 134.7 169.033 137.133C167.664 139.565 167.816 142.91 168.729 144.583C169.641 146.103 175.266 150.512 177.395 154.161C179.676 157.81 182.108 161.763 184.845 161.611C187.582 161.459 189.254 157.962 190.014 154.009C190.774 150.056 193.207 147.167 194.879 145.799C196.552 144.431 199.593 145.647 202.177 143.974C204.762 142.302 205.522 139.717 207.347 139.717C209.171 139.717 211.452 141.542 213.884 140.934C216.317 140.325 217.077 139.413 217.077 139.413" stroke="black" stroke-width="1.52039" stroke-miterlimit="10" stroke-linecap="round" stroke-linejoin="round"/>
<path d="M172.53 140.478C172.53 140.478 170.705 142.606 169.489 144.887" stroke="black" stroke-width="1.52039" stroke-miterlimit="10" stroke-linecap="round" stroke-linejoin="round"/>
<path d="M167.512 102.924C165.384 102.924 160.063 105.205 158.694 107.485C157.326 109.766 158.846 111.286 161.279 111.286C163.712 111.438 164.168 114.023 164.472 115.543C164.624 116.912 169.033 117.976 170.097 114.935C171.161 111.894 171.465 111.134 173.594 109.31C175.723 107.485 174.05 102.772 167.512 102.924Z" stroke="black" stroke-width="1.52039" stroke-miterlimit="10" stroke-linecap="round" stroke-linejoin="round"/>
<path d="M183.477 95.6262C182.261 96.0823 178.916 96.9946 180.588 100.339C181.652 102.316 181.652 103.836 180.436 104.749C179.22 105.661 180.132 109.614 184.845 107.789C189.558 105.965 190.471 107.333 191.535 107.637C192.751 108.093 195.944 107.789 196.856 105.509" stroke="black" stroke-width="1.52039" stroke-miterlimit="10" stroke-linecap="round" stroke-linejoin="round"/>
<path d="M186.517 115.543C186.213 113.871 183.02 110.374 179.371 112.046C175.722 113.719 174.81 116.151 174.81 117.824C174.81 119.496 176.027 121.472 176.027 121.472" stroke="black" stroke-width="1.52039" stroke-miterlimit="10" stroke-linecap="round" stroke-linejoin="round"/>
<path d="M148.812 114.175C150.332 113.263 155.35 114.175 156.414 116.151C157.326 118.128 155.806 119.496 155.654 121.017C155.654 122.537 158.695 124.513 156.566 126.642C154.437 128.618 152.005 128.01 150.788 127.706C149.572 127.402 147.9 130.747 145.163 130.595" stroke="black" stroke-width="1.52039" stroke-miterlimit="10" stroke-linecap="round" stroke-linejoin="round"/>
<path d="M171.77 124.818C170.554 122.841 165.688 120.713 163.408 123.146C161.127 125.578 161.279 128.011 161.887 129.379C162.496 130.747 160.215 132.724 159.759 133.788C159.303 135.005 160.063 136.677 160.063 136.677" stroke="black" stroke-width="1.52039" stroke-miterlimit="10" stroke-linecap="round" stroke-linejoin="round"/>
<path d="M157.479 139.261C156.263 137.285 153.374 135.46 150.789 136.069C148.205 136.677 147.901 138.501 148.357 140.022C148.813 141.542 146.532 142.302 146.532 142.302" stroke="black" stroke-width="1.52039" stroke-miterlimit="10" stroke-linecap="round" stroke-linejoin="round"/>
<path d="M185.909 174.382C191.079 175.599 195.184 177.727 198.833 181.072" stroke="black" stroke-width="1.52039" stroke-miterlimit="10" stroke-linecap="round" stroke-linejoin="round"/>
<path d="M178.46 181.376C180.892 180.616 186.67 180.616 192.599 184.721C198.529 188.826 207.651 192.323 218.598 188.066C229.545 183.809 230.305 171.341 229.849 166.324C229.393 161.155 226.504 156.746 223.767 155.833" stroke="black" stroke-width="1.52039" stroke-miterlimit="10" stroke-linecap="round" stroke-linejoin="round"/>
<path d="M358.321 413.844C359.537 415.364 362.73 416.276 366.987 413.54C371.396 410.803 374.133 407.61 374.589 406.242C375.197 404.873 374.589 402.593 373.221 401.224C371.852 399.856 367.291 398.032 363.794 400.008C360.297 401.833 356.192 405.633 356.344 408.674C356.496 411.715 357.257 412.627 358.321 413.844Z" fill="black"/>
<path d="M345.245 424.942C347.678 424.03 352.239 420.837 353.455 419.317C354.672 417.797 353.303 415.364 352.239 413.996C351.175 412.627 348.59 410.347 344.789 411.867C341.14 413.54 338.099 414.908 337.187 415.668C335.819 416.884 336.883 419.317 338.251 421.75C339.772 424.334 339.468 426.919 345.245 424.942Z" fill="black"/>
<path d="M377.934 415.972C377.478 414.148 377.022 408.826 378.238 406.394C379.606 403.961 379.454 400.616 378.542 398.944C377.63 397.423 372.004 393.014 369.876 389.365C367.595 385.716 365.163 381.763 362.426 381.915C359.689 382.067 358.017 385.564 357.257 389.517C356.496 393.47 354.064 396.359 352.391 397.727C350.719 399.096 347.678 397.879 345.093 399.552C342.509 401.224 341.749 403.809 339.924 403.809C338.1 403.809 335.819 401.985 333.387 402.593C330.954 403.201 330.194 404.113 330.194 404.113L327.305 396.815L326.089 392.254C326.089 392.254 322.744 387.237 322.744 383.284C322.592 379.331 321.527 371.425 328.977 366.864C336.427 362.302 343.573 365.191 343.573 365.191C343.573 365.191 350.263 368.992 356.648 368.992C363.034 368.992 365.771 369.296 367.291 366.712C368.812 364.127 368.964 356.829 377.174 356.525C385.384 356.221 384.624 360.782 384.624 360.782L385.688 365.799C385.688 365.799 391.465 366.559 394.354 369.6C397.091 372.641 398.155 375.986 398.459 378.114C398.763 380.243 398.611 382.524 398.611 382.524C398.611 382.524 403.78 386.173 403.78 390.43C403.933 394.687 402.26 397.119 402.26 397.119L400.284 398.488C400.284 398.488 397.547 397.423 395.266 398.64C392.986 399.856 388.577 405.329 388.577 405.329L377.934 415.972Z" fill="black"/>
<path d="M378.086 390.734C380.215 392.254 383.56 394.535 384.928 394.383C386.296 394.231 387.817 389.821 384.472 386.173C381.127 382.524 376.11 381.611 374.437 383.436C372.765 385.26 374.893 388.453 378.086 390.734Z" fill="white"/>
<path d="M335.211 396.967C336.579 398.031 340.532 398.792 344.637 396.359C348.894 393.926 349.654 388.909 349.807 386.629C349.959 384.348 348.134 383.892 347.07 384.196C346.158 384.5 344.637 389.365 341.444 391.342C338.1 393.318 336.731 392.102 335.059 392.254C333.538 392.558 333.234 395.447 335.211 396.967Z" fill="white"/>
<path d="M365.315 410.499C365.315 410.499 367.292 408.37 368.204 405.786" stroke="white" stroke-width="1.52039" stroke-miterlimit="10" stroke-linecap="round" stroke-linejoin="round"/>
<path d="M345.398 421.141C345.398 421.141 347.222 419.469 348.134 416.732" stroke="white" stroke-width="1.52039" stroke-miterlimit="10" stroke-linecap="round" stroke-linejoin="round"/>
<path d="M400.436 398.184C400.436 397.423 396.331 396.359 392.226 400.92C388.121 405.481 375.654 420.077 364.859 425.703C354.064 431.328 347.983 432.848 347.983 432.848C347.983 432.848 351.023 443.491 360.754 446.988C370.484 450.485 384.776 447.596 391.77 439.69C398.763 431.784 403.629 419.925 402.26 410.195C400.892 400.312 400.436 400.312 400.436 398.184Z" stroke="black" stroke-width="1.52039" stroke-miterlimit="10" stroke-linecap="round" stroke-linejoin="round"/>
<path d="M400.588 398.64C400.588 398.64 404.845 396.815 404.388 391.19C403.932 385.564 398.611 382.22 398.611 382.22C398.611 382.22 400.283 374.314 394.962 369.6C389.489 364.887 385.688 366.103 385.688 366.103C385.688 366.103 386.6 356.069 379.15 356.221C371.548 356.373 368.811 362.302 368.507 364.431C368.051 366.712 366.379 368.688 363.186 368.992C359.993 369.296 351.631 368.992 347.07 366.408C342.509 363.823 335.059 362.759 328.369 367.32C321.527 371.881 322.744 383.436 323.504 386.629C324.264 389.821 326.697 391.798 326.697 392.862C326.697 393.927 329.129 402.441 331.41 406.09C333.69 409.587 337.643 415.364 337.643 415.364" stroke="black" stroke-width="1.52039" stroke-miterlimit="10" stroke-linecap="round" stroke-linejoin="round"/>
<path d="M347.982 433.001C347.678 433.305 344.637 429.352 343.421 425.703" stroke="black" stroke-width="1.52039" stroke-miterlimit="10" stroke-linecap="round" stroke-linejoin="round"/>
<path d="M358.321 413.844C359.537 415.364 362.73 416.276 366.987 413.54C371.396 410.803 374.133 407.61 374.589 406.242C375.197 404.873 374.589 402.593 373.221 401.224C371.852 399.856 367.291 398.032 363.794 400.008C360.297 401.833 356.192 405.633 356.344 408.674C356.496 411.715 357.257 412.627 358.321 413.844Z" stroke="black" stroke-width="1.52039" stroke-miterlimit="10" stroke-linecap="round" stroke-linejoin="round"/>
<path d="M345.245 424.942C347.678 424.03 352.239 420.837 353.455 419.317C354.672 417.797 353.303 415.364 352.239 413.996C351.175 412.627 348.59 410.347 344.789 411.867C341.14 413.54 338.099 414.908 337.187 415.668C335.819 416.884 336.883 419.317 338.251 421.75C339.772 424.334 339.468 426.919 345.245 424.942Z" stroke="black" stroke-width="1.52039" stroke-miterlimit="10" stroke-linecap="round" stroke-linejoin="round"/>
<path d="M353.76 415.972C353.76 415.972 356.497 416.276 357.865 413.54" stroke="black" stroke-width="1.52039" stroke-miterlimit="10" stroke-linecap="round" stroke-linejoin="round"/>
<path d="M404.236 389.365C404.236 389.365 405.909 384.5 405.909 379.483C406.061 374.465 405.757 372.641 404.236 373.553C402.716 374.466 400.131 377.05 398.763 378.875" stroke="black" stroke-width="1.52039" stroke-miterlimit="10" stroke-linecap="round" stroke-linejoin="round"/>
<path d="M404.54 393.014C404.54 393.014 408.645 390.886 411.99 386.476C415.335 381.915 414.575 380.699 414.575 380.243C414.575 379.787 409.102 380.243 405.757 382.067" stroke="black" stroke-width="1.52039" stroke-miterlimit="10" stroke-linecap="round" stroke-linejoin="round"/>
<path d="M377.934 415.972C377.478 414.148 377.022 408.826 378.238 406.394C379.607 403.961 379.455 400.616 378.542 398.944C377.63 397.423 372.005 393.014 369.876 389.365C367.596 385.717 365.163 381.763 362.426 381.916C359.69 382.068 358.017 385.564 357.257 389.517C356.497 393.47 354.064 396.359 352.392 397.728C350.719 399.096 347.678 397.88 345.094 399.552C342.509 401.224 341.749 403.809 339.924 403.809C338.1 403.809 335.819 401.985 333.387 402.593C330.954 403.201 330.194 404.113 330.194 404.113" stroke="black" stroke-width="1.52039" stroke-miterlimit="10" stroke-linecap="round" stroke-linejoin="round"/>
<path d="M374.741 403.049C374.741 403.049 376.566 400.92 377.782 398.64" stroke="black" stroke-width="1.52039" stroke-miterlimit="10" stroke-linecap="round" stroke-linejoin="round"/>
<path d="M379.759 440.602C381.887 440.602 387.208 438.322 388.577 436.041C389.945 433.761 388.425 432.24 385.992 432.24C383.56 432.088 383.103 429.503 382.799 427.983C382.495 426.463 378.238 425.55 377.174 428.591C376.11 431.784 375.806 432.392 373.677 434.217C371.548 436.041 373.069 440.754 379.759 440.602Z" stroke="black" stroke-width="1.52039" stroke-miterlimit="10" stroke-linecap="round" stroke-linejoin="round"/>
<path d="M363.794 447.9C365.011 447.444 368.355 446.532 366.683 443.187C365.619 441.211 365.619 439.69 366.835 438.778C368.051 437.866 367.139 433.913 362.426 435.737C357.713 437.562 356.801 436.193 355.736 435.889C354.52 435.433 351.327 435.737 350.415 438.018" stroke="black" stroke-width="1.52039" stroke-miterlimit="10" stroke-linecap="round" stroke-linejoin="round"/>
<path d="M360.754 427.983C361.058 429.656 364.251 433.153 367.9 431.48C371.549 429.808 372.461 427.375 372.461 425.703C372.461 423.878 371.245 422.054 371.245 422.054" stroke="black" stroke-width="1.52039" stroke-miterlimit="10" stroke-linecap="round" stroke-linejoin="round"/>
<path d="M398.46 429.352C396.939 430.264 391.922 429.352 390.858 427.375C389.945 425.399 391.466 424.03 391.618 422.51C391.618 420.99 388.577 419.013 390.706 416.885C392.834 414.908 395.267 415.516 396.483 415.82C397.699 416.124 399.372 412.78 402.108 412.932" stroke="black" stroke-width="1.52039" stroke-miterlimit="10" stroke-linecap="round" stroke-linejoin="round"/>
<path d="M375.35 418.861C376.566 420.838 381.431 422.966 383.712 420.533C385.993 418.101 385.841 415.668 385.232 414.3C384.624 412.931 386.905 410.955 387.361 409.891C387.817 408.674 387.057 407.002 387.057 407.002" stroke="black" stroke-width="1.52039" stroke-miterlimit="10" stroke-linecap="round" stroke-linejoin="round"/>
<path d="M389.793 404.265C391.01 406.242 393.899 408.066 396.483 407.458C399.068 406.85 399.372 405.025 398.916 403.505C398.46 401.985 400.74 401.224 400.74 401.224" stroke="black" stroke-width="1.52039" stroke-miterlimit="10" stroke-linecap="round" stroke-linejoin="round"/>
<path d="M361.209 369.144C356.04 367.928 351.935 365.799 348.286 362.454" stroke="black" stroke-width="1.52039" stroke-miterlimit="10" stroke-linecap="round" stroke-linejoin="round"/>
<path d="M368.812 362.15C366.379 362.911 360.602 362.911 354.672 358.806C348.743 354.7 339.62 351.204 328.673 355.461C317.727 359.718 316.966 372.185 317.423 377.202C317.879 382.372 320.767 386.781 323.504 387.693" stroke="black" stroke-width="1.52039" stroke-miterlimit="10" stroke-linecap="round" stroke-linejoin="round"/>
<path d="M438.294 253.746C436.926 252.986 436.014 252.378 435.71 253.138C435.406 253.898 436.926 257.699 437.23 259.068C437.534 260.436 437.686 261.957 437.838 262.717C437.99 263.477 438.294 264.085 440.423 263.629C442.399 263.173 443.16 262.717 443.16 260.892C443.008 259.068 440.575 255.115 438.294 253.746Z" fill="black"/>
<path d="M445.288 280.049C445.592 277.312 446.2 276.096 445.44 275.336C444.679 274.575 442.855 274.575 441.943 274.727C441.031 274.88 439.966 275.488 440.422 277.768C440.879 280.201 441.639 281.569 441.943 282.634C442.247 283.698 442.551 284.914 443.767 283.698C444.984 282.481 445.288 280.049 445.288 280.049Z" fill="black"/>
<path d="M411.991 268.95V272.599C411.991 272.599 408.038 272.751 408.038 271.231C408.038 269.862 411.991 268.95 411.991 268.95Z" fill="black"/>
<path d="M408.647 286.739C408.799 287.955 412.752 288.259 412.752 288.259L412.6 284.762C412.6 284.61 408.495 285.066 408.647 286.739Z" fill="black"/>
<path d="M424.763 224.403C424.763 224.403 419.442 215.889 410.775 207.223" stroke="black" stroke-width="1.52039" stroke-miterlimit="10" stroke-linecap="round" stroke-linejoin="round"/>
<path d="M425.066 229.876C425.371 234.741 431.3 240.671 433.125 241.279C435.253 242.039 436.317 242.799 437.382 241.887C438.446 240.975 438.598 237.782 443.311 234.133C448.024 230.484 448.48 230.18 452.281 226.835C456.082 223.491 459.123 219.842 461.404 218.321C463.684 216.801 464.445 216.801 463.836 219.233C463.228 221.666 458.971 227.9 457.451 230.332C455.93 232.765 453.346 236.566 451.825 238.846C450.305 241.127 449.241 244.32 448.632 246.144C447.872 248.121 447.264 248.577 447.264 248.577" stroke="black" stroke-width="1.52039" stroke-miterlimit="10" stroke-linecap="round" stroke-linejoin="round"/>
<path d="M437.99 244.472C438.902 245.232 441.487 246.144 443.464 246.753C445.44 247.361 447.417 248.425 449.697 251.77C451.978 255.115 452.738 260.74 452.738 263.325C452.738 265.91 452.434 270.775 452.13 272.295" stroke="black" stroke-width="1.52039" stroke-miterlimit="10" stroke-linecap="round" stroke-linejoin="round"/>
<path d="M463.228 217.409C462.316 217.257 458.971 217.409 454.714 218.93C450.457 220.45 446.352 220.906 443.463 221.362C440.575 221.818 425.827 224.555 424.002 224.859C424.002 224.859 423.09 225.011 422.786 225.619" stroke="black" stroke-width="1.52039" stroke-miterlimit="10" stroke-linecap="round" stroke-linejoin="round"/>
<path d="M436.014 242.343C436.014 242.343 434.645 239.607 434.493 235.502" stroke="black" stroke-width="1.52039" stroke-miterlimit="10" stroke-linecap="round" stroke-linejoin="round"/>
<path d="M437.229 237.022C437.229 237.022 436.469 240.671 436.469 242.191" stroke="black" stroke-width="1.52039" stroke-miterlimit="10" stroke-linecap="round" stroke-linejoin="round"/>
<path d="M450.305 252.986C451.522 252.074 456.995 248.425 460.188 245.384C463.381 242.344 464.293 241.887 465.357 242.344C466.422 242.8 466.117 245.536 465.205 248.273C464.293 251.01 458.668 265.453 456.539 269.254C454.41 273.055 454.715 276.4 450.61 281.57C446.504 286.891 439.663 291.3 434.949 292.973C430.236 294.645 421.114 294.037 419.29 292.973C417.465 291.908 417.009 291.452 416.553 290.388" stroke="black" stroke-width="1.52039" stroke-miterlimit="10" stroke-linecap="round" stroke-linejoin="round"/>
<path d="M423.242 278.833C423.242 278.833 418.225 278.985 417.313 278.985C416.4 278.985 415.944 278.681 415.944 276.856C415.944 275.184 416.856 274.271 418.073 273.815C419.289 273.359 422.178 272.751 422.178 272.751C422.178 272.751 423.394 273.815 423.85 275.792C424.154 277.92 423.242 278.833 423.242 278.833Z" stroke="black" stroke-width="1.52039" stroke-miterlimit="10" stroke-linecap="round" stroke-linejoin="round"/>
<path d="M423.242 278.833C423.851 279.593 424.307 281.417 424.003 282.786C423.699 284.002 422.938 285.066 422.938 285.066C422.938 285.066 418.681 284.458 417.313 283.546C415.945 282.634 416.097 281.873 416.249 281.113C416.249 279.745 417.161 278.985 417.161 278.985" stroke="black" stroke-width="1.52039" stroke-miterlimit="10" stroke-linecap="round" stroke-linejoin="round"/>
<path d="M422.786 284.914C422.786 284.914 423.09 288.411 422.786 289.931" stroke="black" stroke-width="1.52039" stroke-miterlimit="10" stroke-linecap="round" stroke-linejoin="round"/>
<path d="M412.448 289.628C411.384 289.78 406.518 291.148 398.46 289.78C390.402 288.411 382.496 283.546 380.824 278.985C379.303 274.272 380.976 268.038 382.648 266.214C384.321 264.237 388.274 261.196 393.899 259.372C399.373 257.548 406.214 256.483 410.319 256.635C414.424 256.787 421.418 259.524 421.722 264.237C422.178 268.798 421.874 269.255 422.178 272.903" stroke="black" stroke-width="1.52039" stroke-miterlimit="10" stroke-linecap="round" stroke-linejoin="round"/>
<path d="M429.324 273.816C428.26 274.728 427.347 275.336 426.891 275.488C426.435 275.64 426.131 276.096 426.435 277.16C426.739 278.225 427.043 278.681 428.26 278.833C429.476 278.985 430.844 279.593 431.909 279.897C432.973 280.201 434.797 280.961 435.101 278.833C435.557 276.704 435.101 273.511 434.037 271.839C433.125 270.167 431.756 269.863 430.996 270.167C430.236 270.471 430.388 272.751 429.324 273.816Z" stroke="black" stroke-width="1.52039" stroke-miterlimit="10" stroke-linecap="round" stroke-linejoin="round"/>
<path d="M429.628 252.834C429.628 252.834 431.604 259.524 431.148 265.757" stroke="black" stroke-width="1.52039" stroke-miterlimit="10" stroke-linecap="round" stroke-linejoin="round"/>
<path d="M428.412 266.974C428.412 266.974 428.26 260.132 423.547 255.115" stroke="black" stroke-width="1.52039" stroke-miterlimit="10" stroke-linecap="round" stroke-linejoin="round"/>
<path d="M434.645 284.458C434.645 284.458 438.75 290.54 439.054 297.229" stroke="black" stroke-width="1.52039" stroke-miterlimit="10" stroke-linecap="round" stroke-linejoin="round"/>
<path d="M432.212 285.827C432.212 285.827 434.189 292.972 433.733 298.598" stroke="black" stroke-width="1.52039" stroke-miterlimit="10" stroke-linecap="round" stroke-linejoin="round"/>
<path d="M437.534 261.348C437.686 263.325 437.534 263.781 439.358 263.781C441.183 263.629 442.703 263.021 442.855 261.652C443.007 260.284 442.399 258.307 440.727 256.331C438.902 254.202 437.382 253.442 436.317 252.986C435.253 252.53 435.253 253.746 435.861 255.267C436.317 256.635 437.23 259.068 437.534 261.348Z" stroke="black" stroke-width="1.52039" stroke-miterlimit="10" stroke-linecap="round" stroke-linejoin="round"/>
<path d="M445.44 277.313C445.592 275.64 444.984 274.88 443.464 274.728C441.943 274.576 440.423 275.032 440.119 275.944C439.815 276.856 440.119 278.225 440.727 279.897C441.335 281.57 441.791 282.786 441.943 283.698C442.095 284.762 443.768 283.85 444.528 281.57C445.44 279.441 445.288 278.681 445.44 277.313Z" stroke="black" stroke-width="1.52039" stroke-miterlimit="10" stroke-linecap="round" stroke-linejoin="round"/>
<path d="M464.901 242.039C464.901 242.039 465.661 239.759 464.445 236.414" stroke="black" stroke-width="1.52039" stroke-miterlimit="10" stroke-linecap="round" stroke-linejoin="round"/>
<path d="M468.702 237.326C468.702 237.326 466.573 241.279 465.661 242.192" stroke="black" stroke-width="1.52039" stroke-miterlimit="10" stroke-linecap="round" stroke-linejoin="round"/>
<path d="M464.14 218.169C464.14 218.169 467.637 216.953 469.462 215.129" stroke="black" stroke-width="1.52039" stroke-miterlimit="10" stroke-linecap="round" stroke-linejoin="round"/>
<path d="M463.684 217.257C463.684 217.257 464.749 215.28 464.597 212.696" stroke="black" stroke-width="1.52039" stroke-miterlimit="10" stroke-linecap="round" stroke-linejoin="round"/>
<path d="M399.22 276.856C398.764 277.312 398.46 278.225 398.612 280.961C398.764 283.546 399.372 284.458 400.892 284.458C402.413 284.458 403.173 283.85 404.541 283.242C405.758 282.634 408.342 281.721 410.015 281.569" stroke="black" stroke-width="1.52039" stroke-miterlimit="10" stroke-linecap="round" stroke-linejoin="round"/>
<path d="M393.443 273.207C393.747 274.272 394.203 277.92 394.203 280.809C394.203 283.546 393.899 284.61 393.899 284.61" stroke="black" stroke-width="1.52039" stroke-miterlimit="10" stroke-linecap="round" stroke-linejoin="round"/>
<path d="M391.314 278.225C391.314 278.225 391.162 280.201 391.314 281.113" stroke="black" stroke-width="1.52039" stroke-miterlimit="10" stroke-linecap="round" stroke-linejoin="round"/>
<path d="M388.882 286.739C387.969 287.347 384.016 287.651 380.519 287.043C378.847 286.891 376.718 286.587 374.286 286.283" stroke="black" stroke-width="1.52039" stroke-miterlimit="10" stroke-linecap="round" stroke-linejoin="round"/>
<path d="M411.535 265.301C411.535 265.301 412.143 269.406 411.687 275.336C411.079 275.488 410.775 275.336 410.775 275.336" stroke="black" stroke-width="1.52039" stroke-miterlimit="10" stroke-linecap="round" stroke-linejoin="round"/>
<path d="M411.231 283.242H412.144C412.144 283.242 413.208 286.739 412.448 290.236C412.448 290.54 412.296 290.996 413.512 290.844C414.728 290.692 417.161 290.236 419.442 289.475C420.81 289.019 422.786 287.803 422.786 287.803" stroke="black" stroke-width="1.52039" stroke-miterlimit="10" stroke-linecap="round" stroke-linejoin="round"/>
<path d="M411.688 268.95C408.343 268.798 405.15 272.295 411.688 272.599" stroke="black" stroke-width="1.52039" stroke-miterlimit="10" stroke-linecap="round" stroke-linejoin="round"/>
<path d="M412.143 284.762C408.798 284.61 405.758 287.651 412.143 288.107" stroke="black" stroke-width="1.52039" stroke-miterlimit="10" stroke-linecap="round" stroke-linejoin="round"/>
<path d="M411.991 264.997C412.448 266.67 412.752 268.342 412.752 270.015C412.904 271.687 412.904 273.359 412.752 275.032C412.752 275.488 412.296 275.792 411.991 275.792C411.687 275.792 411.231 275.336 411.231 275.032C411.383 273.511 411.535 271.839 411.383 270.319C411.383 268.798 411.079 267.126 410.775 265.605C410.623 265.301 410.927 264.997 411.231 264.845C411.687 264.541 411.991 264.693 411.991 264.997Z" fill="black"/>
<path d="M413.055 283.09C413.207 283.85 413.359 284.458 413.511 285.066C413.663 285.674 413.663 286.435 413.663 287.043C413.663 288.411 413.511 289.627 413.207 290.844C413.207 291.148 412.903 291.3 412.599 291.148C412.295 291.148 412.295 290.844 412.295 290.692C412.599 289.475 412.599 288.259 412.447 287.195C412.447 286.587 412.295 285.978 412.143 285.522C411.991 284.914 411.839 284.306 411.687 283.85C411.535 283.394 411.687 283.09 412.143 282.786C412.447 282.482 412.903 282.634 413.055 283.09Z" fill="black"/>
<path d="M314.686 169.669C314.686 169.669 321.68 174.99 325.481 176.359C329.282 177.727 336.884 177.423 342.053 173.926C347.223 170.277 358.018 159.634 362.731 155.377C367.444 151.12 374.59 140.478 377.022 135.46C379.455 130.443 379.455 126.49 379.455 126.49L381.584 126.642C381.584 126.642 382.344 112.959 372.157 102.924C361.971 92.8894 348.439 88.4803 338.252 90.4568C328.066 92.4333 317.271 101.708 314.078 103.836C310.885 105.965 302.675 112.654 302.675 112.654L305.868 113.719C305.868 113.719 301.915 120.104 299.939 124.818C297.962 129.531 297.658 134.092 297.658 134.092C297.658 134.092 302.675 135.612 304.652 136.981C306.628 138.349 309.365 142.302 309.365 142.302C309.365 142.302 309.669 139.413 313.014 138.501C316.359 137.589 321.376 137.285 321.376 137.285C321.376 137.285 321.68 133.332 321.984 132.419C322.288 131.355 323.049 129.835 323.049 129.835C323.049 129.835 319.704 128.619 318.944 125.426C318.183 122.233 318.791 117.824 321.528 115.391C324.113 112.959 327.154 113.263 328.978 114.479C330.803 115.695 330.651 119.648 330.651 119.648L330.346 121.777L331.715 123.297L338.1 118.888C338.1 118.888 345.246 124.361 346.767 125.274C348.135 126.186 359.082 131.659 359.082 131.659L368.508 135.156L364.555 142.91C364.555 142.91 359.842 152.793 354.065 157.658C348.287 162.523 344.486 164.956 341.901 165.26C339.317 165.564 335.516 163.739 334.299 162.523C333.235 161.307 331.715 160.243 331.715 160.243C331.715 160.243 327.61 161.611 322.288 164.348C316.967 167.084 314.686 169.669 314.686 169.669Z" fill="black"/>
<path d="M340.381 128.923L344.334 131.659C344.334 131.659 341.901 134.092 340.381 133.028C339.013 131.811 340.381 128.923 340.381 128.923Z" fill="black"/>
<path d="M358.474 138.805L362.123 140.174C362.123 140.174 361.515 143.366 359.234 142.606C356.801 142.15 358.474 138.805 358.474 138.805Z" fill="black"/>
<path d="M322.289 143.518C322.289 143.518 320.464 133.332 323.657 129.683" stroke="black" stroke-width="1.52039" stroke-miterlimit="10" stroke-linecap="round" stroke-linejoin="round"/>
<path d="M323.809 129.987C323.809 129.987 320.616 129.227 320.008 127.706C319.399 126.186 316.511 119.8 321.528 115.391C326.545 110.982 330.194 114.631 330.498 116.912C330.802 119.192 330.042 121.169 330.194 121.777C330.346 122.385 331.563 124.21 333.083 122.841C334.603 121.473 338.404 118.28 338.404 118.28C338.404 118.28 342.661 122.385 348.439 126.186C354.216 129.987 368.964 135.308 368.964 135.308C368.964 135.308 366.684 139.717 365.619 141.086C364.555 142.454 362.274 148.688 358.93 152.793C354.977 157.658 349.807 162.067 344.486 164.5C339.165 166.932 334.755 162.827 333.387 161.611C332.019 160.395 327.153 154.161 326.393 152.945" stroke="black" stroke-width="1.52039" stroke-miterlimit="10" stroke-linecap="round" stroke-linejoin="round"/>
<path d="M308.149 152.337C308.149 152.337 308.91 144.431 309.366 142.454C309.822 140.478 310.886 139.109 313.167 138.501C315.447 138.045 321.529 137.133 321.529 137.133" stroke="black" stroke-width="1.52039" stroke-miterlimit="10" stroke-linecap="round" stroke-linejoin="round"/>
<path d="M309.213 157.05C309.213 157.05 309.821 162.675 310.581 165.716C311.341 168.757 312.101 169.821 313.014 170.125C313.926 170.429 320.615 165.412 322.744 164.196C324.873 162.979 329.282 161.307 331.41 160.09" stroke="black" stroke-width="1.52039" stroke-miterlimit="10" stroke-linecap="round" stroke-linejoin="round"/>
<path d="M304.044 151.12C304.044 151.12 304.196 161.915 307.541 171.646" stroke="black" stroke-width="1.52039" stroke-miterlimit="10" stroke-linecap="round" stroke-linejoin="round"/>
<path d="M344.79 143.518C346.159 144.279 349.808 145.951 351.632 144.583C353.608 143.062 352.088 140.326 353.913 137.741C355.585 135.156 356.801 134.548 358.474 134.852C360.146 135.156 364.099 135.916 366.228 138.653" stroke="black" stroke-width="1.52039" stroke-miterlimit="10" stroke-linecap="round" stroke-linejoin="round"/>
<path d="M338.861 127.25C340.533 128.467 346.159 133.028 347.375 134.396" stroke="black" stroke-width="1.52039" stroke-miterlimit="10" stroke-linecap="round" stroke-linejoin="round"/>
<path d="M356.649 138.349C356.649 138.349 360.298 139.109 364.556 141.238" stroke="black" stroke-width="1.52039" stroke-miterlimit="10" stroke-linecap="round" stroke-linejoin="round"/>
<path d="M342.661 121.929C344.03 124.513 349.959 129.531 350.871 131.811" stroke="black" stroke-width="1.52039" stroke-miterlimit="10" stroke-linecap="round" stroke-linejoin="round"/>
<path d="M339.013 149.904C342.966 148.84 350.872 149.904 351.936 152.337" stroke="black" stroke-width="1.52039" stroke-miterlimit="10" stroke-linecap="round" stroke-linejoin="round"/>
<path d="M343.422 153.857C344.334 153.857 347.071 154.465 347.679 154.921" stroke="black" stroke-width="1.52039" stroke-miterlimit="10" stroke-linecap="round" stroke-linejoin="round"/>
<path d="M314.686 169.669C314.686 169.669 321.68 174.99 325.481 176.359C329.282 177.727 336.884 177.423 342.053 173.926C347.223 170.277 358.018 159.634 362.731 155.377C367.444 151.12 374.59 140.478 377.022 135.46C379.455 130.443 379.455 126.49 379.455 126.49L381.584 126.642C381.584 126.642 382.344 112.959 372.157 102.924C361.971 92.8894 348.439 88.4803 338.252 90.4568C328.066 92.4333 317.271 101.708 314.078 103.836C310.885 105.965 302.675 112.654 302.675 112.654L305.868 113.719C305.868 113.719 301.915 120.104 299.939 124.818C297.962 129.531 297.658 134.092 297.658 134.092C297.658 134.092 302.675 135.612 304.652 136.981C306.628 138.349 309.365 142.302 309.365 142.302" stroke="black" stroke-width="1.52039" stroke-miterlimit="10" stroke-linecap="round" stroke-linejoin="round"/>
<path d="M324.113 124.665C322.896 124.361 321.984 120.712 323.504 118.888C325.025 117.216 328.218 118.128 327.153 120.408C326.089 122.689 325.785 121.625 325.785 121.625" stroke="black" stroke-width="1.52039" stroke-miterlimit="10" stroke-linecap="round" stroke-linejoin="round"/>
<path d="M340.685 128.923C340.685 128.923 338.253 131.659 340.229 133.028C342.206 134.396 344.182 131.812 344.182 131.812" stroke="black" stroke-width="1.52039" stroke-miterlimit="10" stroke-linecap="round" stroke-linejoin="round"/>
<path d="M358.626 139.413C358.626 139.413 357.105 141.998 359.082 142.91C361.058 143.822 361.97 140.782 361.97 140.782" stroke="black" stroke-width="1.52039" stroke-miterlimit="10" stroke-linecap="round" stroke-linejoin="round"/>
<path d="M108.826 289.78C110.195 290.54 111.107 291.148 111.411 290.388C111.715 289.628 110.195 285.827 109.89 284.459C109.586 283.09 109.434 281.57 109.282 280.81C109.13 280.05 108.826 279.441 106.698 279.898C104.721 280.354 103.961 280.81 103.961 282.634C104.265 284.459 106.698 288.412 108.826 289.78Z" fill="black"/>
<path d="M101.832 263.477C101.528 266.214 100.919 267.43 101.68 268.19C102.44 268.951 104.264 268.95 105.177 268.798C106.089 268.646 107.153 268.038 106.697 265.758C106.241 263.325 105.481 261.957 105.177 260.892C104.872 259.828 104.568 258.612 103.352 259.828C102.288 261.044 101.832 263.477 101.832 263.477Z" fill="black"/>
<path d="M135.281 274.576V270.927C135.281 270.927 139.234 270.775 139.234 272.296C139.234 273.816 135.281 274.576 135.281 274.576Z" fill="black"/>
<path d="M138.626 256.787C138.474 255.571 134.521 255.267 134.521 255.267L134.673 258.764C134.673 258.916 138.778 258.46 138.626 256.787Z" fill="black"/>
<path d="M122.509 319.123C122.509 319.123 127.831 327.638 136.497 336.304" stroke="black" stroke-width="1.52039" stroke-miterlimit="10" stroke-linecap="round" stroke-linejoin="round"/>
<path d="M122.205 313.65C121.901 308.785 115.972 302.855 114.147 302.247C112.019 301.487 110.954 300.727 109.89 301.639C108.826 302.551 108.674 305.744 103.961 309.393C99.3995 313.042 98.7913 313.346 94.9904 316.691C91.1894 320.035 88.1486 323.684 85.868 325.205C83.5874 326.725 82.8272 326.725 83.4354 324.293C84.0435 321.708 88.3006 315.626 89.821 313.194C91.3414 310.761 93.9261 306.96 95.4465 304.68C96.9669 302.399 98.0311 299.206 98.6393 297.382C99.3995 295.405 100.008 294.949 100.008 294.949" stroke="black" stroke-width="1.52039" stroke-miterlimit="10" stroke-linecap="round" stroke-linejoin="round"/>
<path d="M109.282 299.054C108.369 298.294 105.785 297.382 103.808 296.774C101.832 296.165 99.8553 295.101 97.5747 291.756C95.2941 288.411 94.5339 282.786 94.5339 280.201C94.3819 277.617 94.838 272.751 95.1421 271.231" stroke="black" stroke-width="1.52039" stroke-miterlimit="10" stroke-linecap="round" stroke-linejoin="round"/>
<path d="M84.044 326.117C84.9563 326.269 88.3011 326.117 92.5582 324.597C96.8153 323.077 100.92 322.621 103.809 322.164C106.698 321.708 121.446 318.972 123.27 318.668C123.27 318.668 124.182 318.515 124.486 317.907" stroke="black" stroke-width="1.52039" stroke-miterlimit="10" stroke-linecap="round" stroke-linejoin="round"/>
<path d="M111.106 301.183C111.106 301.183 112.474 303.919 112.627 308.024" stroke="black" stroke-width="1.52039" stroke-miterlimit="10" stroke-linecap="round" stroke-linejoin="round"/>
<path d="M110.042 306.504C110.042 306.504 110.802 302.855 110.802 301.335" stroke="black" stroke-width="1.52039" stroke-miterlimit="10" stroke-linecap="round" stroke-linejoin="round"/>
<path d="M96.8152 290.54C95.5989 291.452 90.1255 295.101 86.9327 298.142C83.7398 301.183 82.8276 301.639 81.7633 301.183C80.6991 300.727 81.0031 297.99 81.9154 295.253C82.8276 292.517 88.4531 278.073 90.5816 274.272C92.7101 270.471 92.4061 267.126 96.5111 261.957C100.616 256.636 107.458 252.226 112.171 250.554C116.884 249.034 126.007 249.49 127.831 250.554C129.656 251.618 130.112 252.074 130.568 253.139" stroke="black" stroke-width="1.52039" stroke-miterlimit="10" stroke-linecap="round" stroke-linejoin="round"/>
<path d="M123.878 264.693C123.878 264.693 128.895 264.541 129.807 264.541C130.719 264.541 131.175 264.845 131.175 266.67C131.175 268.494 130.263 269.255 129.047 269.711C127.831 270.167 124.942 270.775 124.942 270.775C124.942 270.775 123.726 269.711 123.269 267.734C123.117 265.606 123.878 264.693 123.878 264.693Z" stroke="black" stroke-width="1.52039" stroke-miterlimit="10" stroke-linecap="round" stroke-linejoin="round"/>
<path d="M123.878 264.694C123.27 263.933 122.814 262.109 123.118 260.741C123.422 259.524 124.182 258.46 124.182 258.46C124.182 258.46 128.439 259.068 129.807 259.98C131.024 260.741 131.024 261.653 130.872 262.413C130.872 263.781 129.96 264.542 129.96 264.542" stroke="black" stroke-width="1.52039" stroke-miterlimit="10" stroke-linecap="round" stroke-linejoin="round"/>
<path d="M124.334 258.612C124.334 258.612 124.03 255.115 124.334 253.595" stroke="black" stroke-width="1.52039" stroke-miterlimit="10" stroke-linecap="round" stroke-linejoin="round"/>
<path d="M134.825 253.899C135.889 253.747 140.754 252.378 148.812 253.747C156.871 255.115 164.777 259.98 166.449 264.542C167.969 269.255 166.297 275.488 164.625 277.313C162.952 279.289 158.999 282.33 153.374 284.155C147.9 285.979 141.059 287.043 136.953 286.891C132.848 286.739 125.855 284.003 125.551 279.289C125.094 274.728 125.398 274.272 125.094 270.623" stroke="black" stroke-width="1.52039" stroke-miterlimit="10" stroke-linecap="round" stroke-linejoin="round"/>
<path d="M117.948 269.711C119.012 268.798 119.924 268.19 120.38 268.038C120.836 267.886 121.141 267.43 120.836 266.366C120.532 265.302 120.228 264.845 119.012 264.693C117.796 264.541 116.427 263.933 115.363 263.629C114.299 263.325 112.474 262.565 112.17 264.693C111.714 266.822 112.17 270.015 113.234 271.687C114.299 273.36 115.515 273.664 116.275 273.36C116.883 272.903 116.883 270.775 117.948 269.711Z" stroke="black" stroke-width="1.52039" stroke-miterlimit="10" stroke-linecap="round" stroke-linejoin="round"/>
<path d="M117.644 290.692C117.644 290.692 115.668 284.003 116.124 277.769" stroke="black" stroke-width="1.52039" stroke-miterlimit="10" stroke-linecap="round" stroke-linejoin="round"/>
<path d="M118.708 276.704C118.708 276.704 118.86 283.546 123.573 288.563" stroke="black" stroke-width="1.52039" stroke-miterlimit="10" stroke-linecap="round" stroke-linejoin="round"/>
<path d="M112.627 259.068C112.627 259.068 108.522 252.987 108.218 246.297" stroke="black" stroke-width="1.52039" stroke-miterlimit="10" stroke-linecap="round" stroke-linejoin="round"/>
<path d="M115.059 257.7C115.059 257.7 113.083 250.554 113.539 244.928" stroke="black" stroke-width="1.52039" stroke-miterlimit="10" stroke-linecap="round" stroke-linejoin="round"/>
<path d="M109.738 282.178C109.586 280.202 109.738 279.745 107.914 279.745C106.089 279.898 104.569 280.506 104.417 281.874C104.265 283.242 104.873 285.219 106.545 287.195C108.218 289.172 109.89 290.084 110.954 290.54C112.019 290.996 112.019 289.78 111.411 288.26C110.954 286.891 110.042 284.459 109.738 282.178Z" stroke="black" stroke-width="1.52039" stroke-miterlimit="10" stroke-linecap="round" stroke-linejoin="round"/>
<path d="M101.832 266.214C101.68 267.886 102.288 268.646 103.808 268.798C105.329 268.95 106.849 268.494 107.153 267.582C107.457 266.67 107.153 265.302 106.545 263.629C105.937 261.957 105.481 260.74 105.329 259.828C105.177 258.764 103.504 259.676 102.744 261.957C101.832 264.085 101.832 264.845 101.832 266.214Z" stroke="black" stroke-width="1.52039" stroke-miterlimit="10" stroke-linecap="round" stroke-linejoin="round"/>
<path d="M82.2194 301.487C82.2194 301.487 81.4592 303.768 82.6756 307.113" stroke="black" stroke-width="1.52039" stroke-miterlimit="10" stroke-linecap="round" stroke-linejoin="round"/>
<path d="M78.57 306.2C78.57 306.2 80.6986 302.247 81.6108 301.335" stroke="black" stroke-width="1.52039" stroke-miterlimit="10" stroke-linecap="round" stroke-linejoin="round"/>
<path d="M83.1315 325.357C83.1315 325.357 79.6346 326.573 77.8101 328.398" stroke="black" stroke-width="1.52039" stroke-miterlimit="10" stroke-linecap="round" stroke-linejoin="round"/>
<path d="M83.5878 326.269C83.5878 326.269 82.5235 328.246 82.6755 330.83" stroke="black" stroke-width="1.52039" stroke-miterlimit="10" stroke-linecap="round" stroke-linejoin="round"/>
<path d="M147.9 266.67C148.356 266.214 148.66 265.302 148.508 262.565C148.356 259.98 147.748 259.068 146.227 259.068C144.859 259.068 143.947 259.676 142.578 260.284C141.362 260.893 138.777 261.805 137.105 261.957" stroke="black" stroke-width="1.52039" stroke-miterlimit="10" stroke-linecap="round" stroke-linejoin="round"/>
<path d="M153.83 270.319C153.526 269.255 153.07 265.606 153.07 262.717C153.07 259.981 153.374 258.916 153.374 258.916" stroke="black" stroke-width="1.52039" stroke-miterlimit="10" stroke-linecap="round" stroke-linejoin="round"/>
<path d="M155.806 265.302C155.806 265.302 155.958 263.325 155.806 262.413" stroke="black" stroke-width="1.52039" stroke-miterlimit="10" stroke-linecap="round" stroke-linejoin="round"/>
<path d="M158.39 256.788C159.303 256.18 163.256 255.875 166.753 256.484C168.425 256.636 170.554 256.94 172.986 257.244" stroke="black" stroke-width="1.52039" stroke-miterlimit="10" stroke-linecap="round" stroke-linejoin="round"/>
<path d="M135.737 278.225C135.737 278.225 135.129 274.12 135.585 268.19C136.193 268.038 136.497 268.19 136.497 268.19" stroke="black" stroke-width="1.52039" stroke-miterlimit="10" stroke-linecap="round" stroke-linejoin="round"/>
<path d="M136.041 260.284H135.129C135.129 260.284 134.064 256.787 134.824 253.29C134.824 252.986 134.977 252.53 133.76 252.682C132.544 252.834 130.111 253.29 127.831 254.051C126.462 254.507 124.486 255.723 124.486 255.723" stroke="black" stroke-width="1.52039" stroke-miterlimit="10" stroke-linecap="round" stroke-linejoin="round"/>
<path d="M135.585 274.576C138.929 274.728 142.122 271.231 135.585 270.927" stroke="black" stroke-width="1.52039" stroke-miterlimit="10" stroke-linecap="round" stroke-linejoin="round"/>
<path d="M135.129 258.764C138.473 258.916 141.514 255.875 135.129 255.419" stroke="black" stroke-width="1.52039" stroke-miterlimit="10" stroke-linecap="round" stroke-linejoin="round"/>
<path d="M135.129 278.529C134.673 276.857 134.369 275.184 134.369 273.512C134.217 271.839 134.217 270.167 134.369 268.495C134.369 268.038 134.825 267.734 135.129 267.734C135.585 267.734 135.889 268.19 135.889 268.495C135.737 270.015 135.585 271.687 135.737 273.208C135.737 274.728 136.041 276.401 136.345 277.921C136.497 278.225 136.193 278.529 135.889 278.681C135.585 278.985 135.281 278.833 135.129 278.529Z" fill="black"/>
<path d="M134.065 260.437C133.913 259.676 133.761 259.068 133.609 258.46C133.457 257.852 133.457 257.092 133.457 256.484C133.457 255.115 133.609 253.899 133.913 252.683C133.913 252.379 134.217 252.226 134.521 252.379C134.825 252.379 134.825 252.683 134.825 252.835C134.521 254.051 134.521 255.267 134.673 256.332C134.673 256.94 134.825 257.548 134.977 258.004C135.129 258.612 135.281 259.22 135.433 259.676C135.585 260.132 135.433 260.437 134.977 260.741C134.825 261.045 134.369 260.893 134.065 260.437Z" fill="black"/>
<path d="M232.585 373.857C232.585 373.857 225.591 368.536 221.79 367.168C217.989 365.799 210.387 366.103 205.218 369.6C200.049 373.249 189.254 383.892 184.541 388.149C179.827 392.406 172.682 403.049 170.249 408.066C167.816 413.083 167.816 417.036 167.816 417.036L165.688 416.884C165.688 416.884 164.928 430.568 175.114 440.602C185.301 450.485 198.832 455.046 209.019 453.07C219.358 450.941 230 441.819 233.193 439.69C236.386 437.562 244.596 430.872 244.596 430.872L241.403 429.808C241.403 429.808 245.356 423.422 247.333 418.709C249.309 413.996 249.613 409.434 249.613 409.434C249.613 409.434 244.596 407.914 242.62 406.546C240.643 405.177 237.906 401.224 237.906 401.224C237.906 401.224 237.602 404.113 234.257 405.025C230.913 405.938 225.895 406.242 225.895 406.242C225.895 406.242 225.591 410.195 225.287 411.107C224.983 412.171 224.223 413.692 224.223 413.692C224.223 413.692 227.568 414.908 228.328 418.101C228.936 421.294 228.48 425.703 225.743 428.135C223.159 430.568 220.118 430.264 218.293 429.047C216.469 427.831 216.621 423.878 216.621 423.878L216.925 421.75L215.557 420.229L209.171 424.638C209.171 424.638 202.025 419.165 200.505 418.253C198.984 417.341 188.19 411.867 188.19 411.867L178.763 408.37L182.716 400.616C182.716 400.616 187.429 390.734 193.207 385.868C198.984 381.003 202.785 378.571 205.37 378.266C207.955 377.962 211.756 379.787 212.972 381.003C214.036 382.22 215.557 383.284 215.557 383.284C215.557 383.284 219.662 381.915 224.983 379.179C230.304 376.442 232.585 373.857 232.585 373.857Z" fill="black"/>
<path d="M206.891 414.604L202.938 411.867C202.938 411.867 205.37 409.434 206.891 410.499C208.259 411.715 206.891 414.604 206.891 414.604Z" fill="black"/>
<path d="M188.646 404.721L184.997 403.353C184.997 403.353 185.605 400.16 187.886 400.921C190.319 401.377 188.646 404.721 188.646 404.721Z" fill="black"/>
<path d="M224.983 400.008C224.983 400.008 226.807 410.195 223.615 413.844" stroke="black" stroke-width="1.52039" stroke-miterlimit="10" stroke-linecap="round" stroke-linejoin="round"/>
<path d="M223.463 413.54C223.463 413.54 226.656 414.3 227.264 415.82C227.873 417.341 230.761 423.726 225.744 428.135C220.727 432.545 217.078 428.896 216.774 426.615C216.47 424.335 217.23 422.358 217.078 421.75C216.926 421.142 215.709 419.317 214.189 420.686C212.669 422.054 208.868 425.247 208.868 425.247C208.868 425.247 204.611 421.142 198.833 417.341C193.056 413.54 178.308 408.218 178.308 408.218C178.308 408.218 180.589 403.809 181.653 402.441C182.717 401.073 184.998 394.839 188.343 390.734C192.296 385.869 197.465 381.46 202.786 379.027C208.108 376.594 212.517 380.699 213.885 381.916C215.253 383.132 220.119 389.366 220.879 390.582" stroke="black" stroke-width="1.52039" stroke-miterlimit="10" stroke-linecap="round" stroke-linejoin="round"/>
<path d="M239.122 391.19C239.122 391.19 238.362 399.096 237.906 401.072C237.45 403.049 236.386 404.417 234.105 405.025C231.825 405.633 225.743 406.394 225.743 406.394" stroke="black" stroke-width="1.52039" stroke-miterlimit="10" stroke-linecap="round" stroke-linejoin="round"/>
<path d="M238.058 386.477C238.058 386.477 237.45 380.851 236.69 377.811C235.93 374.77 235.17 373.705 234.257 373.401C233.345 373.097 226.656 378.115 224.527 379.331C222.398 380.547 217.989 382.22 215.861 383.436" stroke="black" stroke-width="1.52039" stroke-miterlimit="10" stroke-linecap="round" stroke-linejoin="round"/>
<path d="M243.227 392.406C243.227 392.406 243.075 381.611 239.731 371.881" stroke="black" stroke-width="1.52039" stroke-miterlimit="10" stroke-linecap="round" stroke-linejoin="round"/>
<path d="M202.482 400.008C201.113 399.248 197.465 397.576 195.64 398.944C193.664 400.464 195.184 403.201 193.359 405.786C191.687 408.37 190.471 408.978 188.798 408.674C187.126 408.37 183.173 407.61 181.044 404.873" stroke="black" stroke-width="1.52039" stroke-miterlimit="10" stroke-linecap="round" stroke-linejoin="round"/>
<path d="M208.411 416.276C206.738 415.06 201.113 410.499 199.897 409.13" stroke="black" stroke-width="1.52039" stroke-miterlimit="10" stroke-linecap="round" stroke-linejoin="round"/>
<path d="M190.623 405.178C190.623 405.178 186.974 404.417 182.717 402.289" stroke="black" stroke-width="1.52039" stroke-miterlimit="10" stroke-linecap="round" stroke-linejoin="round"/>
<path d="M204.61 421.598C203.242 419.013 197.312 413.996 196.4 411.715" stroke="black" stroke-width="1.52039" stroke-miterlimit="10" stroke-linecap="round" stroke-linejoin="round"/>
<path d="M208.259 393.622C204.306 394.687 196.4 393.622 195.336 391.19" stroke="black" stroke-width="1.52039" stroke-miterlimit="10" stroke-linecap="round" stroke-linejoin="round"/>
<path d="M203.85 389.67C202.938 389.67 200.202 389.061 199.593 388.605" stroke="black" stroke-width="1.52039" stroke-miterlimit="10" stroke-linecap="round" stroke-linejoin="round"/>
<path d="M232.585 373.857C232.585 373.857 225.591 368.536 221.79 367.168C217.989 365.799 210.387 366.103 205.218 369.6C200.049 373.249 189.254 383.892 184.541 388.149C179.827 392.406 172.682 403.049 170.249 408.066C167.816 413.083 167.816 417.036 167.816 417.036L165.688 416.884C165.688 416.884 164.928 430.568 175.114 440.602C185.301 450.485 198.832 455.046 209.019 453.07C219.358 450.941 230 441.819 233.193 439.69C236.386 437.562 244.596 430.872 244.596 430.872L241.403 429.808C241.403 429.808 245.356 423.422 247.333 418.709C249.309 413.996 249.613 409.434 249.613 409.434C249.613 409.434 244.596 407.914 242.62 406.546C240.643 405.177 237.906 401.224 237.906 401.224" stroke="black" stroke-width="1.52039" stroke-miterlimit="10" stroke-linecap="round" stroke-linejoin="round"/>
<path d="M223.159 418.861C224.376 419.165 225.288 422.814 223.767 424.639C222.247 426.311 219.054 425.399 220.118 423.118C221.183 420.838 221.487 421.902 221.487 421.902" stroke="black" stroke-width="1.52039" stroke-miterlimit="10" stroke-linecap="round" stroke-linejoin="round"/>
<path d="M206.587 414.604C206.587 414.604 209.019 411.867 207.043 410.499C205.066 409.13 203.09 411.715 203.09 411.715" stroke="black" stroke-width="1.52039" stroke-miterlimit="10" stroke-linecap="round" stroke-linejoin="round"/>
<path d="M188.646 404.113C188.646 404.113 190.166 401.528 188.19 400.616C186.213 399.704 185.301 402.745 185.301 402.745" stroke="black" stroke-width="1.52039" stroke-miterlimit="10" stroke-linecap="round" stroke-linejoin="round"/>
</svg>
